<svg width="177" height="38" viewBox="0 0 177 38" fill="none" xmlns="http://www.w3.org/2000/svg">
<rect x="0.5" y="0.5" width="176" height="37" rx="7.5" fill="#202A20"/>
<rect x="0.5" y="0.5" width="176" height="37" rx="7.5" stroke="#4E6F50"/>
<g clip-path="url(#clip0_894_188)">
<path d="M26.0379 6.5H12.1613C9.08965 6.5 6.59961 8.99004 6.59961 12.0617V25.9383C6.59961 29.01 9.08965 31.5 12.1613 31.5H26.0379C29.1096 31.5 31.5996 29.01 31.5996 25.9383V12.0617C31.5996 8.99004 29.1096 6.5 26.0379 6.5Z" fill="url(#paint0_linear_894_188)"/>
<path d="M18.3362 28.3874C17.5904 28.1208 17.4304 27.7583 17.1245 25.6341C16.7687 23.1649 16.6912 21.6366 16.897 21.1524C17.1704 20.5108 17.912 20.1466 18.9495 20.1424C19.9787 20.1383 20.727 20.5058 21.002 21.1524C21.2087 21.6358 21.1312 23.1649 20.7754 25.6341C20.5337 27.3591 20.4004 27.7949 20.067 28.0883C19.6087 28.4941 18.9587 28.6066 18.342 28.3883L18.3362 28.3874ZM15.1504 25.8541C12.5754 24.5874 10.9254 22.4441 10.3254 19.5924C10.1754 18.8566 10.1504 17.1008 10.292 16.4258C10.667 14.6133 11.3837 13.1958 12.5754 11.9424C14.292 10.1324 16.5004 9.17578 18.9587 9.17578C21.392 9.17578 23.592 10.1149 25.267 11.8708C26.542 13.1958 27.2587 14.5983 27.6254 16.4458C27.7504 17.0608 27.7504 18.7374 27.6337 19.4291C27.2504 21.6158 26.0337 23.6074 24.2587 24.9458C23.6254 25.4241 22.0754 26.2591 21.8254 26.2591C21.7337 26.2591 21.7254 26.1641 21.767 25.7799C21.842 25.1633 21.917 25.0349 22.267 24.8883C22.8254 24.6549 23.7754 23.9783 24.3587 23.3933C25.367 22.3933 26.1087 21.0849 26.4504 19.7099C26.667 18.8516 26.642 16.9433 26.4004 16.0599C25.642 13.2516 23.3504 11.0683 20.542 10.4849C19.7254 10.3183 18.242 10.3183 17.417 10.4849C14.5754 11.0683 12.2254 13.3599 11.5087 16.2433C11.317 17.0266 11.317 18.9349 11.5087 19.7183C11.9837 21.6266 13.217 23.3766 14.8337 24.4183C15.1504 24.6266 15.5337 24.8433 15.692 24.9099C16.042 25.0599 16.117 25.1849 16.1837 25.8016C16.2254 26.1766 16.217 26.2849 16.1254 26.2849C16.067 26.2849 15.642 26.1016 15.192 25.8849L15.1504 25.8541ZM15.1837 22.4641C14.317 21.7724 13.5504 20.5458 13.2337 19.3424C13.042 18.6158 13.042 17.2341 13.242 16.5091C13.767 14.5524 15.2087 13.0358 17.2087 12.3233C17.892 12.0816 19.4087 12.0274 20.2504 12.2133C23.1504 12.8591 25.2087 15.7633 24.8087 18.6441C24.6504 19.8049 24.2504 20.7583 23.542 21.6441C23.192 22.0916 22.342 22.8424 22.192 22.8424C22.167 22.8424 22.142 22.5591 22.142 22.2141V21.5841L22.5754 21.0674C24.2087 19.1108 24.092 16.3774 22.3087 14.5841C21.617 13.8858 20.817 13.4758 19.7837 13.2866C19.117 13.1633 18.9754 13.1633 18.2754 13.2783C17.2129 13.4516 16.3895 13.8633 15.6587 14.5866C13.867 16.3616 13.7504 19.1091 15.3837 21.0674L15.8137 21.5841V22.2174C15.8137 22.5674 15.7862 22.8508 15.752 22.8508C15.7187 22.8508 15.477 22.6841 15.2187 22.4758L15.1837 22.4641ZM18.0754 19.0616C17.3337 18.7166 16.9337 18.0658 16.9254 17.2174C16.9254 16.4549 17.3504 15.7899 18.0837 15.4008C18.5504 15.1558 19.3754 15.1558 19.842 15.4024C20.3504 15.6666 20.767 16.1791 20.9254 16.7141C21.4087 18.3574 19.667 19.7974 18.092 19.0616H18.0754Z" fill="white"/>
<path d="M19.0901 19.3832C20.2379 19.3832 21.1684 18.4527 21.1684 17.3049C21.1684 16.1571 20.2379 15.2266 19.0901 15.2266C17.9422 15.2266 17.0117 16.1571 17.0117 17.3049C17.0117 18.4527 17.9422 19.3832 19.0901 19.3832Z" fill="white"/>
<path d="M19.2893 20.1895C19.4335 20.2086 19.7201 20.2461 19.9851 20.3311C20.2518 20.4145 20.4935 20.5453 20.6818 20.6795C20.8651 20.8128 20.9985 20.9511 21.0818 21.1195C21.1651 21.2878 21.2068 21.4878 21.2318 21.8153C21.2485 22.1436 21.2485 22.5986 21.1735 23.4486C21.0985 24.2961 20.9485 25.5386 20.8318 26.3344C20.7151 27.1344 20.6318 27.4844 20.5235 27.7428C20.4151 28.0094 20.2735 28.1844 20.1151 28.3094C19.9568 28.4344 19.7735 28.5094 19.5985 28.5511C19.4235 28.5928 19.2651 28.5928 19.1151 28.5928C18.9651 28.5928 18.8235 28.5928 18.6318 28.5511C18.4401 28.5094 18.1901 28.4344 18.0068 28.2844C17.8151 28.1344 17.6901 27.9178 17.5901 27.6344C17.4901 27.3511 17.4151 27.0094 17.3151 26.3261C17.2151 25.6428 17.0818 24.6261 16.9985 23.8511C16.9151 23.0761 16.8818 22.5428 16.8751 22.1845C16.8668 21.8261 16.8835 21.6486 16.9251 21.4761C16.9668 21.3095 17.0335 21.1511 17.1251 21.0178C17.2168 20.8845 17.3368 20.7678 17.4585 20.6761C17.5776 20.5845 17.7001 20.5178 17.8468 20.4661C17.9918 20.4078 18.166 20.3578 18.3801 20.3161C18.5968 20.2745 18.8468 20.2328 18.9751 20.2161C19.1035 20.197 19.1035 20.197 19.2468 20.2161L19.2893 20.1895Z" fill="white"/>
</g>
<path d="M37.2148 13.5H41.0645V12.7881H38.0059V7.15869H37.2148V13.5ZM42.6066 8.15625C42.8746 8.15625 43.0856 7.94092 43.0856 7.67725C43.0856 7.40918 42.8746 7.19824 42.6066 7.19824C42.3429 7.19824 42.1276 7.40918 42.1276 7.67725C42.1276 7.94092 42.3429 8.15625 42.6066 8.15625ZM42.2243 13.5H42.9889V8.92969H42.2243V13.5ZM46.012 13.5879C47.0315 13.5879 47.7874 13.0254 47.7874 12.2256V12.2212C47.7874 11.5708 47.4534 11.2061 46.5305 10.9819L45.8054 10.8062C45.3001 10.6831 45.0935 10.4678 45.0935 10.1558V10.1514C45.0935 9.74707 45.4363 9.479 45.99 9.479C46.5569 9.479 46.8953 9.77344 46.9568 10.2173L46.9612 10.248H47.6907L47.6863 10.1909C47.6292 9.42627 46.992 8.8418 45.99 8.8418C45.0013 8.8418 44.3113 9.3999 44.3113 10.1865V10.1909C44.3113 10.8501 44.7288 11.25 45.5901 11.4565L46.3152 11.6323C46.8338 11.7598 47.0052 11.9443 47.0052 12.2739V12.2783C47.0052 12.6914 46.636 12.9507 46.0164 12.9507C45.3924 12.9507 45.054 12.6826 44.9617 12.2256L44.9529 12.1816H44.1883L44.1927 12.2212C44.2849 13.0386 44.9353 13.5879 46.012 13.5879ZM50.4281 13.5879C50.5776 13.5879 50.7402 13.5703 50.8368 13.5571V12.9375C50.7709 12.9419 50.683 12.9551 50.5907 12.9551C50.1821 12.9551 49.9667 12.8188 49.9667 12.3311V9.5625H50.8368V8.92969H49.9667V7.69482H49.1757V8.92969H48.5077V9.5625H49.1757V12.3354C49.1757 13.21 49.5888 13.5879 50.4281 13.5879ZM53.7676 13.5879C54.7652 13.5879 55.5123 12.9902 55.6617 12.2344L55.6705 12.1904H54.919L54.9058 12.23C54.774 12.6211 54.3653 12.9111 53.7852 12.9111C52.9722 12.9111 52.4537 12.3618 52.4361 11.4214H55.7276V11.1401C55.7276 9.76904 54.9673 8.8418 53.7193 8.8418C52.4713 8.8418 51.6627 9.81299 51.6627 11.228V11.2324C51.6627 12.6694 52.4537 13.5879 53.7676 13.5879ZM53.7149 9.51855C54.3829 9.51855 54.8751 9.93604 54.9498 10.8237H52.4493C52.5328 9.97119 53.0513 9.51855 53.7149 9.51855ZM56.861 13.5H57.6257V10.8105C57.6257 10.0327 58.0959 9.51855 58.8166 9.51855C59.5197 9.51855 59.8669 9.92725 59.8669 10.6699V13.5H60.6315V10.5337C60.6315 9.49219 60.0515 8.8418 59.0495 8.8418C58.3552 8.8418 57.8894 9.15381 57.6433 9.58008H57.6257V8.92969H56.861V13.5ZM66.0669 13.5879C67.3281 13.5879 68.1806 12.6738 68.1806 11.2148V11.2061C68.1806 9.74707 67.3237 8.8418 66.0625 8.8418C64.8013 8.8418 63.9487 9.75146 63.9487 11.2061V11.2148C63.9487 12.6694 64.7969 13.5879 66.0669 13.5879ZM66.0713 12.9111C65.2627 12.9111 64.7309 12.2915 64.7309 11.2148V11.2061C64.7309 10.1382 65.2671 9.51855 66.0625 9.51855C66.8711 9.51855 67.3984 10.1338 67.3984 11.2061V11.2148C67.3984 12.2871 66.8755 12.9111 66.0713 12.9111ZM69.3141 13.5H70.0787V10.8105C70.0787 10.0327 70.5489 9.51855 71.2696 9.51855C71.9728 9.51855 72.3199 9.92725 72.3199 10.6699V13.5H73.0846V10.5337C73.0846 9.49219 72.5045 8.8418 71.5026 8.8418C70.8082 8.8418 70.3424 9.15381 70.0963 9.58008H70.0787V8.92969H69.3141V13.5Z" fill="white"/>
<path d="M36.8281 30.5H38.8936L40.0625 27.0723H44.9492L46.1094 30.5H48.1748L43.5693 17.8174H41.4424L36.8281 30.5ZM42.4883 19.918H42.5234L44.4131 25.4902H40.5898L42.4883 19.918ZM49.3525 33.5762H51.251V28.9443H51.2949C51.8398 30.0166 52.9033 30.6846 54.2129 30.6846C56.5332 30.6846 58.0537 28.8301 58.0537 25.8857V25.877C58.0537 22.9238 56.542 21.0781 54.1865 21.0781C52.8682 21.0781 51.8486 21.7461 51.2949 22.8447H51.251V21.2539H49.3525V33.5762ZM53.6943 29.0498C52.2617 29.0498 51.2422 27.8018 51.2422 25.8857V25.877C51.2422 23.9521 52.2529 22.7041 53.6943 22.7041C55.1797 22.7041 56.1201 23.9082 56.1201 25.877V25.8857C56.1201 27.8369 55.1885 29.0498 53.6943 29.0498ZM59.5303 33.5762H61.4287V28.9443H61.4727C62.0176 30.0166 63.0811 30.6846 64.3906 30.6846C66.7109 30.6846 68.2314 28.8301 68.2314 25.8857V25.877C68.2314 22.9238 66.7197 21.0781 64.3643 21.0781C63.0459 21.0781 62.0264 21.7461 61.4727 22.8447H61.4287V21.2539H59.5303V33.5762ZM63.8721 29.0498C62.4395 29.0498 61.4199 27.8018 61.4199 25.8857V25.877C61.4199 23.9521 62.4307 22.7041 63.8721 22.7041C65.3574 22.7041 66.2979 23.9082 66.2979 25.877V25.8857C66.2979 27.8369 65.3662 29.0498 63.8721 29.0498ZM69.7783 30.5H71.6768V17.8174H69.7783V30.5ZM77.5742 30.6846C79.8154 30.6846 81.2393 29.3486 81.5381 27.8809L81.5557 27.7842H79.7539L79.7275 27.8545C79.4902 28.5488 78.7432 29.1289 77.6182 29.1289C76.1064 29.1289 75.1484 28.1094 75.1133 26.3604H81.6611V25.7188C81.6611 22.9414 80.0703 21.0781 77.4775 21.0781C74.8848 21.0781 73.2148 23.0117 73.2148 25.9033V25.9121C73.2148 28.8301 74.8584 30.6846 77.5742 30.6846ZM77.4863 22.6338C78.7256 22.6338 79.6221 23.416 79.7803 25.0156H75.1396C75.3066 23.4688 76.2559 22.6338 77.4863 22.6338ZM87.0225 30.5H88.9912V26.167H91.7422C94.2295 26.167 95.9521 24.4707 95.9521 21.9922V21.9746C95.9521 19.4873 94.2295 17.8174 91.7422 17.8174H87.0225V30.5ZM91.25 19.4785C92.9639 19.4785 93.9482 20.4014 93.9482 21.9834V22.001C93.9482 23.5918 92.9639 24.5146 91.25 24.5146H88.9912V19.4785H91.25ZM101.015 30.6846C103.66 30.6846 105.4 28.8564 105.4 25.877V25.8594C105.4 22.8975 103.643 21.0781 101.006 21.0781C98.3779 21.0781 96.6289 22.9062 96.6289 25.8594V25.877C96.6289 28.8477 98.3604 30.6846 101.015 30.6846ZM101.023 29.0938C99.5381 29.0938 98.5713 27.9248 98.5713 25.877V25.8594C98.5713 23.8379 99.5469 22.6689 101.006 22.6689C102.491 22.6689 103.458 23.8379 103.458 25.8594V25.877C103.458 27.916 102.509 29.0938 101.023 29.0938ZM110.322 30.6846C111.649 30.6846 112.669 30.0166 113.223 28.9355H113.258V30.5H115.165V17.8174H113.258V22.8271H113.223C112.669 21.7373 111.614 21.0781 110.305 21.0781C107.984 21.0781 106.455 22.9238 106.455 25.8682V25.877C106.455 28.8213 107.967 30.6846 110.322 30.6846ZM110.823 29.0498C109.32 29.0498 108.397 27.8457 108.397 25.877V25.8682C108.397 23.917 109.329 22.7041 110.823 22.7041C112.247 22.7041 113.267 23.9521 113.267 25.8682V25.877C113.267 27.8018 112.256 29.0498 110.823 29.0498ZM121.089 30.6846C123.312 30.6846 124.859 29.2607 125.062 27.4062L125.07 27.3447H123.242L123.233 27.415C123.005 28.417 122.258 29.0938 121.089 29.0938C119.621 29.0938 118.646 27.9072 118.646 25.8857V25.877C118.646 23.8994 119.604 22.6689 121.08 22.6689C122.319 22.6689 123.022 23.4336 123.225 24.3389L123.242 24.4092H125.053L125.044 24.3477C124.886 22.6074 123.444 21.0781 121.062 21.0781C118.426 21.0781 116.703 22.9326 116.703 25.8594V25.8682C116.703 28.8301 118.391 30.6846 121.089 30.6846ZM129.131 30.667C130.353 30.667 131.425 30.0342 131.961 29.041H131.996V30.5H133.903V24.1279C133.903 22.2734 132.471 21.0781 130.212 21.0781C127.936 21.0781 126.556 22.2998 126.424 23.8906L126.415 23.9873H128.208L128.226 23.9082C128.384 23.1699 129.061 22.6514 130.159 22.6514C131.337 22.6514 131.996 23.2666 131.996 24.2861V24.9805L129.482 25.1299C127.294 25.2617 126.046 26.2461 126.046 27.8545V27.8721C126.046 29.5332 127.285 30.667 129.131 30.667ZM127.962 27.8281V27.8105C127.962 27.0283 128.595 26.5273 129.737 26.457L131.996 26.3164V27.0371C131.996 28.2412 130.985 29.1465 129.649 29.1465C128.63 29.1465 127.962 28.6367 127.962 27.8281ZM139.212 30.6846C141.392 30.6846 142.974 29.5244 142.974 27.8369V27.8281C142.974 26.501 142.253 25.7539 140.363 25.3145L138.86 24.9717C137.867 24.7344 137.489 24.3477 137.489 23.7764V23.7676C137.489 23.0293 138.131 22.5459 139.15 22.5459C140.223 22.5459 140.855 23.1084 140.97 23.917L140.979 23.9785H142.763L142.754 23.873C142.657 22.2998 141.339 21.0781 139.15 21.0781C137.023 21.0781 135.582 22.2119 135.582 23.8643V23.873C135.582 25.2178 136.452 26.0615 138.21 26.4658L139.722 26.8086C140.715 27.0459 141.049 27.3887 141.049 27.9863V27.9951C141.049 28.7422 140.363 29.2168 139.221 29.2168C138.052 29.2168 137.419 28.7158 137.243 27.8633L137.226 27.7754H135.345L135.354 27.8545C135.547 29.542 136.9 30.6846 139.212 30.6846ZM147.693 30.6846C148.08 30.6846 148.44 30.6406 148.66 30.6055V29.1377C148.52 29.1553 148.353 29.1729 148.15 29.1729C147.351 29.1729 146.929 28.8916 146.929 27.9512V22.7656H148.66V21.2539H146.929V18.8457H144.986V21.2539H143.659V22.7656H144.986V28.0654C144.986 29.9111 145.865 30.6846 147.693 30.6846ZM153.696 30.6846C155.876 30.6846 157.458 29.5244 157.458 27.8369V27.8281C157.458 26.501 156.737 25.7539 154.848 25.3145L153.345 24.9717C152.352 24.7344 151.974 24.3477 151.974 23.7764V23.7676C151.974 23.0293 152.615 22.5459 153.635 22.5459C154.707 22.5459 155.34 23.1084 155.454 23.917L155.463 23.9785H157.247L157.238 23.873C157.142 22.2998 155.823 21.0781 153.635 21.0781C151.508 21.0781 150.066 22.2119 150.066 23.8643V23.873C150.066 25.2178 150.937 26.0615 152.694 26.4658L154.206 26.8086C155.199 27.0459 155.533 27.3887 155.533 27.9863V27.9951C155.533 28.7422 154.848 29.2168 153.705 29.2168C152.536 29.2168 151.903 28.7158 151.728 27.8633L151.71 27.7754H149.829L149.838 27.8545C150.031 29.542 151.385 30.6846 153.696 30.6846Z" fill="white"/>
<defs>
<linearGradient id="paint0_linear_894_188" x1="19.0738" y1="31.8175" x2="18.8621" y2="6.5" gradientUnits="userSpaceOnUse">
<stop stop-color="#822CBE"/>
<stop offset="1" stop-color="#D772FB"/>
</linearGradient>
<clipPath id="clip0_894_188">
<rect width="25" height="25" fill="white" transform="translate(6.59961 6.5)"/>
</clipPath>
</defs>
</svg>
