<svg width="731" height="471" viewBox="0 0 731 471" fill="none" xmlns="http://www.w3.org/2000/svg">
<g filter="url(#filter0_f_874_44)">
<path d="M168.081 436.879V303.916H34L168.081 436.879Z" fill="url(#paint0_linear_874_44)"/>
</g>
<g filter="url(#filter1_f_874_44)">
<path d="M696.024 298.888L563.061 298.888L563.061 432.969L696.024 298.888Z" fill="url(#paint1_linear_874_44)"/>
</g>
<g filter="url(#filter2_di_874_44)">
<path d="M150.202 3.93768C150.202 1.76296 151.965 0 154.14 0H575.323C577.497 0 579.26 1.76296 579.26 3.93769V425.121C579.26 427.295 577.497 429.058 575.323 429.058H154.14C151.965 429.058 150.202 427.295 150.202 425.121V3.93768Z" fill="#EFE9D1"/>
<path d="M370.685 357.033C372.263 351.091 375.195 340.058 368.914 338.389C362.633 336.72 358.261 344.282 355.415 349.523C352.569 354.764 352.791 362.82 359.242 364.533C365.692 366.247 369.106 362.974 370.685 357.033Z" fill="#D9D0AC"/>
<path d="M391.62 361.686C393.243 355.575 390.812 344.207 385.549 342.809C381.475 341.726 377.374 348.27 376.427 351.834C375.48 355.399 372.143 367.961 379.442 369.9C386.742 371.839 389.996 367.797 391.62 361.686Z" fill="#D9D0AC"/>
<path d="M388.061 377.824C388.295 373.525 397.369 361.942 402.756 363.555C408.018 364.953 405.994 378.045 404.697 382.244C403.4 386.443 398.479 387.862 394.066 386.689C389.652 385.517 387.828 382.124 388.061 377.824Z" fill="#D9D0AC"/>
<path d="M332.687 362.567C333.517 355.337 340.547 346.663 344.79 347.791C350.732 349.369 350.405 362.913 349.323 366.987C348.24 371.061 343.479 373.249 340.254 372.392C337.028 371.535 331.856 369.797 332.687 362.567Z" fill="#D9D0AC"/>
<path d="M384.674 411.09C400.844 400.847 377.671 374.518 368.674 372.128C346.946 366.355 326.797 392.26 334.682 403.624C340.16 411.518 353.93 407.102 359.113 408.115C364.296 409.129 368.505 421.333 384.674 411.09Z" fill="#D9D0AC"/>
<path d="M480.452 252.602C482.031 246.66 484.962 235.627 478.681 233.958C472.4 232.289 468.029 239.851 465.183 245.092C462.336 250.333 462.559 258.388 469.009 260.102C475.46 261.816 478.874 258.543 480.452 252.602Z" fill="#D9D0AC"/>
<path d="M501.387 257.255C503.011 251.144 500.579 239.776 495.317 238.378C491.243 237.295 487.142 243.838 486.195 247.403C485.248 250.968 481.91 263.53 489.21 265.469C496.509 267.408 499.764 263.366 501.387 257.255Z" fill="#D9D0AC"/>
<path d="M497.829 273.393C498.062 269.094 507.137 257.511 512.524 259.124C517.786 260.522 515.761 273.614 514.464 277.813C513.167 282.012 508.247 283.431 503.833 282.258C499.42 281.085 497.595 277.693 497.829 273.393Z" fill="#D9D0AC"/>
<path d="M442.454 258.136C443.285 250.905 450.314 242.232 454.558 243.36C460.499 244.938 460.172 258.482 459.09 262.556C458.008 266.63 453.246 268.818 450.021 267.961C446.796 267.104 441.624 265.366 442.454 258.136Z" fill="#D9D0AC"/>
<path d="M494.442 306.659C510.611 296.416 487.439 270.087 478.442 267.697C456.713 261.924 436.565 287.829 444.45 299.193C449.928 307.087 463.698 302.671 468.881 303.684C474.063 304.698 478.272 316.902 494.442 306.659Z" fill="#D9D0AC"/>
<path d="M432.161 125.556C433.74 119.615 436.671 108.581 430.39 106.912C424.109 105.243 419.738 112.805 416.892 118.046C414.045 123.287 414.268 131.343 420.718 133.056C427.169 134.77 430.583 131.497 432.161 125.556Z" fill="#D9D0AC"/>
<path d="M453.096 130.209C454.72 124.098 452.288 112.73 447.026 111.332C442.952 110.249 438.851 116.793 437.904 120.357C436.957 123.922 433.619 136.484 440.919 138.423C448.218 140.362 451.473 136.32 453.096 130.209Z" fill="#D9D0AC"/>
<path d="M449.538 146.348C449.771 142.048 458.846 130.465 464.233 132.078C469.495 133.476 467.47 146.569 466.173 150.767C464.876 154.966 459.956 156.385 455.542 155.212C451.129 154.04 449.304 150.647 449.538 146.348Z" fill="#D9D0AC"/>
<path d="M394.163 131.09C394.994 123.86 402.023 115.187 406.267 116.314C412.208 117.893 411.881 131.436 410.799 135.51C409.717 139.584 404.955 141.772 401.73 140.915C398.505 140.058 393.333 138.32 394.163 131.09Z" fill="#D9D0AC"/>
<path d="M446.151 179.613C462.32 169.37 439.147 143.041 430.151 140.651C408.422 134.878 388.273 160.783 396.159 172.147C401.637 180.041 415.407 175.625 420.59 176.638C425.772 177.652 429.981 189.856 446.151 179.613Z" fill="#D9D0AC"/>
<path d="M532.624 22.501C534.203 16.5597 537.134 5.52579 530.853 3.85712C524.572 2.18846 520.201 9.75025 517.355 14.9913C514.508 20.2323 514.731 28.2877 521.181 30.0014C527.632 31.7152 531.046 28.4423 532.624 22.501Z" fill="#D9D0AC"/>
<path d="M553.559 27.1543C555.183 21.0432 552.751 9.6749 547.489 8.27683C543.415 7.19445 539.314 13.7377 538.367 17.3025C537.42 20.8673 534.083 33.4289 541.382 35.3682C548.681 37.3075 551.936 33.2654 553.559 27.1543Z" fill="#D9D0AC"/>
<path d="M550.001 43.2926C550.234 38.993 559.309 27.4104 564.696 29.0234C569.958 30.4214 567.934 43.5136 566.636 47.7123C565.339 51.911 560.419 53.3298 556.005 52.1572C551.592 50.9846 549.767 47.5921 550.001 43.2926Z" fill="#D9D0AC"/>
<path d="M494.626 28.0351C495.457 20.8047 502.486 12.1316 506.73 13.2591C512.671 14.8376 512.344 28.3807 511.262 32.4548C510.18 36.5288 505.419 38.7168 502.193 37.86C498.968 37.0031 493.796 35.2655 494.626 28.0351Z" fill="#D9D0AC"/>
<path d="M546.614 76.558C562.783 66.3152 539.611 39.9863 530.614 37.5961C508.886 31.8234 488.737 57.7285 496.622 69.0918C502.1 76.9863 515.87 72.57 521.053 73.5835C526.236 74.5969 530.444 86.8008 546.614 76.558Z" fill="#D9D0AC"/>
<path fill-rule="evenodd" clip-rule="evenodd" d="M268.245 49.2631C255.124 49.2631 242.836 56.0824 238.62 59.3141C235.707 61.5475 231.687 60.7794 229.641 57.5984C227.596 54.4174 228.299 50.0281 231.212 47.7946C236.849 43.4737 251.685 35.1878 268.245 35.1878C288.968 35.1878 302.758 43.8592 311.684 53.6541C319.401 62.123 323.374 71.3875 325.039 75.2693C325.173 75.5826 325.292 75.8608 325.397 76.1007C325.475 76.1758 325.593 76.2828 325.76 76.4204C326.374 76.925 327.313 77.5607 328.604 78.3016C331.179 79.7785 334.539 81.3259 338.087 82.8205C341.026 84.0589 343.945 85.2002 346.503 86.2C347.013 86.3995 347.509 86.5932 347.988 86.781C349.397 87.3342 350.702 87.8523 351.737 88.2954C352.253 88.5163 352.769 88.7467 353.231 88.9758C353.579 89.1483 354.31 89.5168 354.998 90.0535C356.124 90.9318 356.743 91.9853 357.005 92.4666C357.326 93.0568 357.552 93.6265 357.709 94.0795C358.026 94.9935 358.251 95.9747 358.414 96.9177C358.745 98.8356 358.918 101.199 358.838 103.82C358.677 109.07 357.481 115.836 353.988 122.556C346.729 136.519 330.79 148.134 300.001 148.134C295.352 148.134 292.423 149.77 290.679 151.641C288.879 153.572 287.947 156.165 287.935 158.81C287.923 161.452 288.829 164.015 290.598 165.919C292.315 167.766 295.25 169.418 300.001 169.418C303.561 169.418 306.447 172.569 306.447 176.456C306.447 180.343 303.561 183.493 300.001 183.493C292.333 183.493 285.992 180.725 281.549 175.943C277.157 171.217 275.017 164.94 275.044 158.742C275.072 152.547 277.264 146.3 281.644 141.601C286.08 136.842 292.388 134.058 300.001 134.058C327.694 134.058 338.48 123.873 342.777 115.608C345.061 111.213 345.85 106.757 345.954 103.35C345.982 102.424 345.959 101.611 345.91 100.934C345.256 100.668 344.494 100.367 343.628 100.027C343.174 99.8488 342.696 99.6618 342.197 99.4669C339.64 98.4676 336.547 97.2586 333.446 95.9521C329.762 94.3999 325.851 92.6216 322.609 90.7621C320.992 89.8347 319.386 88.7996 318.005 87.664C316.751 86.6332 315.07 85.0329 314.044 82.7925C313.834 82.3332 313.6 81.7939 313.336 81.1864C311.593 77.1721 308.556 70.1776 302.546 63.5819C295.829 56.2119 285.252 49.2631 268.245 49.2631ZM348.019 101.853C348.019 101.853 348.003 101.845 347.975 101.829C348.006 101.846 348.019 101.853 348.019 101.853Z" fill="#E69A53"/>
<path d="M301.576 82.3889C301.576 87.8873 297.494 92.3446 292.458 92.3446C287.422 92.3446 283.34 87.8873 283.34 82.3889C283.34 76.8905 287.422 72.4332 292.458 72.4332C297.494 72.4332 301.576 76.8905 301.576 82.3889Z" fill="#E69A53"/>
<path fill-rule="evenodd" clip-rule="evenodd" d="M203.319 66.5984C203.319 62.7116 206.205 59.5607 209.765 59.5607C214.465 59.5607 218.67 60.7246 222.107 63.375C225.561 66.0391 227.619 69.7267 228.795 73.5421C231.006 80.7199 230.426 89.5576 229.692 96.8229C229.455 99.1666 229.201 101.369 228.962 103.436C228.379 108.493 227.89 112.741 227.97 116.269C227.996 117.394 228.082 118.242 228.199 118.86C228.203 118.882 228.207 118.903 228.211 118.925C229.056 118.734 230.358 118.027 232.178 115.856C234.482 113.107 236.852 108.879 239.255 103.45C242.704 95.6599 245.726 86.6168 248.643 77.8886C249.828 74.3427 250.995 70.8487 252.167 67.5119C253.442 63.8827 257.169 62.0687 260.493 63.4602C263.817 64.8517 265.478 68.9217 264.204 72.5509C263.193 75.4283 262.125 78.6264 260.999 81.9928C258.005 90.9523 254.612 101.104 250.862 109.575C248.261 115.451 245.246 121.113 241.688 125.358C238.156 129.573 233.298 133.295 227.138 133.051C222.903 132.883 219.41 130.695 217.328 126.849C215.569 123.601 215.155 119.773 215.083 116.619C214.976 111.947 215.658 106.052 216.29 100.576C216.502 98.7425 216.709 96.9562 216.878 95.2783C217.637 87.7746 217.765 81.8862 216.577 78.0301C216.052 76.3286 215.383 75.4223 214.67 74.8718C213.938 74.3076 212.533 73.636 209.765 73.636C206.205 73.636 203.319 70.4852 203.319 66.5984Z" fill="#E69A53"/>
<path d="M205.478 220.113H229.325C229.913 220.113 230.396 220.019 230.774 219.83C231.173 219.641 231.519 219.452 231.813 219.263C232.128 219.074 232.433 218.979 232.727 218.979C233.084 218.979 233.367 219.074 233.577 219.263C233.787 219.452 233.955 219.788 234.081 220.271L236.161 230.666C236.245 231.023 236.224 231.317 236.098 231.548C235.993 231.758 235.804 231.895 235.531 231.958C235.258 232 235.016 231.968 234.806 231.863C234.596 231.737 234.417 231.517 234.27 231.202C233.22 228.577 232.286 226.603 231.467 225.28C230.648 223.957 229.818 223.075 228.978 222.634C228.138 222.192 227.151 221.972 226.017 221.972H221.008V260.782C221.008 261.16 221.124 261.464 221.355 261.695C221.586 261.905 221.932 262.063 222.394 262.168L224.789 262.546C225.356 262.693 225.639 262.987 225.639 263.428C225.639 263.953 225.293 264.215 224.6 264.215H210.392C210.014 264.215 209.741 264.142 209.573 263.995C209.405 263.848 209.321 263.659 209.321 263.428C209.321 262.987 209.605 262.693 210.172 262.546L212.566 262.168C213.028 262.063 213.374 261.905 213.605 261.695C213.858 261.464 213.984 261.16 213.984 260.782V221.972H208.943C207.809 221.972 206.822 222.203 205.982 222.665C205.142 223.127 204.313 224.02 203.494 225.343C202.674 226.666 201.74 228.619 200.69 231.202C200.564 231.517 200.385 231.737 200.154 231.863C199.944 231.968 199.713 232 199.461 231.958C199.167 231.895 198.968 231.758 198.863 231.548C198.758 231.317 198.737 231.023 198.8 230.666L200.91 220.271C201.015 219.788 201.173 219.452 201.383 219.263C201.593 219.074 201.876 218.979 202.233 218.979C202.527 218.979 202.811 219.074 203.084 219.263C203.357 219.452 203.683 219.641 204.061 219.83C204.439 220.019 204.911 220.113 205.478 220.113Z" fill="#385A37"/>
<path d="M249.833 218.948V260.876C249.833 261.338 249.917 261.685 250.085 261.916C250.274 262.147 250.547 262.304 250.904 262.388L252.51 262.703C253.014 262.85 253.266 263.102 253.266 263.459C253.266 263.963 252.93 264.215 252.258 264.215H240.981C240.666 264.215 240.424 264.152 240.256 264.026C240.088 263.879 240.004 263.701 240.004 263.491C240.004 263.302 240.067 263.144 240.193 263.018C240.34 262.892 240.561 262.787 240.855 262.703L242.524 262.388C242.881 262.304 243.144 262.147 243.312 261.916C243.501 261.685 243.595 261.349 243.595 260.908V222.728C243.595 222.392 243.532 222.15 243.406 222.003C243.28 221.835 243.081 221.741 242.808 221.72L240.54 221.657C240.288 221.636 240.109 221.573 240.004 221.468C239.899 221.342 239.847 221.195 239.847 221.027C239.847 220.838 239.91 220.68 240.036 220.554C240.162 220.428 240.382 220.313 240.697 220.208L246.809 218.255C247.271 218.087 247.638 217.971 247.911 217.908C248.205 217.824 248.478 217.782 248.73 217.782C249.087 217.782 249.36 217.887 249.549 218.097C249.738 218.307 249.833 218.591 249.833 218.948ZM249.108 242.511L248.226 241.629L249.486 240.526C251.796 238.468 253.781 236.998 255.44 236.116C257.099 235.234 258.695 234.793 260.228 234.793C262.538 234.793 264.334 235.56 265.615 237.093C266.896 238.626 267.694 240.778 268.009 243.55L270.151 260.719C270.214 261.223 270.33 261.611 270.498 261.884C270.687 262.157 270.991 262.336 271.411 262.42L272.86 262.735C273.133 262.798 273.322 262.892 273.427 263.018C273.553 263.144 273.616 263.302 273.616 263.491C273.616 263.701 273.543 263.879 273.396 264.026C273.249 264.152 273.007 264.215 272.671 264.215H261.236C260.564 264.215 260.228 263.963 260.228 263.459C260.228 263.123 260.47 262.871 260.953 262.703L262.654 262.388C263.074 262.304 263.378 262.126 263.567 261.853C263.777 261.58 263.861 261.202 263.819 260.719L261.803 244.401C261.53 242.322 260.995 240.778 260.197 239.77C259.42 238.762 258.275 238.258 256.763 238.258C255.797 238.258 254.789 238.521 253.739 239.046C252.71 239.571 251.576 240.369 250.337 241.44L249.108 242.511Z" fill="#385A37"/>
<path d="M302.298 246.48C302.298 247.131 302.098 247.635 301.699 247.992C301.3 248.349 300.712 248.528 299.935 248.528H280.058V247.11H294.769C295.546 247.11 295.935 246.753 295.935 246.039C295.935 242.973 295.347 240.621 294.171 238.983C292.994 237.345 291.451 236.526 289.54 236.526C287.965 236.526 286.6 236.977 285.445 237.88C284.29 238.783 283.397 240.085 282.767 241.786C282.137 243.487 281.822 245.525 281.822 247.898C281.822 252.119 282.788 255.332 284.72 257.537C286.673 259.721 289.214 260.813 292.343 260.813C294.423 260.813 296.218 260.299 297.73 259.27C299.263 258.22 300.282 256.813 300.786 255.049C300.954 254.797 301.101 254.629 301.227 254.544C301.353 254.439 301.489 254.387 301.636 254.387C301.846 254.387 301.993 254.482 302.077 254.671C302.182 254.839 302.224 255.049 302.203 255.301C302.056 257.086 301.437 258.713 300.345 260.183C299.274 261.632 297.846 262.787 296.061 263.648C294.276 264.488 292.259 264.909 290.012 264.909C287.24 264.909 284.804 264.31 282.704 263.113C280.604 261.916 278.966 260.236 277.79 258.073C276.614 255.889 276.026 253.337 276.026 250.418C276.026 247.415 276.603 244.737 277.758 242.385C278.934 240.033 280.593 238.185 282.736 236.841C284.878 235.476 287.408 234.793 290.327 234.793C292.763 234.793 294.874 235.297 296.659 236.305C298.444 237.292 299.83 238.668 300.817 240.432C301.804 242.175 302.298 244.191 302.298 246.48Z" fill="#385A37"/>
<path d="M346.184 220.901C346.184 220.649 346.268 220.46 346.436 220.334C346.625 220.187 346.898 220.113 347.255 220.113H357.272C357.65 220.113 357.923 220.187 358.091 220.334C358.281 220.46 358.375 220.638 358.375 220.869C358.375 221.058 358.312 221.216 358.186 221.342C358.06 221.468 357.829 221.583 357.493 221.688L356.138 222.129C355.508 222.36 354.973 222.749 354.532 223.295C354.091 223.841 353.692 224.692 353.335 225.847L342.12 259.49C341.973 259.973 341.858 260.393 341.774 260.75C341.711 261.086 341.679 261.454 341.679 261.853V263.239C341.679 263.554 341.595 263.795 341.427 263.963C341.28 264.131 341.06 264.215 340.766 264.215H335.001C334.686 264.215 334.444 264.131 334.276 263.963C334.108 263.795 334.024 263.543 334.024 263.207V261.853C334.024 261.538 333.982 261.223 333.898 260.908C333.835 260.572 333.72 260.183 333.552 259.742L321.266 223.736C321.098 223.232 320.92 222.875 320.731 222.665C320.542 222.434 320.269 222.255 319.912 222.129L318.4 221.751C317.833 221.541 317.549 221.258 317.549 220.901C317.549 220.649 317.644 220.46 317.833 220.334C318.022 220.187 318.295 220.113 318.652 220.113H332.292C332.67 220.113 332.943 220.187 333.111 220.334C333.3 220.46 333.394 220.649 333.394 220.901C333.394 221.111 333.31 221.279 333.142 221.405C332.995 221.51 332.775 221.615 332.481 221.72L329.646 222.129C329.142 222.234 328.837 222.444 328.732 222.76C328.627 223.054 328.68 223.537 328.89 224.209L341.081 260.183L339.191 261.916L351.224 225.752C351.539 224.765 351.571 223.978 351.319 223.39C351.067 222.801 350.395 222.36 349.303 222.066L347.034 221.688C346.761 221.604 346.551 221.51 346.404 221.405C346.257 221.279 346.184 221.111 346.184 220.901Z" fill="#385A37"/>
<path d="M383.697 246.48C383.697 247.131 383.498 247.635 383.099 247.992C382.7 248.349 382.112 248.528 381.335 248.528H361.457V247.11H376.168C376.945 247.11 377.334 246.753 377.334 246.039C377.334 242.973 376.746 240.621 375.57 238.983C374.394 237.345 372.85 236.526 370.939 236.526C369.364 236.526 367.999 236.977 366.844 237.88C365.689 238.783 364.796 240.085 364.166 241.786C363.536 243.487 363.221 245.525 363.221 247.898C363.221 252.119 364.187 255.332 366.119 257.537C368.073 259.721 370.614 260.813 373.743 260.813C375.822 260.813 377.617 260.299 379.13 259.27C380.663 258.22 381.681 256.813 382.185 255.049C382.353 254.797 382.5 254.629 382.626 254.544C382.752 254.439 382.889 254.387 383.036 254.387C383.246 254.387 383.393 254.482 383.477 254.671C383.582 254.839 383.624 255.049 383.603 255.301C383.456 257.086 382.836 258.713 381.744 260.183C380.673 261.632 379.245 262.787 377.46 263.648C375.675 264.488 373.659 264.909 371.412 264.909C368.64 264.909 366.203 264.31 364.103 263.113C362.003 261.916 360.365 260.236 359.189 258.073C358.013 255.889 357.425 253.337 357.425 250.418C357.425 247.415 358.003 244.737 359.158 242.385C360.334 240.033 361.993 238.185 364.135 236.841C366.277 235.476 368.808 234.793 371.727 234.793C374.163 234.793 376.273 235.297 378.059 236.305C379.844 237.292 381.23 238.668 382.217 240.432C383.204 242.175 383.697 244.191 383.697 246.48Z" fill="#385A37"/>
<path d="M389.898 237.439L387.756 236.967C387.399 236.862 387.147 236.746 387 236.62C386.853 236.473 386.779 236.316 386.779 236.148C386.779 235.917 386.863 235.749 387.032 235.644C387.2 235.518 387.41 235.455 387.662 235.455H389.993C390.413 235.455 390.749 235.392 391.001 235.266C391.253 235.119 391.473 234.877 391.662 234.541L394.938 229.501C395.169 229.165 395.39 228.923 395.6 228.776C395.831 228.608 396.072 228.524 396.324 228.524C396.576 228.524 396.776 228.608 396.923 228.776C397.07 228.944 397.143 229.175 397.143 229.469V256.97C397.143 258.482 397.448 259.627 398.057 260.404C398.666 261.16 399.517 261.538 400.609 261.538C401.239 261.538 401.753 261.443 402.152 261.254C402.572 261.044 402.919 260.782 403.192 260.467C403.465 260.152 403.717 259.847 403.948 259.553C404.179 259.238 404.431 258.976 404.704 258.766C404.872 258.724 405.019 258.766 405.145 258.892C405.271 258.997 405.323 259.196 405.302 259.49C405.176 260.477 404.798 261.37 404.168 262.168C403.559 262.966 402.751 263.596 401.743 264.058C400.735 264.52 399.559 264.751 398.215 264.751C395.967 264.751 394.193 264.184 392.891 263.05C391.61 261.916 390.969 260.194 390.969 257.884V238.794C390.969 238.416 390.885 238.122 390.717 237.912C390.57 237.702 390.297 237.544 389.898 237.439ZM394.592 237.219L394.655 235.455H404.2C404.515 235.455 404.746 235.507 404.893 235.612C405.061 235.717 405.145 235.885 405.145 236.116C405.145 236.431 404.977 236.694 404.641 236.904C404.326 237.114 403.832 237.219 403.16 237.219H394.592Z" fill="#385A37"/>
<path d="M225.45 315.531L223.591 316.634L236.098 284.849C236.329 284.198 236.602 283.746 236.917 283.494C237.253 283.242 237.704 283.116 238.271 283.116H246.21C246.567 283.116 246.84 283.19 247.029 283.337C247.218 283.463 247.312 283.652 247.312 283.904C247.312 284.114 247.239 284.292 247.092 284.439C246.966 284.565 246.745 284.67 246.43 284.754L244.13 285.227C243.542 285.353 243.133 285.584 242.902 285.92C242.671 286.235 242.587 286.75 242.65 287.464L245.296 323.312C245.338 323.921 245.464 324.352 245.674 324.604C245.905 324.835 246.304 325.013 246.871 325.139L249.076 325.58C249.37 325.643 249.58 325.748 249.706 325.895C249.853 326.021 249.927 326.189 249.927 326.399C249.927 326.63 249.832 326.83 249.643 326.998C249.475 327.145 249.202 327.218 248.824 327.218H234.711C234.333 327.218 234.05 327.145 233.861 326.998C233.672 326.851 233.577 326.662 233.577 326.431C233.577 326.221 233.64 326.053 233.766 325.927C233.913 325.78 234.155 325.664 234.491 325.58L236.665 325.139C237.337 324.992 237.788 324.793 238.019 324.541C238.25 324.268 238.345 323.869 238.303 323.344L235.562 287.779L237.232 287.621L223.717 322.588C223.507 323.155 223.287 323.533 223.056 323.722C222.846 323.89 222.604 323.974 222.331 323.974C222.121 323.974 221.922 323.942 221.733 323.879C221.565 323.795 221.407 323.659 221.26 323.47C221.113 323.26 220.956 322.945 220.788 322.525L206.77 288.283L208.345 287.306L205.604 322.115C205.541 322.913 205.72 323.543 206.14 324.005C206.581 324.446 207.211 324.793 208.03 325.045L210.518 325.643C210.749 325.727 210.928 325.832 211.054 325.958C211.201 326.063 211.274 326.21 211.274 326.399C211.274 326.651 211.18 326.851 210.991 326.998C210.823 327.145 210.55 327.218 210.172 327.218H199.272C198.894 327.218 198.611 327.145 198.422 326.998C198.254 326.851 198.17 326.662 198.17 326.431C198.17 326.179 198.254 325.99 198.422 325.864C198.59 325.738 198.821 325.633 199.115 325.549L201.005 325.013C201.782 324.803 202.38 324.467 202.8 324.005C203.242 323.543 203.494 322.903 203.557 322.084L206.234 288.188C206.318 287.306 206.234 286.624 205.982 286.141C205.73 285.657 205.279 285.353 204.628 285.227L202.58 284.88C202.202 284.775 201.918 284.66 201.729 284.534C201.561 284.387 201.477 284.198 201.477 283.967C201.477 283.4 201.887 283.116 202.706 283.116H210.613C211.159 283.116 211.589 283.221 211.904 283.431C212.24 283.641 212.524 284.072 212.755 284.723L225.45 315.531Z" fill="#385A37"/>
<path d="M271.656 323.69V323.218L271.31 323.186V304.852C271.31 303.004 270.879 301.597 270.018 300.631C269.178 299.644 267.96 299.151 266.364 299.151C264.768 299.151 263.571 299.508 262.773 300.222C261.996 300.915 261.607 301.702 261.607 302.584V304.947C261.607 305.913 261.292 306.669 260.662 307.215C260.032 307.761 259.182 308.034 258.111 308.034C257.229 308.034 256.536 307.793 256.032 307.31C255.549 306.805 255.307 306.123 255.307 305.262C255.307 304.044 255.769 302.868 256.693 301.734C257.638 300.579 259.003 299.634 260.788 298.899C262.594 298.164 264.789 297.796 267.372 297.796C270.795 297.796 273.347 298.542 275.027 300.033C276.707 301.524 277.547 303.54 277.547 306.081V322.997C277.547 323.753 277.673 324.299 277.925 324.635C278.198 324.95 278.555 325.108 278.996 325.108C279.479 325.108 279.847 324.992 280.099 324.761C280.351 324.53 280.54 324.257 280.666 323.942C280.729 323.816 280.802 323.722 280.886 323.659C280.97 323.596 281.075 323.564 281.201 323.564C281.348 323.564 281.453 323.617 281.516 323.722C281.6 323.827 281.642 323.974 281.642 324.163C281.642 324.688 281.453 325.234 281.075 325.801C280.718 326.368 280.162 326.851 279.406 327.25C278.671 327.67 277.726 327.88 276.571 327.88C274.996 327.88 273.777 327.512 272.916 326.777C272.076 326.042 271.656 325.013 271.656 323.69ZM253.858 320.855C253.858 318.482 254.887 316.55 256.945 315.059C259.003 313.547 261.954 312.791 265.797 312.791C267.246 312.791 268.527 312.927 269.64 313.2C270.753 313.473 271.751 313.809 272.633 314.208L272.223 315.374C271.383 314.996 270.501 314.691 269.577 314.46C268.674 314.229 267.687 314.114 266.616 314.114C264.6 314.114 263.035 314.628 261.922 315.657C260.809 316.686 260.253 318.083 260.253 319.847C260.253 321.59 260.725 322.934 261.67 323.879C262.636 324.824 263.875 325.297 265.388 325.297C266.648 325.297 267.876 325.013 269.073 324.446C270.291 323.879 271.32 323.06 272.16 321.989L272.664 322.997C271.551 324.551 270.081 325.759 268.254 326.62C266.427 327.46 264.484 327.88 262.426 327.88C259.885 327.88 257.817 327.239 256.221 325.958C254.646 324.677 253.858 322.976 253.858 320.855Z" fill="#385A37"/>
<path d="M294.082 311.279C294.082 308.339 294.502 305.871 295.343 303.876C296.183 301.881 297.275 300.369 298.619 299.34C299.963 298.311 301.38 297.796 302.871 297.796C304.614 297.796 305.969 298.3 306.935 299.308C307.901 300.295 308.384 301.66 308.384 303.403C308.384 304.747 308.08 305.766 307.471 306.459C306.883 307.152 306.127 307.499 305.202 307.499C304.299 307.499 303.596 307.246 303.092 306.742C302.588 306.217 302.336 305.482 302.336 304.537L302.304 303.529C302.304 302.794 302.147 302.259 301.832 301.923C301.517 301.566 300.981 301.387 300.225 301.387C299.364 301.387 298.524 301.755 297.705 302.49C296.886 303.225 296.204 304.327 295.658 305.797C295.132 307.268 294.87 309.105 294.87 311.31L294.082 311.279ZM294.681 299.214L294.87 307.877V323.848C294.87 324.247 294.975 324.572 295.185 324.824C295.395 325.055 295.731 325.202 296.193 325.265L299.123 325.675C299.438 325.717 299.669 325.811 299.816 325.958C299.984 326.084 300.068 326.263 300.068 326.494C300.068 326.704 299.973 326.882 299.784 327.029C299.616 327.155 299.364 327.218 299.028 327.218H286.05C285.714 327.218 285.462 327.155 285.294 327.029C285.147 326.882 285.073 326.704 285.073 326.494C285.073 326.305 285.136 326.147 285.262 326.021C285.409 325.895 285.619 325.79 285.892 325.706L287.562 325.391C287.919 325.307 288.181 325.15 288.349 324.919C288.538 324.688 288.633 324.362 288.633 323.942V302.962C288.633 302.626 288.57 302.374 288.444 302.206C288.339 302.038 288.139 301.944 287.845 301.923L285.577 301.86C285.325 301.839 285.147 301.776 285.042 301.671C284.937 301.545 284.884 301.398 284.884 301.23C284.884 301.041 284.947 300.883 285.073 300.757C285.199 300.631 285.43 300.516 285.766 300.411L291.783 298.552C292.35 298.342 292.77 298.206 293.043 298.143C293.337 298.08 293.578 298.048 293.767 298.048C294.04 298.048 294.25 298.143 294.397 298.332C294.544 298.521 294.639 298.815 294.681 299.214Z" fill="#385A37"/>
<path d="M312.318 327.218C311.982 327.218 311.751 327.155 311.625 327.029C311.499 326.882 311.436 326.704 311.436 326.494C311.436 326.305 311.499 326.147 311.625 326.021C311.772 325.895 311.993 325.79 312.287 325.706L313.956 325.391C314.313 325.307 314.576 325.15 314.744 324.919C314.933 324.688 315.027 324.352 315.027 323.911V285.731C315.027 285.395 314.964 285.153 314.838 285.006C314.712 284.838 314.513 284.744 314.24 284.723L311.972 284.66C311.72 284.639 311.541 284.576 311.436 284.471C311.331 284.345 311.279 284.198 311.279 284.03C311.279 283.841 311.342 283.683 311.468 283.557C311.594 283.431 311.814 283.316 312.129 283.211L318.241 281.258C318.703 281.09 319.07 280.974 319.343 280.911C319.637 280.827 319.91 280.785 320.162 280.785C320.519 280.785 320.792 280.89 320.981 281.1C321.17 281.31 321.265 281.594 321.265 281.951V323.879C321.265 324.341 321.349 324.688 321.517 324.919C321.706 325.15 321.979 325.307 322.336 325.391L323.942 325.706C324.446 325.853 324.698 326.105 324.698 326.462C324.698 326.966 324.362 327.218 323.69 327.218H312.318ZM319.595 314.712L332.668 303.12C333.445 302.427 333.781 301.807 333.676 301.261C333.571 300.715 333.067 300.348 332.164 300.159L330.904 299.938C330.61 299.854 330.411 299.76 330.306 299.655C330.201 299.529 330.148 299.371 330.148 299.182C330.148 298.951 330.232 298.773 330.4 298.647C330.589 298.521 330.831 298.458 331.125 298.458H341.331C341.646 298.458 341.888 298.521 342.056 298.647C342.245 298.773 342.339 298.941 342.339 299.151C342.339 299.382 342.255 299.571 342.087 299.718C341.94 299.865 341.625 299.98 341.142 300.064C340.008 300.295 338.979 300.663 338.055 301.167C337.131 301.65 336.081 302.395 334.905 303.403L320.099 316.319L319.595 314.712ZM329.046 307.341L339.662 323.47C340.166 324.205 340.628 324.709 341.048 324.982C341.468 325.255 342.066 325.475 342.843 325.643C343.158 325.769 343.379 325.906 343.505 326.053C343.652 326.179 343.725 326.336 343.725 326.525C343.725 326.735 343.641 326.903 343.473 327.029C343.305 327.155 343.074 327.218 342.78 327.218H330.904C330.631 327.218 330.411 327.155 330.243 327.029C330.096 326.903 330.022 326.725 330.022 326.494C330.022 326.326 330.075 326.189 330.18 326.084C330.285 325.958 330.474 325.853 330.747 325.769L332.038 325.549C332.668 325.444 333.025 325.223 333.109 324.887C333.193 324.551 332.983 324.016 332.479 323.281L324.698 311.31L329.046 307.341Z" fill="#385A37"/>
<path d="M372.438 309.483C372.438 310.134 372.238 310.638 371.839 310.995C371.44 311.352 370.852 311.531 370.075 311.531H350.198V310.113H364.909C365.686 310.113 366.075 309.756 366.075 309.042C366.075 305.976 365.487 303.624 364.311 301.986C363.135 300.348 361.591 299.529 359.68 299.529C358.105 299.529 356.74 299.98 355.585 300.883C354.43 301.786 353.537 303.088 352.907 304.789C352.277 306.49 351.962 308.528 351.962 310.901C351.962 315.122 352.928 318.335 354.86 320.54C356.813 322.724 359.354 323.816 362.483 323.816C364.563 323.816 366.358 323.302 367.87 322.273C369.403 321.223 370.422 319.816 370.926 318.052C371.094 317.799 371.241 317.631 371.367 317.547C371.493 317.442 371.629 317.39 371.776 317.39C371.986 317.39 372.133 317.484 372.217 317.673C372.322 317.841 372.364 318.052 372.343 318.304C372.196 320.089 371.577 321.716 370.485 323.186C369.414 324.635 367.986 325.79 366.201 326.651C364.416 327.491 362.399 327.911 360.152 327.911C357.38 327.911 354.944 327.313 352.844 326.116C350.744 324.919 349.106 323.239 347.93 321.076C346.754 318.892 346.166 316.34 346.166 313.421C346.166 310.418 346.743 307.74 347.898 305.388C349.074 303.036 350.733 301.188 352.876 299.844C355.018 298.479 357.548 297.796 360.467 297.796C362.904 297.796 365.014 298.3 366.799 299.308C368.584 300.295 369.97 301.671 370.957 303.435C371.944 305.178 372.438 307.194 372.438 309.483Z" fill="#385A37"/>
<path d="M378.639 300.442L376.497 299.97C376.14 299.865 375.888 299.749 375.741 299.623C375.594 299.476 375.52 299.319 375.52 299.151C375.52 298.92 375.604 298.752 375.772 298.647C375.94 298.521 376.15 298.458 376.402 298.458H378.733C379.153 298.458 379.489 298.395 379.741 298.269C379.993 298.122 380.214 297.88 380.403 297.544L383.679 292.504C383.91 292.168 384.131 291.926 384.341 291.779C384.572 291.611 384.813 291.527 385.065 291.527C385.317 291.527 385.517 291.611 385.664 291.779C385.811 291.947 385.884 292.178 385.884 292.472V319.973C385.884 321.485 386.189 322.63 386.798 323.407C387.407 324.163 388.257 324.541 389.349 324.541C389.979 324.541 390.494 324.446 390.893 324.257C391.313 324.047 391.659 323.785 391.932 323.47C392.205 323.155 392.457 322.85 392.688 322.556C392.92 322.241 393.172 321.979 393.445 321.769C393.613 321.727 393.76 321.769 393.886 321.895C394.012 322 394.064 322.199 394.043 322.493C393.917 323.48 393.539 324.373 392.909 325.171C392.3 325.969 391.491 326.599 390.483 327.061C389.475 327.523 388.299 327.754 386.955 327.754C384.708 327.754 382.934 327.187 381.631 326.053C380.35 324.919 379.71 323.197 379.71 320.887V301.797C379.71 301.419 379.626 301.125 379.458 300.915C379.311 300.705 379.038 300.547 378.639 300.442ZM383.333 300.222L383.396 298.458H392.941C393.256 298.458 393.487 298.51 393.634 298.615C393.802 298.72 393.886 298.888 393.886 299.119C393.886 299.434 393.718 299.697 393.382 299.907C393.067 300.117 392.573 300.222 391.901 300.222H383.333Z" fill="#385A37"/>
<path d="M407.526 299.151V323.879C407.526 324.341 407.61 324.688 407.778 324.919C407.967 325.15 408.24 325.307 408.597 325.391L410.235 325.706C410.529 325.769 410.739 325.874 410.865 326.021C410.991 326.147 411.054 326.305 411.054 326.494C411.054 326.704 410.97 326.882 410.802 327.029C410.655 327.155 410.403 327.218 410.046 327.218H398.674C398.359 327.218 398.118 327.155 397.95 327.029C397.803 326.882 397.729 326.704 397.729 326.494C397.729 326.305 397.792 326.147 397.918 326.021C398.044 325.895 398.233 325.801 398.485 325.738L400.218 325.391C400.575 325.307 400.837 325.15 401.005 324.919C401.194 324.688 401.289 324.352 401.289 323.911V302.962C401.289 302.626 401.226 302.385 401.1 302.238C400.995 302.07 400.795 301.975 400.501 301.954L398.265 301.891C398.013 301.849 397.824 301.776 397.698 301.671C397.593 301.566 397.54 301.429 397.54 301.261C397.54 301.051 397.603 300.894 397.729 300.789C397.855 300.663 398.076 300.537 398.391 300.411L404.502 298.489C404.985 298.3 405.363 298.174 405.636 298.111C405.93 298.048 406.182 298.017 406.392 298.017C406.77 298.017 407.054 298.122 407.243 298.332C407.432 298.542 407.526 298.815 407.526 299.151ZM403.904 292.441C402.664 292.441 401.656 292.073 400.879 291.338C400.123 290.603 399.745 289.679 399.745 288.566C399.745 287.432 400.134 286.508 400.911 285.794C401.688 285.059 402.685 284.691 403.904 284.691C405.164 284.691 406.182 285.059 406.959 285.794C407.736 286.529 408.125 287.453 408.125 288.566C408.125 289.679 407.736 290.603 406.959 291.338C406.182 292.073 405.164 292.441 403.904 292.441Z" fill="#385A37"/>
<path d="M424.568 299.151V323.879C424.568 324.341 424.651 324.688 424.819 324.919C425.009 325.15 425.282 325.307 425.639 325.391L427.245 325.706C427.749 325.853 428.001 326.105 428.001 326.462C428.001 326.966 427.665 327.218 426.993 327.218H415.716C415.401 327.218 415.159 327.155 414.991 327.029C414.823 326.882 414.739 326.704 414.739 326.494C414.739 326.305 414.802 326.147 414.928 326.021C415.054 325.895 415.254 325.801 415.527 325.738L417.259 325.391C417.616 325.307 417.879 325.15 418.047 324.919C418.236 324.688 418.33 324.352 418.33 323.911V302.962C418.33 302.626 418.267 302.385 418.141 302.238C418.015 302.07 417.816 301.975 417.543 301.954L415.275 301.891C415.023 301.849 414.844 301.776 414.739 301.671C414.634 301.566 414.582 301.429 414.582 301.261C414.582 301.051 414.645 300.894 414.771 300.789C414.897 300.663 415.117 300.537 415.432 300.411L421.543 298.489C422.005 298.3 422.373 298.174 422.646 298.111C422.94 298.048 423.213 298.017 423.465 298.017C423.822 298.017 424.095 298.122 424.284 298.332C424.473 298.542 424.568 298.815 424.568 299.151ZM423.843 305.514L422.961 304.632L424.221 303.529C426.531 301.471 428.516 300.001 430.175 299.119C431.834 298.237 433.43 297.796 434.963 297.796C437.273 297.796 439.069 298.563 440.35 300.096C441.631 301.629 442.429 303.781 442.744 306.553L444.886 323.722C444.949 324.226 445.064 324.614 445.232 324.887C445.421 325.16 445.726 325.339 446.146 325.423L447.595 325.738C447.868 325.801 448.057 325.895 448.162 326.021C448.288 326.147 448.351 326.305 448.351 326.494C448.351 326.704 448.278 326.882 448.131 327.029C447.984 327.155 447.742 327.218 447.406 327.218H435.971C435.299 327.218 434.963 326.966 434.963 326.462C434.963 326.126 435.205 325.874 435.688 325.706L437.389 325.391C437.809 325.307 438.113 325.129 438.302 324.856C438.512 324.583 438.596 324.205 438.554 323.722L436.538 307.404C436.265 305.325 435.73 303.781 434.932 302.773C434.154 301.765 433.01 301.261 431.498 301.261C430.532 301.261 429.524 301.524 428.474 302.049C427.445 302.574 426.311 303.372 425.072 304.443L423.843 305.514Z" fill="#385A37"/>
<path d="M469.315 325.832C472.108 326.336 474.303 326.945 475.899 327.659C477.495 328.373 478.618 329.224 479.269 330.211C479.941 331.219 480.277 332.406 480.277 333.771C480.277 336.375 478.944 338.506 476.277 340.166C473.61 341.846 469.798 342.686 464.842 342.686C461.355 342.686 458.541 342.371 456.399 341.741C454.257 341.111 452.693 340.25 451.706 339.158C450.719 338.065 450.225 336.826 450.225 335.44C450.225 333.718 451.044 332.196 452.682 330.873C454.341 329.55 457.208 328.615 461.282 328.069L461.723 328.794C459.476 329.109 457.785 329.749 456.651 330.715C455.517 331.702 454.95 332.826 454.95 334.086C454.95 336.144 455.78 337.803 457.439 339.063C459.098 340.344 461.828 340.985 465.629 340.985C467.75 340.985 469.493 340.775 470.858 340.355C472.224 339.956 473.242 339.357 473.914 338.559C474.586 337.782 474.922 336.847 474.922 335.755C474.922 334.936 474.66 334.212 474.135 333.582C473.631 332.952 472.717 332.374 471.394 331.849C470.092 331.345 468.233 330.852 465.818 330.369C462.899 329.802 460.652 329.235 459.077 328.668C457.523 328.1 456.452 327.481 455.864 326.809C455.297 326.137 455.013 325.349 455.013 324.446C455.013 323.69 455.213 322.976 455.612 322.304C456.011 321.632 456.683 321.044 457.628 320.54C458.594 320.015 459.917 319.606 461.597 319.312L462.133 319.658C461.419 319.973 460.883 320.32 460.526 320.698C460.19 321.055 460.022 321.464 460.022 321.926C460.022 322.325 460.2 322.714 460.557 323.092C460.935 323.47 461.776 323.879 463.078 324.32C464.401 324.74 466.48 325.244 469.315 325.832ZM470.323 300.505L471.079 299.119C471.961 297.46 472.969 296.189 474.103 295.307C475.258 294.404 476.508 293.953 477.852 293.953C479.049 293.953 480.015 294.278 480.75 294.929C481.485 295.58 481.852 296.452 481.852 297.544C481.852 298.426 481.632 299.13 481.191 299.655C480.75 300.18 480.141 300.442 479.364 300.442C478.818 300.442 478.366 300.295 478.009 300.001C477.652 299.686 477.337 299.34 477.064 298.962C476.791 298.563 476.497 298.216 476.182 297.922C475.888 297.607 475.5 297.45 475.017 297.45C474.408 297.45 473.851 297.691 473.347 298.174C472.843 298.657 472.245 299.508 471.551 300.726L470.323 300.505ZM477.852 308.79C477.852 311.079 477.274 313.095 476.119 314.838C474.985 316.581 473.4 317.947 471.362 318.934C469.346 319.921 467.047 320.414 464.464 320.414C461.86 320.414 459.581 319.931 457.628 318.965C455.696 317.999 454.184 316.697 453.092 315.059C452 313.4 451.454 311.552 451.454 309.515C451.454 307.226 452.021 305.209 453.155 303.466C454.289 301.702 455.864 300.327 457.88 299.34C459.917 298.332 462.28 297.828 464.968 297.828C467.572 297.828 469.829 298.321 471.74 299.308C473.673 300.274 475.174 301.587 476.245 303.246C477.316 304.884 477.852 306.732 477.852 308.79ZM463.708 299.466C462.406 299.508 461.292 299.917 460.368 300.694C459.465 301.45 458.793 302.521 458.352 303.907C457.932 305.293 457.796 306.942 457.943 308.853C458.09 310.869 458.489 312.633 459.14 314.145C459.812 315.636 460.694 316.781 461.786 317.579C462.899 318.377 464.149 318.755 465.535 318.713C467.53 318.629 469.042 317.768 470.071 316.13C471.121 314.471 471.541 312.203 471.331 309.326C471.121 306.238 470.333 303.813 468.968 302.049C467.603 300.264 465.85 299.403 463.708 299.466Z" fill="#385A37"/>
<path d="M235.846 362.091C235.846 364.842 235.174 367.236 233.829 369.273C232.506 371.31 230.648 372.885 228.254 373.998C225.881 375.111 223.119 375.668 219.969 375.668C217.806 375.668 215.8 375.437 213.952 374.975C212.125 374.492 210.508 373.788 209.101 372.864L209.416 371.289C210.235 371.856 211.127 372.318 212.093 372.675C213.059 373.032 214.057 373.305 215.086 373.494C216.115 373.662 217.134 373.746 218.142 373.746C220.263 373.746 222.121 373.274 223.717 372.329C225.335 371.363 226.595 369.997 227.498 368.233C228.401 366.469 228.852 364.369 228.852 361.933C228.852 359.056 228.285 356.567 227.151 354.467C226.038 352.367 224.463 350.75 222.426 349.616C220.389 348.461 217.995 347.883 215.244 347.883H211.873V386.788C211.873 387.145 211.988 387.449 212.219 387.701C212.45 387.932 212.786 388.079 213.227 388.142L216.409 388.552C216.724 388.615 216.945 388.72 217.071 388.867C217.218 388.993 217.291 389.182 217.291 389.434C217.291 389.665 217.207 389.854 217.039 390.001C216.871 390.148 216.609 390.221 216.252 390.221H201.288C200.91 390.221 200.637 390.148 200.469 390.001C200.301 389.854 200.217 389.665 200.217 389.434C200.217 388.993 200.501 388.699 201.068 388.552L203.525 388.142C203.966 388.058 204.292 387.901 204.502 387.67C204.733 387.439 204.848 387.145 204.848 386.788V349.585C204.848 349.206 204.733 348.902 204.502 348.671C204.292 348.44 203.977 348.282 203.557 348.198L201.036 347.789C200.49 347.642 200.217 347.348 200.217 346.907C200.217 346.655 200.301 346.466 200.469 346.34C200.637 346.193 200.9 346.119 201.257 346.119H215.37C219.57 346.119 223.203 346.802 226.269 348.167C229.335 349.511 231.698 351.391 233.357 353.806C235.016 356.2 235.846 358.961 235.846 362.091Z" fill="#385A37"/>
<path d="M253.771 360.831C256.691 360.831 259.274 361.471 261.521 362.752C263.768 364.033 265.532 365.808 266.813 368.076C268.094 370.344 268.735 372.959 268.735 375.92C268.735 378.818 268.084 381.401 266.781 383.669C265.479 385.916 263.684 387.691 261.395 388.993C259.127 390.274 256.502 390.914 253.519 390.914C250.6 390.914 248.017 390.284 245.77 389.024C243.523 387.743 241.769 385.969 240.509 383.701C239.249 381.432 238.619 378.828 238.619 375.888C238.619 372.948 239.26 370.354 240.541 368.107C241.822 365.839 243.596 364.065 245.865 362.784C248.154 361.482 250.789 360.831 253.771 360.831ZM255.693 389.024C257.373 388.814 258.759 388.121 259.851 386.945C260.943 385.769 261.678 384.163 262.056 382.126C262.455 380.067 262.455 377.631 262.056 374.817C261.657 371.961 260.964 369.598 259.977 367.729C259.011 365.86 257.814 364.506 256.386 363.666C254.958 362.805 253.372 362.479 251.629 362.689C249.928 362.899 248.532 363.603 247.44 364.8C246.369 365.976 245.644 367.593 245.266 369.651C244.888 371.688 244.898 374.114 245.297 376.928C245.696 379.721 246.39 382.063 247.377 383.953C248.364 385.822 249.571 387.187 250.999 388.048C252.427 388.909 253.992 389.234 255.693 389.024Z" fill="#385A37"/>
<path d="M295.156 385.528L295.062 385.339V348.734C295.062 348.398 294.999 348.156 294.873 348.009C294.747 347.841 294.547 347.747 294.274 347.726L292.006 347.663C291.754 347.642 291.576 347.579 291.471 347.474C291.366 347.348 291.313 347.201 291.313 347.033C291.313 346.844 291.376 346.686 291.502 346.56C291.628 346.434 291.849 346.319 292.164 346.214L298.275 344.261C298.737 344.093 299.115 343.977 299.409 343.914C299.703 343.83 299.966 343.788 300.197 343.788C300.554 343.788 300.827 343.893 301.016 344.103C301.205 344.313 301.299 344.597 301.299 344.954V386.882C301.299 387.344 301.383 387.691 301.551 387.922C301.74 388.153 302.013 388.31 302.37 388.394L304.008 388.709C304.302 388.772 304.512 388.877 304.638 389.024C304.764 389.15 304.827 389.308 304.827 389.497C304.827 389.707 304.743 389.885 304.575 390.032C304.407 390.158 304.155 390.221 303.819 390.221H297.456C296.763 390.221 296.206 390.022 295.786 389.623C295.366 389.203 295.156 388.604 295.156 387.827V385.528ZM273.105 376.55C273.105 373.316 273.735 370.522 274.995 368.17C276.256 365.797 277.946 363.981 280.067 362.721C282.188 361.44 284.53 360.799 287.092 360.799C289.465 360.799 291.534 361.356 293.298 362.469C295.062 363.582 296.49 365.125 297.582 367.099L296.417 368.202C295.492 366.501 294.316 365.199 292.888 364.296C291.481 363.372 289.927 362.91 288.226 362.91C286.609 362.91 285.149 363.382 283.847 364.327C282.545 365.251 281.506 366.669 280.729 368.58C279.973 370.491 279.595 372.917 279.595 375.857C279.595 378.587 279.952 380.865 280.666 382.693C281.38 384.52 282.356 385.895 283.595 386.819C284.834 387.743 286.242 388.205 287.817 388.205C289.308 388.205 290.767 387.785 292.195 386.945C293.623 386.084 294.946 384.772 296.164 383.008L296.921 384.142C295.303 386.389 293.55 388.079 291.66 389.213C289.77 390.347 287.712 390.914 285.486 390.914C283.112 390.914 280.991 390.316 279.122 389.119C277.253 387.901 275.783 386.21 274.712 384.047C273.641 381.884 273.105 379.385 273.105 376.55Z" fill="#385A37"/>
</g>
<defs>
<filter id="filter0_f_874_44" x="0" y="269.916" width="202.081" height="200.963" filterUnits="userSpaceOnUse" color-interpolation-filters="sRGB">
<feFlood flood-opacity="0" result="BackgroundImageFix"/>
<feBlend mode="normal" in="SourceGraphic" in2="BackgroundImageFix" result="shape"/>
<feGaussianBlur stdDeviation="17" result="effect1_foregroundBlur_874_44"/>
</filter>
<filter id="filter1_f_874_44" x="529.061" y="264.889" width="200.963" height="202.08" filterUnits="userSpaceOnUse" color-interpolation-filters="sRGB">
<feFlood flood-opacity="0" result="BackgroundImageFix"/>
<feBlend mode="normal" in="SourceGraphic" in2="BackgroundImageFix" result="shape"/>
<feGaussianBlur stdDeviation="17" result="effect1_foregroundBlur_874_44"/>
</filter>
<filter id="filter2_di_874_44" x="146.202" y="0" width="437.059" height="437.059" filterUnits="userSpaceOnUse" color-interpolation-filters="sRGB">
<feFlood flood-opacity="0" result="BackgroundImageFix"/>
<feColorMatrix in="SourceAlpha" type="matrix" values="0 0 0 0 0 0 0 0 0 0 0 0 0 0 0 0 0 0 127 0" result="hardAlpha"/>
<feOffset dy="4"/>
<feGaussianBlur stdDeviation="2"/>
<feComposite in2="hardAlpha" operator="out"/>
<feColorMatrix type="matrix" values="0 0 0 0 0 0 0 0 0 0 0 0 0 0 0 0 0 0 0.25 0"/>
<feBlend mode="normal" in2="BackgroundImageFix" result="effect1_dropShadow_874_44"/>
<feBlend mode="normal" in="SourceGraphic" in2="effect1_dropShadow_874_44" result="shape"/>
<feColorMatrix in="SourceAlpha" type="matrix" values="0 0 0 0 0 0 0 0 0 0 0 0 0 0 0 0 0 0 127 0" result="hardAlpha"/>
<feOffset dy="4"/>
<feGaussianBlur stdDeviation="2"/>
<feComposite in2="hardAlpha" operator="arithmetic" k2="-1" k3="1"/>
<feColorMatrix type="matrix" values="0 0 0 0 1 0 0 0 0 1 0 0 0 0 1 0 0 0 0.6 0"/>
<feBlend mode="normal" in2="shape" result="effect2_innerShadow_874_44"/>
</filter>
<linearGradient id="paint0_linear_874_44" x1="158.025" y1="413.415" x2="68.6375" y2="322.911" gradientUnits="userSpaceOnUse">
<stop stop-color="#19291A"/>
<stop offset="0.61" stop-color="#19291A" stop-opacity="0.39"/>
<stop offset="1" stop-color="#19291A" stop-opacity="0"/>
</linearGradient>
<linearGradient id="paint1_linear_874_44" x1="571.441" y1="416.767" x2="711.108" y2="329.615" gradientUnits="userSpaceOnUse">
<stop stop-color="#19291A"/>
<stop offset="0.61" stop-color="#19291A" stop-opacity="0.39"/>
<stop offset="1" stop-color="#19291A" stop-opacity="0"/>
</linearGradient>
</defs>
</svg>
