<svg width="46" height="45" viewBox="0 0 46 45" fill="none" xmlns="http://www.w3.org/2000/svg">
<rect x="0.0947266" width="45" height="45" rx="4" fill="#EFE9D1"/>
<path d="M23.8896 33.4352C26.6929 33.0785 29.2552 31.6678 31.0557 29.4897C32.8562 27.3117 33.7598 24.5297 33.5829 21.7094C33.4059 18.889 32.1617 16.2419 30.103 14.3059C28.0444 12.37 25.3259 11.2906 22.4999 11.2871C19.6706 11.285 16.9469 12.3618 14.8838 14.298C12.8207 16.2343 11.5735 18.8843 11.3963 21.7081C11.2192 24.5319 12.1253 27.317 13.9302 29.496C15.7351 31.6749 18.3029 33.0837 21.1103 33.4352V25.1835H18.331V22.4042H21.1103V20.1058C21.1103 18.2478 21.3049 17.5738 21.6662 16.8943C22.0221 16.222 22.5722 15.6724 23.2448 15.3171C23.7756 15.0322 24.4357 14.8613 25.5891 14.7876C26.0463 14.7584 26.6383 14.7946 27.3651 14.8988V17.5391H26.6689C25.3946 17.5391 24.8679 17.5989 24.5538 17.767C24.3664 17.8634 24.2139 18.016 24.1175 18.2034C23.9507 18.5174 23.8896 18.8287 23.8896 20.1044V22.4042H27.3637L26.6689 25.1835H23.8896V33.4352ZM22.4999 36.3007C14.8249 36.3007 8.60352 30.0792 8.60352 22.4042C8.60352 14.7292 14.8249 8.50781 22.4999 8.50781C30.1749 8.50781 36.3964 14.7292 36.3964 22.4042C36.3964 30.0792 30.1749 36.3007 22.4999 36.3007Z" fill="#425A42"/>
</svg>
