<svg width="46" height="45" viewBox="0 0 46 45" fill="none" xmlns="http://www.w3.org/2000/svg">
<rect x="0.454102" width="45" height="45" rx="4" fill="#EFE9D1"/>
<path d="M9.28949 7.37305H36.5151C36.9664 7.37305 37.3993 7.55232 37.7184 7.87143C38.0375 8.19055 38.2168 8.62336 38.2168 9.07465V36.3003C38.2168 36.7516 38.0375 37.1844 37.7184 37.5035C37.3993 37.8226 36.9664 38.0019 36.5151 38.0019H9.28949C8.8382 38.0019 8.40539 37.8226 8.08628 37.5035C7.76717 37.1844 7.58789 36.7516 7.58789 36.3003V9.07465C7.58789 8.62336 7.76717 8.19055 8.08628 7.87143C8.40539 7.55232 8.8382 7.37305 9.28949 7.37305V7.37305ZM10.9911 10.7763V34.5987H34.8135V10.7763H10.9911ZM15.2451 17.5827C14.5682 17.5827 13.919 17.3138 13.4403 16.8351C12.9616 16.3564 12.6927 15.7072 12.6927 15.0303C12.6927 14.3533 12.9616 13.7041 13.4403 13.2254C13.919 12.7468 14.5682 12.4779 15.2451 12.4779C15.922 12.4779 16.5713 12.7468 17.0499 13.2254C17.5286 13.7041 17.7975 14.3533 17.7975 15.0303C17.7975 15.7072 17.5286 16.3564 17.0499 16.8351C16.5713 17.3138 15.922 17.5827 15.2451 17.5827V17.5827ZM13.5435 19.2843H16.9467V32.0463H13.5435V19.2843ZM22.9023 20.016C23.8961 19.0546 25.0566 18.4335 26.3055 18.4335C29.8295 18.4335 32.2611 21.2905 32.2611 24.8145V32.0463H28.8579V24.8145C28.8579 24.0247 28.5442 23.2673 27.9858 22.7089C27.4273 22.1504 26.6699 21.8367 25.8801 21.8367C25.0904 21.8367 24.3329 22.1504 23.7745 22.7089C23.2161 23.2673 22.9023 24.0247 22.9023 24.8145V32.0463H19.4991V19.2843H22.9023V20.016Z" fill="#425A42"/>
</svg>
