<svg width="350" height="41" viewBox="0 0 350 41" fill="none" xmlns="http://www.w3.org/2000/svg">
<path fill-rule="evenodd" clip-rule="evenodd" d="M17.949 3.8912C14.3216 3.8912 10.9245 5.77644 9.75914 6.66985C8.95372 7.28731 7.84236 7.07495 7.27685 6.19555C6.71134 5.31614 6.90583 4.1027 7.71125 3.48524C9.26946 2.29069 13.3709 0 17.949 0C23.6781 0 27.4904 2.39726 29.958 5.10513C32.0916 7.44641 33.1899 10.0076 33.6501 11.0808C33.6872 11.1674 33.7202 11.2443 33.7492 11.3106C33.7708 11.3314 33.8032 11.361 33.8495 11.399C34.0191 11.5385 34.2787 11.7143 34.6358 11.9191C35.3476 12.3274 36.2765 12.7552 37.2572 13.1684C38.0699 13.5107 38.877 13.8262 39.5841 14.1026C39.7251 14.1578 39.8622 14.2113 39.9945 14.2633C40.3842 14.4162 40.7448 14.5594 41.0309 14.6819C41.1736 14.743 41.3162 14.8067 41.444 14.87C41.5402 14.9177 41.7422 15.0196 41.9324 15.168C42.2437 15.4108 42.415 15.702 42.4874 15.8351C42.5762 15.9982 42.6385 16.1557 42.6819 16.281C42.7695 16.5336 42.8319 16.8049 42.8769 17.0656C42.9683 17.5958 43.0163 18.2493 42.9941 18.9739C42.9496 20.4253 42.6189 22.2958 41.6532 24.1534C39.6466 28.0137 35.24 31.2245 26.7283 31.2245C25.4429 31.2245 24.6333 31.6769 24.1511 32.1942C23.6536 32.7279 23.3958 33.4448 23.3926 34.1761C23.3893 34.9065 23.6397 35.6151 24.1287 36.1413C24.6033 36.6521 25.4147 37.1088 26.7283 37.1088C27.7124 37.1088 28.5102 37.9799 28.5102 39.0544C28.5102 40.1289 27.7124 41 26.7283 41C24.6083 41 22.8555 40.2348 21.627 38.9126C20.4128 37.606 19.8211 35.8707 19.8288 34.1572C19.8364 32.4446 20.4424 30.7177 21.6534 29.4185C22.8798 28.1029 24.6236 27.3333 26.7283 27.3333C34.3842 27.3333 37.3661 24.5176 38.5538 22.2326C39.1854 21.0176 39.4034 19.7858 39.4322 18.8438C39.4401 18.5878 39.4336 18.3631 39.42 18.1759C39.2392 18.1025 39.0285 18.0191 38.7892 17.9252C38.6637 17.8759 38.5314 17.8242 38.3935 17.7703C37.6867 17.4941 36.8315 17.1598 35.9743 16.7987C34.9557 16.3695 33.8745 15.8779 32.9783 15.3638C32.5314 15.1075 32.0874 14.8213 31.7056 14.5074C31.359 14.2224 30.8942 13.78 30.6106 13.1606C30.5525 13.0336 30.4877 12.8845 30.4148 12.7166C29.9329 11.6068 29.0934 9.67314 27.4317 7.84973C25.575 5.81223 22.6507 3.8912 17.949 3.8912ZM40.0031 18.4301C40.0029 18.4301 39.9986 18.4279 39.9911 18.4235C39.9996 18.4279 40.0034 18.4301 40.0031 18.4301Z" fill="#E69A53"/>
<ellipse cx="24.6428" cy="13.0492" rx="2.52077" ry="2.75231" fill="#E69A53"/>
<path fill-rule="evenodd" clip-rule="evenodd" d="M0 8.68388C0 7.60936 0.797793 6.73828 1.78192 6.73828C3.08118 6.73828 4.24373 7.06004 5.19386 7.79275C6.14893 8.52927 6.71783 9.54872 7.04283 10.6035C7.65424 12.5879 7.4939 15.0311 7.2908 17.0396C7.22528 17.6876 7.15508 18.2964 7.08919 18.8678C6.92796 20.2659 6.79256 21.4402 6.8148 22.4155C6.8219 22.7266 6.84588 22.9611 6.87809 23.1318C6.87924 23.1379 6.8804 23.1439 6.88156 23.1498C7.11496 23.097 7.47509 22.9017 7.97807 22.3016C8.61517 21.5414 9.27024 20.3727 9.93472 18.8717C10.8881 16.7181 11.7236 14.2181 12.5299 11.8051C12.8575 10.8248 13.1803 9.85892 13.5042 8.93642C13.8566 7.93311 14.8871 7.43162 15.806 7.81631C16.7249 8.201 17.1842 9.32619 16.8319 10.3295C16.5525 11.125 16.257 12.0091 15.946 12.9398C15.1182 15.4167 14.1801 18.2232 13.1434 20.5651C12.4244 22.1894 11.5909 23.7548 10.6072 24.9285C9.63086 26.0935 8.28782 27.1227 6.58492 27.055C5.41396 27.0086 4.44842 26.4038 3.87271 25.3406C3.38648 24.4426 3.27195 23.3845 3.25207 22.5124C3.22262 21.2209 3.41096 19.5912 3.58593 18.0771C3.6445 17.5703 3.70158 17.0765 3.74848 16.6126C3.95825 14.5382 3.99347 12.9103 3.66501 11.8443C3.52008 11.3739 3.33519 11.1233 3.13785 10.9711C2.93557 10.8151 2.54708 10.6295 1.78192 10.6295C0.797793 10.6295 0 9.75841 0 8.68388Z" fill="#E69A53"/>
<path d="M64.3796 10.1994H72.8156C73.1436 10.1994 73.4156 10.1674 73.6316 10.1034C73.8556 10.0314 74.0556 9.96344 74.2316 9.89944C74.4076 9.83544 74.5836 9.80344 74.7596 9.80344C75.0636 9.80344 75.2916 9.87944 75.4436 10.0314C75.6036 10.1754 75.7316 10.4274 75.8276 10.7874L76.6076 14.7954C76.6636 15.0514 76.6436 15.2634 76.5476 15.4314C76.4596 15.5914 76.3036 15.6914 76.0796 15.7314C75.8716 15.7714 75.6876 15.7554 75.5276 15.6834C75.3756 15.6114 75.2436 15.4634 75.1316 15.2394C74.6756 14.2714 74.2796 13.5314 73.9436 13.0194C73.6156 12.4994 73.2996 12.1394 72.9956 11.9394C72.6916 11.7394 72.3396 11.6394 71.9396 11.6394H70.9076V24.7794C70.9076 24.9634 70.9596 25.1114 71.0636 25.2234C71.1676 25.3354 71.3156 25.4234 71.5076 25.4874L72.0956 25.6554C72.4556 25.7754 72.6356 26.0074 72.6356 26.3514C72.6356 26.7834 72.3596 26.9994 71.8076 26.9994H65.3996C65.1196 26.9994 64.9116 26.9434 64.7756 26.8314C64.6396 26.7114 64.5716 26.5514 64.5716 26.3514C64.5716 26.0074 64.7516 25.7754 65.1116 25.6554L65.6996 25.4874C65.8996 25.4234 66.0476 25.3354 66.1436 25.2234C66.2476 25.1114 66.2996 24.9634 66.2996 24.7794V11.6394H65.2676C64.8756 11.6394 64.5236 11.7394 64.2116 11.9394C63.9076 12.1394 63.5876 12.4994 63.2516 13.0194C62.9236 13.5314 62.5316 14.2714 62.0756 15.2394C61.9716 15.4634 61.8396 15.6114 61.6796 15.6834C61.5196 15.7554 61.3356 15.7714 61.1276 15.7314C60.9116 15.6914 60.7556 15.5914 60.6596 15.4314C60.5716 15.2634 60.5516 15.0514 60.5996 14.7954L61.3796 10.7874C61.4756 10.4274 61.5996 10.1754 61.7516 10.0314C61.9116 9.87944 62.1436 9.80344 62.4476 9.80344C62.6316 9.80344 62.8076 9.83544 62.9756 9.89944C63.1516 9.96344 63.3476 10.0314 63.5636 10.1034C63.7876 10.1674 64.0596 10.1994 64.3796 10.1994Z" fill="#EFE9D1"/>
<path d="M84.3428 9.88744V24.8754C84.3428 25.1554 84.3708 25.3554 84.4268 25.4754C84.4908 25.5874 84.5868 25.6714 84.7148 25.7274L85.0748 25.8474C85.3228 25.9754 85.4468 26.1554 85.4468 26.3874C85.4468 26.7954 85.1948 26.9994 84.6908 26.9994H79.6868C79.4308 26.9994 79.2428 26.9474 79.1228 26.8434C79.0108 26.7394 78.9548 26.5994 78.9548 26.4234C78.9548 26.2954 78.9908 26.1834 79.0628 26.0874C79.1348 25.9914 79.2508 25.9114 79.4108 25.8474L79.7948 25.7274C79.9228 25.6714 80.0148 25.5874 80.0708 25.4754C80.1268 25.3554 80.1548 25.1594 80.1548 24.8874V12.1794C80.1548 11.9554 80.1228 11.7994 80.0588 11.7114C80.0028 11.6154 79.9068 11.5514 79.7708 11.5194L79.3148 11.4594C79.1628 11.4194 79.0548 11.3594 78.9908 11.2794C78.9268 11.1914 78.8948 11.0834 78.8948 10.9554C78.8948 10.8034 78.9348 10.6834 79.0148 10.5954C79.1028 10.4994 79.2668 10.4074 79.5068 10.3194L82.0628 9.38344C82.3988 9.25544 82.6668 9.16344 82.8668 9.10744C83.0748 9.05144 83.2748 9.02344 83.4668 9.02344C83.7548 9.02344 83.9708 9.10344 84.1148 9.26344C84.2668 9.42344 84.3428 9.63144 84.3428 9.88744ZM83.9468 18.9594L83.3588 18.3234L83.7668 17.9394C84.8148 16.9874 85.7148 16.3074 86.4668 15.8994C87.2188 15.4834 87.9228 15.2754 88.5788 15.2754C89.5708 15.2754 90.3428 15.6114 90.8948 16.2834C91.4548 16.9474 91.7908 17.8314 91.9028 18.9354L92.5148 24.8634C92.5468 25.1434 92.5868 25.3474 92.6348 25.4754C92.6828 25.5954 92.7748 25.6794 92.9108 25.7274L93.2588 25.8474C93.4188 25.9114 93.5348 25.9914 93.6068 26.0874C93.6788 26.1834 93.7148 26.2954 93.7148 26.4234C93.7148 26.5994 93.6548 26.7394 93.5348 26.8434C93.4228 26.9474 93.2388 26.9994 92.9828 26.9994H87.9188C87.4228 26.9994 87.1748 26.7954 87.1748 26.3874C87.1748 26.1554 87.2988 25.9754 87.5468 25.8474L87.9068 25.7274C88.0428 25.6714 88.1468 25.5834 88.2188 25.4634C88.2908 25.3434 88.3108 25.1434 88.2788 24.8634L87.7268 19.5234C87.6628 18.9234 87.5148 18.4754 87.2828 18.1794C87.0508 17.8834 86.7028 17.7354 86.2388 17.7354C85.9508 17.7354 85.6508 17.8074 85.3388 17.9514C85.0268 18.0874 84.7148 18.2914 84.4028 18.5634L83.9468 18.9594Z" fill="#EFE9D1"/>
<path d="M107.114 19.8834C107.114 20.3474 106.982 20.7074 106.718 20.9634C106.462 21.2114 106.09 21.3354 105.602 21.3354H98.2939V20.3154H102.35C102.75 20.3154 102.95 20.1274 102.95 19.7514C102.95 18.6794 102.794 17.8954 102.482 17.3994C102.17 16.8954 101.762 16.6434 101.258 16.6434C100.874 16.6434 100.53 16.7714 100.226 17.0274C99.9299 17.2834 99.6939 17.6634 99.5179 18.1674C99.3419 18.6714 99.2539 19.2954 99.2539 20.0394C99.2539 21.5514 99.5979 22.6714 100.286 23.3994C100.982 24.1274 101.914 24.4914 103.082 24.4914C103.714 24.4914 104.274 24.3834 104.762 24.1674C105.25 23.9514 105.662 23.6074 105.998 23.1354C106.174 22.9674 106.31 22.8554 106.406 22.7994C106.502 22.7354 106.598 22.7034 106.694 22.7034C106.822 22.7034 106.918 22.7674 106.982 22.8954C107.046 23.0234 107.078 23.1794 107.078 23.3634C107.062 24.0674 106.822 24.7234 106.358 25.3314C105.894 25.9314 105.258 26.4114 104.45 26.7714C103.65 27.1314 102.722 27.3114 101.666 27.3114C100.482 27.3114 99.4259 27.0714 98.4979 26.5914C97.5779 26.1114 96.8499 25.4434 96.3139 24.5874C95.7859 23.7314 95.5219 22.7274 95.5219 21.5754C95.5219 20.3194 95.7699 19.2194 96.2659 18.2754C96.7619 17.3314 97.4819 16.5954 98.4259 16.0674C99.3699 15.5394 100.498 15.2754 101.81 15.2754C102.954 15.2754 103.918 15.4754 104.702 15.8754C105.494 16.2674 106.094 16.8114 106.502 17.5074C106.91 18.1954 107.114 18.9874 107.114 19.8834Z" fill="#EFE9D1"/>
<path d="M126.58 10.8474C126.58 10.6394 126.644 10.4794 126.772 10.3674C126.908 10.2554 127.12 10.1994 127.408 10.1994H131.224C131.512 10.1994 131.72 10.2554 131.848 10.3674C131.984 10.4794 132.052 10.6354 132.052 10.8354C132.052 10.9874 132.008 11.1114 131.92 11.2074C131.84 11.3034 131.708 11.3914 131.524 11.4714L131.128 11.6394C130.848 11.7594 130.612 11.9474 130.42 12.2034C130.236 12.4514 130.06 12.8434 129.892 13.3794L126.28 24.3474C126.176 24.6754 126.1 24.9394 126.052 25.1394C126.012 25.3314 125.992 25.5314 125.992 25.7394V26.3634C125.992 26.5634 125.928 26.7194 125.8 26.8314C125.68 26.9434 125.52 26.9994 125.32 26.9994H121.636C121.444 26.9994 121.288 26.9434 121.168 26.8314C121.048 26.7194 120.988 26.5554 120.988 26.3394V25.7154C120.988 25.5874 120.964 25.4394 120.916 25.2714C120.876 25.0954 120.82 24.9034 120.748 24.6954L116.62 12.5634C116.524 12.2994 116.424 12.1074 116.32 11.9874C116.224 11.8594 116.084 11.7554 115.9 11.6754L115.48 11.5074C115.176 11.3714 115.024 11.1514 115.024 10.8474C115.024 10.6394 115.092 10.4794 115.228 10.3674C115.364 10.2554 115.572 10.1994 115.852 10.1994H122.188C122.476 10.1994 122.684 10.2554 122.812 10.3674C122.948 10.4794 123.016 10.6394 123.016 10.8474C123.016 11.0074 122.972 11.1354 122.884 11.2314C122.796 11.3274 122.66 11.4114 122.476 11.4834L121.876 11.6514C121.668 11.7314 121.536 11.8594 121.48 12.0354C121.432 12.2034 121.468 12.4594 121.588 12.8034L125.488 24.4434L124.228 25.5474L128.308 13.2474C128.444 12.8394 128.464 12.5114 128.368 12.2634C128.272 12.0074 128.024 11.7954 127.624 11.6274L127.108 11.4714C126.94 11.3994 126.808 11.3194 126.712 11.2314C126.624 11.1354 126.58 11.0074 126.58 10.8474Z" fill="#EFE9D1"/>
<path d="M144.049 19.8834C144.049 20.3474 143.917 20.7074 143.653 20.9634C143.397 21.2114 143.025 21.3354 142.537 21.3354H135.229V20.3154H139.285C139.685 20.3154 139.885 20.1274 139.885 19.7514C139.885 18.6794 139.729 17.8954 139.417 17.3994C139.105 16.8954 138.697 16.6434 138.193 16.6434C137.809 16.6434 137.465 16.7714 137.161 17.0274C136.865 17.2834 136.629 17.6634 136.453 18.1674C136.277 18.6714 136.189 19.2954 136.189 20.0394C136.189 21.5514 136.533 22.6714 137.221 23.3994C137.917 24.1274 138.849 24.4914 140.017 24.4914C140.649 24.4914 141.209 24.3834 141.697 24.1674C142.185 23.9514 142.597 23.6074 142.933 23.1354C143.109 22.9674 143.245 22.8554 143.341 22.7994C143.437 22.7354 143.533 22.7034 143.629 22.7034C143.757 22.7034 143.853 22.7674 143.917 22.8954C143.981 23.0234 144.013 23.1794 144.013 23.3634C143.997 24.0674 143.757 24.7234 143.293 25.3314C142.829 25.9314 142.193 26.4114 141.385 26.7714C140.585 27.1314 139.657 27.3114 138.601 27.3114C137.417 27.3114 136.361 27.0714 135.433 26.5914C134.513 26.1114 133.785 25.4434 133.249 24.5874C132.721 23.7314 132.457 22.7274 132.457 21.5754C132.457 20.3194 132.705 19.2194 133.201 18.2754C133.697 17.3314 134.417 16.5954 135.361 16.0674C136.305 15.5394 137.433 15.2754 138.745 15.2754C139.889 15.2754 140.853 15.4754 141.637 15.8754C142.429 16.2674 143.029 16.8114 143.437 17.5074C143.845 18.1954 144.049 18.9874 144.049 19.8834Z" fill="#EFE9D1"/>
<path d="M147.002 16.8834L146.498 16.7274C146.322 16.6634 146.194 16.5874 146.114 16.4994C146.034 16.4034 145.994 16.2874 145.994 16.1514C145.994 15.9754 146.054 15.8394 146.174 15.7434C146.302 15.6394 146.466 15.5874 146.666 15.5874H147.386C147.554 15.5874 147.698 15.5514 147.818 15.4794C147.946 15.4074 148.09 15.2794 148.25 15.0954L149.966 13.1514C150.174 12.9354 150.366 12.7754 150.542 12.6714C150.726 12.5594 150.906 12.5034 151.082 12.5034C151.266 12.5034 151.41 12.5674 151.514 12.6954C151.626 12.8154 151.682 12.9914 151.682 13.2234V23.1594C151.682 23.7354 151.786 24.1754 151.994 24.4794C152.21 24.7834 152.514 24.9354 152.906 24.9354C153.194 24.9354 153.418 24.8714 153.578 24.7434C153.746 24.6154 153.878 24.4674 153.974 24.2994C154.07 24.1314 154.17 23.9794 154.274 23.8434C154.378 23.6994 154.51 23.6194 154.67 23.6034C154.798 23.5954 154.902 23.6354 154.982 23.7234C155.062 23.8114 155.102 23.9674 155.102 24.1914C155.094 24.7594 154.918 25.2794 154.574 25.7514C154.238 26.2154 153.774 26.5874 153.182 26.8674C152.598 27.1474 151.926 27.2874 151.166 27.2874C150.006 27.2874 149.106 27.0074 148.466 26.4474C147.826 25.8794 147.506 25.0194 147.506 23.8674V17.6034C147.506 17.3954 147.466 17.2434 147.386 17.1474C147.314 17.0434 147.186 16.9554 147.002 16.8834ZM150.17 16.9554L150.182 15.5874H154.334C154.534 15.5874 154.694 15.6314 154.814 15.7194C154.934 15.8074 154.994 15.9314 154.994 16.0914C154.994 16.3314 154.874 16.5354 154.634 16.7034C154.402 16.8714 154.014 16.9554 153.47 16.9554H150.17Z" fill="#EFE9D1"/>
<path d="M174.583 21.7074L173.179 22.0434L177.175 11.4954C177.359 11.0074 177.571 10.6714 177.811 10.4874C178.059 10.2954 178.399 10.1994 178.831 10.1994H182.935C183.215 10.1994 183.423 10.2554 183.559 10.3674C183.695 10.4794 183.763 10.6394 183.763 10.8474C183.763 11.0154 183.719 11.1594 183.631 11.2794C183.543 11.3994 183.411 11.4874 183.235 11.5434L182.683 11.7114C182.427 11.7914 182.251 11.8994 182.155 12.0354C182.067 12.1714 182.035 12.3874 182.059 12.6834L182.911 24.6234C182.927 24.9034 182.979 25.1034 183.067 25.2234C183.155 25.3354 183.307 25.4234 183.523 25.4874L184.075 25.6554C184.243 25.7114 184.367 25.7954 184.447 25.9074C184.527 26.0194 184.567 26.1554 184.567 26.3154C184.567 26.5154 184.499 26.6794 184.363 26.8074C184.227 26.9354 184.019 26.9994 183.739 26.9994H177.451C177.163 26.9994 176.951 26.9434 176.815 26.8314C176.679 26.7114 176.611 26.5514 176.611 26.3514C176.611 26.1914 176.651 26.0514 176.731 25.9314C176.811 25.8114 176.951 25.7194 177.151 25.6554L177.715 25.4874C177.971 25.4074 178.143 25.3074 178.231 25.1874C178.319 25.0594 178.355 24.8714 178.339 24.6234L177.391 12.2634L178.663 12.1434L173.707 25.3314C173.539 25.8034 173.359 26.1074 173.167 26.2434C172.983 26.3714 172.767 26.4354 172.519 26.4354C172.335 26.4354 172.167 26.4154 172.015 26.3754C171.863 26.3274 171.719 26.2194 171.583 26.0514C171.455 25.8834 171.319 25.6234 171.175 25.2714L166.099 12.5514L167.323 12.2154L166.339 24.1914C166.307 24.5514 166.387 24.8314 166.579 25.0314C166.771 25.2234 167.023 25.3954 167.335 25.5474L167.803 25.7274C167.931 25.7914 168.031 25.8714 168.103 25.9674C168.175 26.0554 168.211 26.1754 168.211 26.3274C168.211 26.5274 168.143 26.6914 168.007 26.8194C167.871 26.9394 167.663 26.9994 167.383 26.9994H163.651C163.371 26.9994 163.163 26.9434 163.027 26.8314C162.891 26.7114 162.823 26.5514 162.823 26.3514C162.823 26.1594 162.879 26.0114 162.991 25.9074C163.103 25.8034 163.247 25.7114 163.423 25.6314L163.795 25.4874C164.067 25.3834 164.291 25.2314 164.467 25.0314C164.651 24.8234 164.759 24.5394 164.791 24.1794L165.703 13.1274C165.735 12.6874 165.703 12.3634 165.607 12.1554C165.511 11.9394 165.331 11.7914 165.067 11.7114L164.539 11.5554C164.347 11.4914 164.203 11.4034 164.107 11.2914C164.019 11.1714 163.975 11.0234 163.975 10.8474C163.975 10.4154 164.255 10.1994 164.815 10.1994H168.895C169.295 10.1994 169.615 10.2834 169.855 10.4514C170.095 10.6114 170.311 10.9434 170.503 11.4474L174.583 21.7074Z" fill="#EFE9D1"/>
<path d="M194.112 25.4514V25.1874L193.824 25.1754V17.6634C193.824 17.2314 193.712 16.8914 193.488 16.6434C193.264 16.3954 192.956 16.2714 192.564 16.2714C192.22 16.2714 191.944 16.3514 191.736 16.5114C191.528 16.6634 191.424 16.8554 191.424 17.0874V18.2754C191.424 18.8434 191.228 19.2874 190.836 19.6074C190.452 19.9194 189.908 20.0754 189.204 20.0754C188.604 20.0754 188.152 19.9434 187.848 19.6794C187.552 19.4074 187.404 19.0314 187.404 18.5514C187.404 18.0394 187.624 17.5354 188.064 17.0394C188.504 16.5354 189.16 16.1194 190.032 15.7914C190.912 15.4554 192.004 15.2874 193.308 15.2874C194.884 15.2874 196.052 15.5914 196.812 16.1994C197.58 16.8074 197.964 17.6314 197.964 18.6714V24.6714C197.964 24.8634 198.004 25.0114 198.084 25.1154C198.172 25.2194 198.3 25.2714 198.468 25.2714C198.62 25.2714 198.74 25.2354 198.828 25.1634C198.916 25.0834 198.992 24.9994 199.056 24.9114C199.104 24.8554 199.152 24.8114 199.2 24.7794C199.256 24.7394 199.316 24.7194 199.38 24.7194C199.492 24.7194 199.572 24.7594 199.62 24.8394C199.676 24.9194 199.704 25.0234 199.704 25.1514C199.704 25.4554 199.592 25.7754 199.368 26.1114C199.152 26.4394 198.824 26.7234 198.384 26.9634C197.952 27.1954 197.412 27.3114 196.764 27.3114C195.964 27.3114 195.32 27.1394 194.832 26.7954C194.352 26.4514 194.112 26.0034 194.112 25.4514ZM186.924 24.4794C186.924 23.4394 187.388 22.6114 188.316 21.9954C189.252 21.3714 190.568 21.0594 192.264 21.0594C192.752 21.0594 193.184 21.0994 193.56 21.1794C193.936 21.2514 194.256 21.3554 194.52 21.4914L194.208 22.3434C193.984 22.2314 193.764 22.1474 193.548 22.0914C193.332 22.0354 193.096 22.0074 192.84 22.0074C192.312 22.0074 191.9 22.1594 191.604 22.4634C191.308 22.7674 191.16 23.1994 191.16 23.7594C191.16 24.3274 191.292 24.7634 191.556 25.0674C191.828 25.3634 192.184 25.5114 192.624 25.5114C192.944 25.5114 193.252 25.4354 193.548 25.2834C193.852 25.1234 194.096 24.9194 194.28 24.6714L194.556 25.4514C194.148 26.0434 193.58 26.5034 192.852 26.8314C192.124 27.1514 191.348 27.3114 190.524 27.3114C189.452 27.3114 188.584 27.0474 187.92 26.5194C187.256 25.9834 186.924 25.3034 186.924 24.4794Z" fill="#EFE9D1"/>
<path d="M206.61 20.5554C206.61 19.3794 206.77 18.3994 207.09 17.6154C207.418 16.8314 207.846 16.2474 208.374 15.8634C208.902 15.4714 209.474 15.2754 210.09 15.2754C210.89 15.2754 211.502 15.5074 211.926 15.9714C212.35 16.4354 212.562 17.1234 212.562 18.0354C212.562 18.9074 212.382 19.5554 212.022 19.9794C211.67 20.3954 211.21 20.6034 210.642 20.6034C210.074 20.6034 209.642 20.4554 209.346 20.1594C209.058 19.8554 208.914 19.4354 208.914 18.8994V18.4314C208.906 18.2074 208.854 18.0394 208.758 17.9274C208.662 17.8074 208.506 17.7474 208.29 17.7474C208.066 17.7474 207.858 17.8394 207.666 18.0234C207.482 18.2074 207.33 18.4994 207.21 18.8994C207.09 19.2914 207.03 19.8074 207.03 20.4474L206.61 20.5554ZM206.79 16.1754L207.03 18.8754V24.8754C207.03 25.1154 207.07 25.2914 207.15 25.4034C207.238 25.5154 207.41 25.5914 207.666 25.6314L208.65 25.8114C208.85 25.8514 208.998 25.9194 209.094 26.0154C209.19 26.1114 209.238 26.2474 209.238 26.4234C209.238 26.5994 209.174 26.7394 209.046 26.8434C208.918 26.9474 208.73 26.9994 208.482 26.9994H202.374C202.118 26.9994 201.93 26.9474 201.81 26.8434C201.698 26.7394 201.642 26.5994 201.642 26.4234C201.642 26.2954 201.678 26.1834 201.75 26.0874C201.822 25.9914 201.938 25.9114 202.098 25.8474L202.482 25.7274C202.61 25.6794 202.702 25.5954 202.758 25.4754C202.814 25.3554 202.842 25.1594 202.842 24.8874V18.4914C202.842 18.2674 202.81 18.1114 202.746 18.0234C202.69 17.9274 202.594 17.8634 202.458 17.8314L202.002 17.7714C201.85 17.7314 201.742 17.6714 201.678 17.5914C201.614 17.5034 201.582 17.3954 201.582 17.2674C201.582 17.1154 201.626 16.9914 201.714 16.8954C201.802 16.7994 201.962 16.7114 202.194 16.6314L204.69 15.7194C205.138 15.5514 205.462 15.4434 205.662 15.3954C205.87 15.3394 206.03 15.3114 206.142 15.3114C206.334 15.3114 206.478 15.3794 206.574 15.5154C206.678 15.6434 206.75 15.8634 206.79 16.1754Z" fill="#EFE9D1"/>
<path d="M215.345 26.9994C215.089 26.9994 214.905 26.9474 214.793 26.8434C214.681 26.7394 214.625 26.5994 214.625 26.4234C214.625 26.2954 214.661 26.1834 214.733 26.0874C214.805 25.9914 214.921 25.9114 215.081 25.8474L215.465 25.7274C215.593 25.6714 215.685 25.5874 215.741 25.4754C215.797 25.3554 215.825 25.1594 215.825 24.8874V12.1794C215.825 11.9554 215.793 11.7994 215.729 11.7114C215.673 11.6154 215.577 11.5514 215.441 11.5194L214.985 11.4594C214.833 11.4194 214.725 11.3594 214.661 11.2794C214.597 11.1914 214.565 11.0834 214.565 10.9554C214.565 10.8034 214.605 10.6834 214.685 10.5954C214.773 10.4994 214.937 10.4074 215.177 10.3194L217.733 9.38344C218.069 9.25544 218.337 9.16344 218.537 9.10744C218.745 9.05144 218.945 9.02344 219.137 9.02344C219.425 9.02344 219.641 9.10344 219.785 9.26344C219.937 9.42344 220.013 9.63144 220.013 9.88744V24.8754C220.013 25.1554 220.041 25.3554 220.097 25.4754C220.161 25.5874 220.257 25.6714 220.385 25.7274L220.745 25.8474C220.993 25.9754 221.117 26.1554 221.117 26.3874C221.117 26.7954 220.865 26.9994 220.361 26.9994H215.345ZM218.813 21.8634L223.529 17.9874C223.809 17.7554 223.933 17.5314 223.901 17.3154C223.869 17.0914 223.693 16.9234 223.373 16.8114L223.013 16.6914C222.861 16.6354 222.757 16.5674 222.701 16.4874C222.645 16.3994 222.617 16.2914 222.617 16.1634C222.617 15.9794 222.681 15.8394 222.809 15.7434C222.937 15.6394 223.109 15.5874 223.325 15.5874H227.789C228.013 15.5874 228.185 15.6394 228.305 15.7434C228.433 15.8394 228.497 15.9714 228.497 16.1394C228.497 16.3074 228.445 16.4474 228.341 16.5594C228.245 16.6714 228.025 16.7674 227.681 16.8474C227.249 16.9594 226.849 17.1154 226.481 17.3154C226.121 17.5154 225.689 17.8234 225.185 18.2394L219.293 22.9434L218.813 21.8634ZM223.361 18.6354L227.645 25.0074C227.805 25.2314 227.945 25.3954 228.065 25.4994C228.193 25.6034 228.357 25.6994 228.557 25.7874C228.725 25.8914 228.853 25.9994 228.941 26.1114C229.029 26.2154 229.073 26.3354 229.073 26.4714C229.073 26.6314 229.009 26.7594 228.881 26.8554C228.761 26.9514 228.593 26.9994 228.377 26.9994H223.061C222.869 26.9994 222.713 26.9474 222.593 26.8434C222.481 26.7394 222.425 26.6034 222.425 26.4354C222.425 26.3234 222.449 26.2274 222.497 26.1474C222.553 26.0674 222.645 25.9994 222.773 25.9434L223.097 25.8234C223.273 25.7594 223.369 25.6634 223.385 25.5354C223.401 25.4074 223.309 25.1994 223.109 24.9114L220.601 21.1314L223.361 18.6354Z" fill="#EFE9D1"/>
<path d="M242.269 19.8834C242.269 20.3474 242.137 20.7074 241.873 20.9634C241.617 21.2114 241.245 21.3354 240.757 21.3354H233.449V20.3154H237.505C237.905 20.3154 238.105 20.1274 238.105 19.7514C238.105 18.6794 237.949 17.8954 237.637 17.3994C237.325 16.8954 236.917 16.6434 236.413 16.6434C236.029 16.6434 235.685 16.7714 235.381 17.0274C235.085 17.2834 234.849 17.6634 234.673 18.1674C234.497 18.6714 234.409 19.2954 234.409 20.0394C234.409 21.5514 234.753 22.6714 235.441 23.3994C236.137 24.1274 237.069 24.4914 238.237 24.4914C238.869 24.4914 239.429 24.3834 239.917 24.1674C240.405 23.9514 240.817 23.6074 241.153 23.1354C241.329 22.9674 241.465 22.8554 241.561 22.7994C241.657 22.7354 241.753 22.7034 241.849 22.7034C241.977 22.7034 242.073 22.7674 242.137 22.8954C242.201 23.0234 242.233 23.1794 242.233 23.3634C242.217 24.0674 241.977 24.7234 241.513 25.3314C241.049 25.9314 240.413 26.4114 239.605 26.7714C238.805 27.1314 237.877 27.3114 236.821 27.3114C235.637 27.3114 234.581 27.0714 233.653 26.5914C232.733 26.1114 232.005 25.4434 231.469 24.5874C230.941 23.7314 230.677 22.7274 230.677 21.5754C230.677 20.3194 230.925 19.2194 231.421 18.2754C231.917 17.3314 232.637 16.5954 233.581 16.0674C234.525 15.5394 235.653 15.2754 236.965 15.2754C238.109 15.2754 239.073 15.4754 239.857 15.8754C240.649 16.2674 241.249 16.8114 241.657 17.5074C242.065 18.1954 242.269 18.9874 242.269 19.8834Z" fill="#EFE9D1"/>
<path d="M245.221 16.8834L244.717 16.7274C244.541 16.6634 244.413 16.5874 244.333 16.4994C244.253 16.4034 244.214 16.2874 244.214 16.1514C244.214 15.9754 244.273 15.8394 244.393 15.7434C244.521 15.6394 244.685 15.5874 244.885 15.5874H245.605C245.773 15.5874 245.918 15.5514 246.038 15.4794C246.166 15.4074 246.309 15.2794 246.469 15.0954L248.186 13.1514C248.394 12.9354 248.586 12.7754 248.762 12.6714C248.946 12.5594 249.125 12.5034 249.301 12.5034C249.485 12.5034 249.63 12.5674 249.734 12.6954C249.846 12.8154 249.902 12.9914 249.902 13.2234V23.1594C249.902 23.7354 250.006 24.1754 250.214 24.4794C250.43 24.7834 250.734 24.9354 251.126 24.9354C251.414 24.9354 251.638 24.8714 251.798 24.7434C251.966 24.6154 252.097 24.4674 252.193 24.2994C252.289 24.1314 252.389 23.9794 252.493 23.8434C252.597 23.6994 252.729 23.6194 252.889 23.6034C253.017 23.5954 253.122 23.6354 253.202 23.7234C253.282 23.8114 253.322 23.9674 253.322 24.1914C253.314 24.7594 253.138 25.2794 252.794 25.7514C252.458 26.2154 251.994 26.5874 251.402 26.8674C250.818 27.1474 250.145 27.2874 249.385 27.2874C248.225 27.2874 247.326 27.0074 246.686 26.4474C246.046 25.8794 245.725 25.0194 245.725 23.8674V17.6034C245.725 17.3954 245.685 17.2434 245.605 17.1474C245.533 17.0434 245.405 16.9554 245.221 16.8834ZM248.389 16.9554L248.402 15.5874H252.553C252.753 15.5874 252.914 15.6314 253.034 15.7194C253.154 15.8074 253.214 15.9314 253.214 16.0914C253.214 16.3314 253.094 16.5354 252.854 16.7034C252.622 16.8714 252.233 16.9554 251.689 16.9554H248.389Z" fill="#EFE9D1"/>
<path d="M260.874 16.1754V24.8754C260.874 25.1554 260.902 25.3554 260.958 25.4754C261.014 25.5954 261.106 25.6794 261.234 25.7274L261.606 25.8474C261.774 25.9114 261.894 25.9914 261.966 26.0874C262.038 26.1834 262.074 26.2954 262.074 26.4234C262.074 26.5994 262.014 26.7394 261.894 26.8434C261.774 26.9474 261.586 26.9994 261.33 26.9994H256.206C255.95 26.9994 255.762 26.9474 255.642 26.8434C255.53 26.7394 255.474 26.5994 255.474 26.4234C255.474 26.2954 255.51 26.1834 255.582 26.0874C255.654 25.9914 255.77 25.9114 255.93 25.8474L256.314 25.7274C256.442 25.6714 256.534 25.5874 256.59 25.4754C256.654 25.3554 256.686 25.1594 256.686 24.8874V18.4554C256.686 18.2394 256.654 18.0834 256.59 17.9874C256.526 17.8914 256.426 17.8314 256.29 17.8074L255.834 17.7474C255.682 17.6994 255.574 17.6354 255.51 17.5554C255.446 17.4754 255.414 17.3714 255.414 17.2434C255.414 17.0834 255.454 16.9594 255.534 16.8714C255.622 16.7834 255.786 16.6954 256.026 16.6074L258.582 15.6714C258.934 15.5354 259.21 15.4394 259.41 15.3834C259.618 15.3274 259.798 15.2994 259.95 15.2994C260.254 15.2994 260.482 15.3834 260.634 15.5514C260.794 15.7114 260.874 15.9194 260.874 16.1754ZM258.522 13.8834C257.762 13.8834 257.158 13.6954 256.71 13.3194C256.262 12.9434 256.038 12.4434 256.038 11.8194C256.038 11.1954 256.262 10.6994 256.71 10.3314C257.158 9.96344 257.762 9.77944 258.522 9.77944C259.282 9.77944 259.886 9.96344 260.334 10.3314C260.79 10.6994 261.018 11.1954 261.018 11.8194C261.018 12.4434 260.79 12.9434 260.334 13.3194C259.886 13.6954 259.282 13.8834 258.522 13.8834Z" fill="#EFE9D1"/>
<path d="M269.72 16.1754V24.8754C269.72 25.1554 269.748 25.3554 269.804 25.4754C269.868 25.5874 269.964 25.6714 270.092 25.7274L270.452 25.8474C270.7 25.9754 270.824 26.1554 270.824 26.3874C270.824 26.7954 270.572 26.9994 270.068 26.9994H265.064C264.808 26.9994 264.62 26.9474 264.5 26.8434C264.388 26.7394 264.332 26.5994 264.332 26.4234C264.332 26.2954 264.368 26.1834 264.44 26.0874C264.512 25.9914 264.628 25.9114 264.788 25.8474L265.172 25.7274C265.3 25.6714 265.392 25.5874 265.448 25.4754C265.504 25.3554 265.532 25.1594 265.532 24.8874V18.4554C265.532 18.2394 265.5 18.0834 265.436 17.9874C265.38 17.8914 265.284 17.8314 265.148 17.8074L264.692 17.7474C264.54 17.6994 264.432 17.6354 264.368 17.5554C264.304 17.4754 264.272 17.3714 264.272 17.2434C264.272 17.0834 264.312 16.9594 264.392 16.8714C264.48 16.7834 264.644 16.6954 264.884 16.6074L267.44 15.6714C267.776 15.5354 268.044 15.4394 268.244 15.3834C268.452 15.3274 268.652 15.2994 268.844 15.2994C269.132 15.2994 269.348 15.3834 269.492 15.5514C269.644 15.7114 269.72 15.9194 269.72 16.1754ZM269.324 18.9594L268.736 18.3234L269.144 17.9394C270.192 16.9874 271.092 16.3074 271.844 15.8994C272.596 15.4834 273.3 15.2754 273.956 15.2754C274.948 15.2754 275.72 15.6114 276.272 16.2834C276.832 16.9474 277.168 17.8314 277.28 18.9354L277.892 24.8634C277.924 25.1434 277.964 25.3474 278.012 25.4754C278.06 25.5954 278.152 25.6794 278.288 25.7274L278.636 25.8474C278.796 25.9114 278.912 25.9914 278.984 26.0874C279.056 26.1834 279.092 26.2954 279.092 26.4234C279.092 26.5994 279.032 26.7394 278.912 26.8434C278.8 26.9474 278.616 26.9994 278.36 26.9994H273.296C272.8 26.9994 272.552 26.7954 272.552 26.3874C272.552 26.1554 272.676 25.9754 272.924 25.8474L273.284 25.7274C273.42 25.6714 273.524 25.5834 273.596 25.4634C273.668 25.3434 273.688 25.1434 273.656 24.8634L273.104 19.5234C273.04 18.9234 272.892 18.4754 272.66 18.1794C272.428 17.8834 272.08 17.7354 271.616 17.7354C271.328 17.7354 271.028 17.8074 270.716 17.9514C270.404 18.0874 270.092 18.2914 269.78 18.5634L269.324 18.9594Z" fill="#EFE9D1"/>
<path d="M289.059 25.5954C290.315 25.7474 291.315 25.9594 292.059 26.2314C292.803 26.4954 293.339 26.8474 293.667 27.2874C294.003 27.7274 294.171 28.2714 294.171 28.9194C294.171 30.0794 293.539 31.0274 292.275 31.7634C291.019 32.5074 289.195 32.8794 286.803 32.8794C285.275 32.8794 284.071 32.7714 283.191 32.5554C282.319 32.3394 281.699 32.0354 281.331 31.6434C280.963 31.2594 280.779 30.8154 280.779 30.3114C280.779 29.7114 281.067 29.1874 281.643 28.7394C282.227 28.2914 283.287 27.9794 284.823 27.8034L284.955 28.1514C284.619 28.2394 284.359 28.3954 284.175 28.6194C283.999 28.8434 283.911 29.0874 283.911 29.3514C283.911 30.0314 284.175 30.5754 284.703 30.9834C285.239 31.3914 286.167 31.5954 287.487 31.5954C288.247 31.5954 288.847 31.5394 289.287 31.4274C289.727 31.3234 290.043 31.1634 290.235 30.9474C290.427 30.7314 290.523 30.4714 290.523 30.1674C290.523 29.9034 290.407 29.6794 290.175 29.4954C289.951 29.3114 289.563 29.1474 289.011 29.0034C288.467 28.8674 287.703 28.7354 286.719 28.6074C285.519 28.4394 284.599 28.2514 283.959 28.0434C283.327 27.8434 282.891 27.5954 282.651 27.2994C282.411 27.0114 282.291 26.6594 282.291 26.2434C282.291 25.8514 282.403 25.4914 282.627 25.1634C282.851 24.8274 283.227 24.5474 283.755 24.3234C284.291 24.0994 285.027 23.9594 285.963 23.9034L286.143 24.1074C285.959 24.1874 285.823 24.2714 285.735 24.3594C285.647 24.4474 285.603 24.5434 285.603 24.6474C285.603 24.7434 285.663 24.8394 285.783 24.9354C285.911 25.0314 286.215 25.1314 286.695 25.2354C287.183 25.3394 287.971 25.4594 289.059 25.5954ZM289.083 16.4874L289.479 15.5874C289.887 14.6354 290.395 13.9274 291.003 13.4634C291.619 12.9994 292.275 12.7674 292.971 12.7674C293.539 12.7674 293.999 12.9274 294.351 13.2474C294.703 13.5594 294.879 14.0074 294.879 14.5914C294.879 15.1034 294.747 15.5194 294.483 15.8394C294.227 16.1514 293.883 16.3074 293.451 16.3074C293.155 16.3074 292.923 16.2434 292.755 16.1154C292.595 15.9874 292.455 15.8394 292.335 15.6714C292.223 15.4954 292.095 15.3474 291.951 15.2274C291.807 15.0994 291.603 15.0354 291.339 15.0354C291.067 15.0354 290.835 15.1434 290.643 15.3594C290.459 15.5674 290.235 15.9674 289.971 16.5594L289.083 16.4874ZM293.175 19.6074C293.175 20.5354 292.919 21.3554 292.407 22.0674C291.903 22.7714 291.187 23.3194 290.259 23.7114C289.331 24.1034 288.235 24.2994 286.971 24.2994C285.747 24.2994 284.699 24.1114 283.827 23.7354C282.963 23.3594 282.299 22.8474 281.835 22.1994C281.379 21.5514 281.151 20.8274 281.151 20.0274C281.151 19.0994 281.403 18.2834 281.907 17.5794C282.411 16.8674 283.131 16.3154 284.067 15.9234C285.003 15.5234 286.107 15.3234 287.379 15.3234C288.603 15.3234 289.647 15.5114 290.511 15.8874C291.375 16.2634 292.035 16.7754 292.491 17.4234C292.947 18.0714 293.175 18.7994 293.175 19.6074ZM286.635 16.4754C286.291 16.5154 286.015 16.6714 285.807 16.9434C285.607 17.2074 285.483 17.5874 285.435 18.0834C285.387 18.5794 285.419 19.1914 285.531 19.9194C285.643 20.6474 285.799 21.2554 285.999 21.7434C286.199 22.2314 286.439 22.5874 286.719 22.8114C286.999 23.0354 287.315 23.1274 287.667 23.0874C288.195 23.0234 288.551 22.7074 288.735 22.1394C288.927 21.5634 288.939 20.7314 288.771 19.6434C288.611 18.5394 288.347 17.7194 287.979 17.1834C287.619 16.6474 287.171 16.4114 286.635 16.4754Z" fill="#EFE9D1"/>
<path d="M318.107 16.4274C318.107 17.4754 317.835 18.3834 317.291 19.1514C316.747 19.9194 315.971 20.5154 314.963 20.9394C313.955 21.3554 312.763 21.5634 311.387 21.5634C310.467 21.5634 309.643 21.4674 308.915 21.2754C308.187 21.0754 307.539 20.7954 306.971 20.4354L307.139 19.2354C307.443 19.4434 307.747 19.6154 308.051 19.7514C308.363 19.8874 308.687 19.9914 309.023 20.0634C309.359 20.1274 309.723 20.1594 310.115 20.1594C310.771 20.1594 311.363 20.0154 311.891 19.7274C312.419 19.4394 312.839 19.0114 313.151 18.4434C313.463 17.8674 313.619 17.1554 313.619 16.3074C313.619 15.3314 313.439 14.4914 313.079 13.7874C312.719 13.0754 312.223 12.5274 311.591 12.1434C310.959 11.7594 310.227 11.5674 309.395 11.5674H308.771V24.7794C308.771 24.9634 308.815 25.1194 308.903 25.2474C308.999 25.3674 309.155 25.4474 309.371 25.4874L310.247 25.6434C310.463 25.6834 310.619 25.7594 310.715 25.8714C310.811 25.9834 310.859 26.1434 310.859 26.3514C310.859 26.5514 310.791 26.7114 310.655 26.8314C310.519 26.9434 310.311 26.9994 310.031 26.9994H303.263C302.975 26.9994 302.763 26.9434 302.627 26.8314C302.499 26.7114 302.435 26.5514 302.435 26.3514C302.435 26.0074 302.611 25.7754 302.963 25.6554L303.563 25.4874C303.763 25.4234 303.911 25.3354 304.007 25.2234C304.103 25.1114 304.151 24.9634 304.151 24.7794V12.4194C304.151 12.2354 304.103 12.0874 304.007 11.9754C303.911 11.8634 303.763 11.7754 303.563 11.7114L302.963 11.5434C302.611 11.4234 302.435 11.1914 302.435 10.8474C302.435 10.6394 302.499 10.4794 302.627 10.3674C302.763 10.2554 302.971 10.1994 303.251 10.1994H309.515C311.331 10.1994 312.879 10.4674 314.159 11.0034C315.439 11.5314 316.415 12.2674 317.087 13.2114C317.767 14.1474 318.107 15.2194 318.107 16.4274Z" fill="#EFE9D1"/>
<path d="M326.438 15.2754C327.726 15.2754 328.85 15.5314 329.81 16.0434C330.778 16.5474 331.53 17.2554 332.066 18.1674C332.61 19.0714 332.882 20.1274 332.882 21.3354C332.882 22.4634 332.602 23.4794 332.042 24.3834C331.482 25.2794 330.706 25.9914 329.714 26.5194C328.73 27.0474 327.586 27.3114 326.282 27.3114C325.002 27.3114 323.878 27.0554 322.91 26.5434C321.942 26.0314 321.186 25.3194 320.642 24.4074C320.106 23.4954 319.838 22.4474 319.838 21.2634C319.838 20.1114 320.118 19.0874 320.678 18.1914C321.238 17.2874 322.01 16.5754 322.994 16.0554C323.986 15.5354 325.134 15.2754 326.438 15.2754ZM327.29 25.9074C327.714 25.8274 328.046 25.5954 328.286 25.2114C328.534 24.8194 328.674 24.2674 328.706 23.5554C328.746 22.8434 328.666 21.9674 328.466 20.9274C328.266 19.9034 328.014 19.0634 327.71 18.4074C327.414 17.7514 327.07 17.2794 326.678 16.9914C326.294 16.7034 325.882 16.5994 325.442 16.6794C325.018 16.7594 324.682 16.9954 324.434 17.3874C324.186 17.7714 324.046 18.3194 324.014 19.0314C323.982 19.7354 324.066 20.6114 324.266 21.6594C324.458 22.6754 324.706 23.5154 325.01 24.1794C325.314 24.8354 325.658 25.3074 326.042 25.5954C326.434 25.8754 326.85 25.9794 327.29 25.9074Z" fill="#EFE9D1"/>
<path d="M343.887 24.9834L343.755 24.9474V12.1794C343.755 11.9554 343.723 11.7994 343.659 11.7114C343.595 11.6154 343.499 11.5514 343.371 11.5194L342.903 11.4594C342.759 11.4194 342.651 11.3594 342.579 11.2794C342.515 11.1914 342.483 11.0834 342.483 10.9554C342.483 10.8034 342.527 10.6834 342.615 10.5954C342.703 10.4994 342.863 10.4074 343.095 10.3194L345.651 9.38344C345.987 9.25544 346.259 9.16344 346.467 9.10744C346.675 9.05144 346.875 9.02344 347.067 9.02344C347.355 9.02344 347.571 9.10344 347.715 9.26344C347.867 9.42344 347.943 9.63144 347.943 9.88744V24.8754C347.943 25.1554 347.971 25.3554 348.027 25.4754C348.083 25.5954 348.179 25.6794 348.315 25.7274L348.687 25.8474C348.847 25.9114 348.963 25.9914 349.035 26.0874C349.107 26.1834 349.143 26.2954 349.143 26.4234C349.143 26.5994 349.083 26.7394 348.963 26.8434C348.851 26.9474 348.663 26.9994 348.399 26.9994H345.531C345.083 26.9994 344.695 26.8474 344.367 26.5434C344.047 26.2314 343.887 25.8434 343.887 25.3794V24.9834ZM335.259 21.6354C335.259 20.3554 335.515 19.2394 336.027 18.2874C336.547 17.3274 337.251 16.5874 338.139 16.0674C339.035 15.5394 340.039 15.2754 341.151 15.2754C342.103 15.2754 342.931 15.4834 343.635 15.8994C344.347 16.3154 344.947 16.9354 345.435 17.7594L344.427 18.5034C344.059 17.9274 343.671 17.5074 343.263 17.2434C342.863 16.9714 342.427 16.8354 341.955 16.8354C341.499 16.8354 341.091 16.9874 340.731 17.2914C340.371 17.5874 340.091 18.0554 339.891 18.6954C339.691 19.3354 339.591 20.1754 339.591 21.2154C339.591 22.1674 339.691 22.9434 339.891 23.5434C340.091 24.1434 340.363 24.5874 340.707 24.8754C341.059 25.1554 341.459 25.2954 341.907 25.2954C342.411 25.2954 342.875 25.1394 343.299 24.8274C343.731 24.5074 344.135 24.0074 344.511 23.3274L345.171 24.0354C344.523 25.0594 343.787 25.8634 342.963 26.4474C342.139 27.0234 341.215 27.3114 340.191 27.3114C339.239 27.3114 338.391 27.0714 337.647 26.5914C336.911 26.1114 336.327 25.4474 335.895 24.5994C335.471 23.7434 335.259 22.7554 335.259 21.6354Z" fill="#EFE9D1"/>
</svg>
