<svg width="545" height="677" viewBox="0 0 545 677" fill="none" xmlns="http://www.w3.org/2000/svg">
<g clip-path="url(#clip0_884_111)">
<g filter="url(#filter0_d_884_111)">
<path d="M2 21C2 9.95429 10.9543 1 22 1H455C466.046 1 475 9.95431 475 21V677H2V21Z" fill="#3F5A3F"/>
</g>
<path d="M76.9443 635.33C76.9443 633.623 77.2077 631.975 77.7343 630.384C78.2715 628.783 79.0193 627.309 79.9778 625.96C80.9363 624.612 82.0581 623.459 83.3431 622.5C83.7645 622.163 84.1963 622.021 84.6387 622.074C85.0916 622.116 85.4497 622.316 85.7131 622.674C85.9975 623.064 86.087 623.475 85.9817 623.907C85.8869 624.328 85.6551 624.697 85.2865 625.012C84.2542 625.802 83.3537 626.729 82.5848 627.793C81.8264 628.857 81.2313 630.026 80.7994 631.301C80.3781 632.575 80.1674 633.918 80.1674 635.33C80.1674 637.152 80.5045 638.858 81.1786 640.449C81.8527 642.029 82.7849 643.419 83.9751 644.62C85.1759 645.81 86.5715 646.742 88.162 647.416C89.7525 648.09 91.4536 648.427 93.2652 648.427C95.0874 648.427 96.7885 648.09 98.3685 647.416C99.9484 646.742 101.339 645.81 102.54 644.62C103.74 643.419 104.672 642.029 105.336 640.449C106.01 638.858 106.347 637.152 106.347 635.33C106.347 633.792 106.105 632.338 105.62 630.969C105.136 629.6 104.451 628.357 103.567 627.24C102.682 626.113 101.639 625.16 100.438 624.381C99.248 623.591 97.9419 623.016 96.5199 622.658V624.791C96.5199 625.413 96.3303 625.797 95.9512 625.945C95.572 626.092 95.1348 625.992 94.6398 625.644L89.347 621.963C88.9362 621.679 88.7308 621.342 88.7308 620.952C88.7308 620.562 88.9362 620.225 89.347 619.941L94.6556 616.291C95.1506 615.954 95.5825 615.859 95.9512 616.007C96.3303 616.144 96.5199 616.518 96.5199 617.129V619.34C98.3632 619.73 100.08 620.41 101.671 621.379C103.261 622.348 104.646 623.548 105.826 624.981C107.016 626.403 107.943 627.999 108.607 629.768C109.27 631.527 109.602 633.381 109.602 635.33C109.602 637.563 109.175 639.669 108.322 641.649C107.469 643.619 106.289 645.352 104.783 646.847C103.277 648.343 101.539 649.518 99.5692 650.371C97.5996 651.224 95.4982 651.65 93.2652 651.65C91.0322 651.65 88.9309 651.224 86.9612 650.371C84.9916 649.518 83.2536 648.343 81.7474 646.847C80.2517 645.352 79.0773 643.619 78.2241 641.649C77.3709 639.669 76.9443 637.563 76.9443 635.33ZM89.1258 641.728C88.7571 641.728 88.4674 641.613 88.2568 641.381C88.0461 641.139 87.9408 640.833 87.9408 640.464V631.885H87.8934L86.4714 632.96C86.3661 633.023 86.2661 633.076 86.1713 633.118C86.087 633.16 85.9817 633.181 85.8553 633.181C85.6235 633.181 85.4287 633.102 85.2707 632.944C85.1127 632.775 85.0337 632.565 85.0337 632.312C85.0337 631.954 85.2075 631.643 85.5551 631.38L87.214 630.163C87.4879 629.952 87.7565 629.784 88.0198 629.658C88.2937 629.521 88.5991 629.452 88.9362 629.452C89.368 629.452 89.7051 629.568 89.9473 629.8C90.2001 630.031 90.3265 630.363 90.3265 630.795V640.464C90.3265 640.823 90.2212 641.123 90.0105 641.365C89.7999 641.607 89.5049 641.728 89.1258 641.728ZM96.8833 641.823C96.1671 641.823 95.4561 641.634 94.7504 641.254C94.0552 640.875 93.5918 640.349 93.36 639.674C93.2968 639.559 93.2389 639.437 93.1862 639.311C93.1441 639.174 93.123 639.032 93.123 638.884C93.123 638.59 93.2126 638.358 93.3916 638.189C93.5707 638.01 93.8077 637.921 94.1026 637.921C94.5555 637.921 94.8979 638.158 95.1296 638.632C95.277 639 95.493 639.311 95.7774 639.564C96.0723 639.817 96.4357 639.943 96.8675 639.943C97.4363 639.943 97.8682 639.711 98.1631 639.248C98.458 638.784 98.6055 638.237 98.6055 637.605C98.6055 637.025 98.4633 636.509 98.1789 636.056C97.905 635.593 97.4732 635.361 96.8833 635.361C96.5884 635.361 96.3198 635.435 96.0775 635.582C95.8353 635.719 95.6246 635.904 95.4456 636.135C95.2876 636.335 95.1348 636.483 94.9874 636.578C94.8399 636.673 94.6345 636.72 94.3712 636.72C93.992 636.72 93.7076 636.594 93.518 636.341C93.339 636.088 93.26 635.777 93.281 635.409L93.597 630.953C93.6392 630.079 94.071 629.642 94.8926 629.642H99.4428C99.7272 629.642 99.9537 629.731 100.122 629.91C100.291 630.079 100.375 630.305 100.375 630.59C100.375 630.864 100.291 631.09 100.122 631.269C99.9537 631.448 99.7272 631.538 99.4428 631.538H95.5562L95.3034 634.95H95.3666C95.5667 634.54 95.8722 634.224 96.2829 634.002C96.6937 633.771 97.1572 633.655 97.6733 633.655C98.7055 633.655 99.5008 634.045 100.059 634.824C100.617 635.593 100.896 636.499 100.896 637.542C100.896 638.784 100.538 639.811 99.822 640.622C99.1058 641.423 98.1262 641.823 96.8833 641.823Z" fill="#EFE9D1"/>
<path d="M227.642 661.421C226.142 661.421 225.017 661.047 224.267 660.298C223.538 659.549 223.173 658.435 223.173 656.958V614.041C223.173 612.564 223.548 611.451 224.298 610.702C225.048 609.953 226.163 609.578 227.642 609.578H234.987C236.446 609.578 237.55 609.953 238.301 610.702C239.072 611.43 239.457 612.543 239.457 614.041V656.958C239.457 658.435 239.072 659.549 238.301 660.298C237.55 661.047 236.446 661.421 234.987 661.421H227.642ZM251.334 661.421C249.834 661.421 248.709 661.047 247.959 660.298C247.208 659.549 246.833 658.435 246.833 656.958V614.041C246.833 612.564 247.208 611.451 247.959 610.702C248.709 609.953 249.834 609.578 251.334 609.578H258.617C260.117 609.578 261.242 609.953 261.992 610.702C262.743 611.43 263.118 612.543 263.118 614.041V656.958C263.118 658.435 262.743 659.549 261.992 660.298C261.242 661.047 260.117 661.421 258.617 661.421H251.334Z" fill="#EFE9D1"/>
<path d="M361.343 635.328C361.343 633.38 361.675 631.526 362.338 629.767C363.002 627.997 363.923 626.401 365.103 624.98C366.293 623.547 367.678 622.346 369.258 621.377C370.849 620.408 372.571 619.729 374.425 619.339V617.032C374.425 616.421 374.614 616.042 374.994 615.895C375.373 615.737 375.81 615.837 376.305 616.195L381.598 619.971C381.998 620.255 382.198 620.593 382.198 620.982C382.198 621.372 381.998 621.704 381.598 621.978L376.289 625.754C375.805 626.101 375.373 626.201 374.994 626.054C374.614 625.896 374.425 625.517 374.425 624.916V622.657C373.013 623.015 371.707 623.589 370.506 624.379C369.306 625.159 368.263 626.112 367.378 627.239C366.493 628.355 365.804 629.598 365.308 630.968C364.824 632.337 364.582 633.79 364.582 635.328C364.582 637.15 364.919 638.857 365.593 640.447C366.267 642.027 367.199 643.418 368.389 644.618C369.59 645.809 370.98 646.741 372.56 647.415C374.151 648.089 375.852 648.426 377.664 648.426C379.486 648.426 381.187 648.089 382.767 647.415C384.357 646.741 385.748 645.809 386.938 644.618C388.139 643.418 389.076 642.027 389.75 640.447C390.424 638.857 390.761 637.15 390.761 635.328C390.761 633.917 390.551 632.574 390.129 631.299C389.708 630.025 389.113 628.856 388.344 627.792C387.575 626.728 386.675 625.801 385.642 625.011C385.274 624.695 385.042 624.326 384.947 623.905C384.852 623.473 384.942 623.063 385.216 622.673C385.479 622.315 385.837 622.115 386.29 622.072C386.743 622.02 387.18 622.162 387.602 622.499C388.887 623.458 390.008 624.611 390.967 625.959C391.925 627.307 392.668 628.782 393.195 630.383C393.732 631.973 394 633.622 394 635.328C394 637.561 393.574 639.668 392.721 641.648C391.867 643.618 390.688 645.35 389.182 646.846C387.675 648.342 385.937 649.516 383.968 650.369C381.998 651.223 379.897 651.649 377.664 651.649C375.431 651.649 373.329 651.223 371.36 650.369C369.39 649.516 367.652 648.342 366.146 646.846C364.65 645.35 363.476 643.618 362.623 641.648C361.769 639.668 361.343 637.561 361.343 635.328ZM372.655 641.822C371.823 641.822 371.017 641.632 370.238 641.253C369.458 640.863 368.958 640.279 368.737 639.499C368.674 639.289 368.642 639.078 368.642 638.867C368.642 638.551 368.737 638.304 368.927 638.125C369.127 637.935 369.385 637.84 369.701 637.84C369.943 637.84 370.154 637.909 370.333 638.046C370.512 638.172 370.659 638.351 370.775 638.583C370.912 638.983 371.133 639.304 371.439 639.547C371.744 639.789 372.15 639.91 372.655 639.91C373.192 639.91 373.624 639.752 373.951 639.436C374.288 639.11 374.456 638.678 374.456 638.141C374.456 637.487 374.262 637.019 373.872 636.734C373.493 636.45 372.998 636.308 372.387 636.308H371.96C371.676 636.308 371.449 636.239 371.281 636.102C371.123 635.955 371.044 635.739 371.044 635.455C371.044 635.202 371.123 634.996 371.281 634.838C371.439 634.68 371.665 634.601 371.96 634.601H372.355C372.903 634.601 373.345 634.449 373.682 634.143C374.03 633.827 374.204 633.401 374.204 632.863C374.204 632.379 374.061 631.989 373.777 631.694C373.493 631.389 373.108 631.236 372.624 631.236C372.202 631.236 371.849 631.347 371.565 631.568C371.281 631.789 371.07 632.116 370.933 632.548C370.838 632.821 370.701 633.016 370.522 633.132C370.354 633.248 370.133 633.306 369.859 633.306C369.511 633.306 369.258 633.216 369.1 633.037C368.942 632.848 368.863 632.616 368.863 632.342C368.863 632.131 368.89 631.942 368.942 631.773C369.111 631.068 369.537 630.494 370.222 630.051C370.917 629.598 371.707 629.372 372.592 629.372C373.687 629.372 374.604 629.651 375.341 630.209C376.078 630.767 376.447 631.557 376.447 632.579C376.447 633.274 376.247 633.875 375.847 634.38C375.457 634.875 374.925 635.202 374.251 635.36V635.391C374.957 635.465 375.568 635.739 376.084 636.213C376.6 636.676 376.858 637.356 376.858 638.251C376.858 639.01 376.668 639.652 376.289 640.179C375.91 640.705 375.399 641.111 374.757 641.395C374.125 641.68 373.424 641.822 372.655 641.822ZM382.704 641.822C381.661 641.822 380.829 641.522 380.207 640.921C379.596 640.31 379.149 639.526 378.864 638.567C378.591 637.609 378.454 636.608 378.454 635.565C378.454 634.786 378.527 634.027 378.675 633.29C378.833 632.553 379.075 631.884 379.402 631.284C379.728 630.683 380.16 630.209 380.697 629.862C381.245 629.503 381.914 629.324 382.704 629.324C383.746 629.324 384.579 629.63 385.2 630.241C385.821 630.841 386.264 631.621 386.527 632.579C386.801 633.527 386.938 634.522 386.938 635.565C386.938 636.345 386.864 637.108 386.717 637.856C386.569 638.604 386.327 639.278 385.99 639.878C385.653 640.468 385.216 640.942 384.679 641.3C384.141 641.648 383.483 641.822 382.704 641.822ZM382.704 639.91C383.104 639.91 383.436 639.726 383.699 639.357C383.973 638.978 384.178 638.462 384.315 637.809C384.452 637.156 384.521 636.408 384.521 635.565C384.521 634.733 384.452 633.996 384.315 633.353C384.178 632.7 383.973 632.189 383.699 631.821C383.436 631.452 383.104 631.268 382.704 631.268C382.303 631.268 381.966 631.452 381.693 631.821C381.419 632.179 381.213 632.684 381.076 633.337C380.95 633.991 380.887 634.733 380.887 635.565C380.887 636.408 380.95 637.156 381.076 637.809C381.213 638.462 381.419 638.978 381.693 639.357C381.966 639.726 382.303 639.91 382.704 639.91Z" fill="#EFE9D1"/>
<path d="M105.887 519.588V516.545H120.223V519.588H114.879V534H111.231V519.588H105.887ZM126.146 526.432V534H122.515V516.545H126.044V523.219H126.197C126.493 522.446 126.97 521.841 127.629 521.403C128.288 520.96 129.115 520.739 130.109 520.739C131.018 520.739 131.811 520.938 132.487 521.335C133.169 521.727 133.697 522.293 134.072 523.031C134.453 523.764 134.64 524.642 134.635 525.665V534H131.004V526.312C131.01 525.506 130.805 524.878 130.39 524.429C129.981 523.98 129.407 523.756 128.669 523.756C128.174 523.756 127.737 523.861 127.356 524.071C126.981 524.281 126.686 524.588 126.47 524.991C126.26 525.389 126.152 525.869 126.146 526.432ZM143.458 534.256C142.111 534.256 140.952 533.983 139.98 533.438C139.015 532.886 138.27 532.108 137.748 531.102C137.225 530.091 136.963 528.895 136.963 527.514C136.963 526.168 137.225 524.986 137.748 523.969C138.27 522.952 139.006 522.159 139.955 521.591C140.909 521.023 142.029 520.739 143.313 520.739C144.176 520.739 144.98 520.878 145.725 521.156C146.475 521.429 147.128 521.841 147.685 522.392C148.248 522.943 148.685 523.636 148.998 524.472C149.31 525.301 149.466 526.273 149.466 527.386V528.384H138.412V526.134H146.049C146.049 525.611 145.935 525.148 145.708 524.744C145.48 524.341 145.165 524.026 144.762 523.798C144.364 523.565 143.901 523.449 143.373 523.449C142.821 523.449 142.333 523.577 141.907 523.832C141.486 524.082 141.157 524.42 140.918 524.847C140.679 525.267 140.557 525.736 140.551 526.253V528.392C140.551 529.04 140.671 529.599 140.909 530.071C141.154 530.543 141.498 530.906 141.941 531.162C142.384 531.418 142.909 531.545 143.517 531.545C143.921 531.545 144.29 531.489 144.625 531.375C144.961 531.261 145.248 531.091 145.486 530.864C145.725 530.636 145.907 530.358 146.032 530.028L149.39 530.25C149.219 531.057 148.87 531.761 148.341 532.364C147.819 532.96 147.142 533.426 146.313 533.761C145.489 534.091 144.537 534.256 143.458 534.256ZM160.612 516.545L164.831 529.807H164.993L169.22 516.545H173.311L167.294 534H162.538L156.512 516.545H160.612ZM179.833 534.256C178.486 534.256 177.327 533.983 176.355 533.438C175.39 532.886 174.645 532.108 174.123 531.102C173.6 530.091 173.338 528.895 173.338 527.514C173.338 526.168 173.6 524.986 174.123 523.969C174.645 522.952 175.381 522.159 176.33 521.591C177.284 521.023 178.404 520.739 179.688 520.739C180.551 520.739 181.355 520.878 182.1 521.156C182.85 521.429 183.503 521.841 184.06 522.392C184.623 522.943 185.06 523.636 185.373 524.472C185.685 525.301 185.841 526.273 185.841 527.386V528.384H174.787V526.134H182.424C182.424 525.611 182.31 525.148 182.083 524.744C181.855 524.341 181.54 524.026 181.137 523.798C180.739 523.565 180.276 523.449 179.748 523.449C179.196 523.449 178.708 523.577 178.282 523.832C177.861 524.082 177.532 524.42 177.293 524.847C177.054 525.267 176.932 525.736 176.926 526.253V528.392C176.926 529.04 177.046 529.599 177.284 530.071C177.529 530.543 177.873 530.906 178.316 531.162C178.759 531.418 179.284 531.545 179.892 531.545C180.296 531.545 180.665 531.489 181 531.375C181.336 531.261 181.623 531.091 181.861 530.864C182.1 530.636 182.282 530.358 182.407 530.028L185.765 530.25C185.594 531.057 185.245 531.761 184.716 532.364C184.194 532.96 183.517 533.426 182.688 533.761C181.864 534.091 180.912 534.256 179.833 534.256ZM195.174 520.909V523.636H187.29V520.909H195.174ZM189.08 517.773H192.711V529.977C192.711 530.312 192.762 530.574 192.864 530.761C192.966 530.943 193.108 531.071 193.29 531.145C193.478 531.219 193.694 531.256 193.938 531.256C194.108 531.256 194.279 531.241 194.449 531.213C194.62 531.179 194.75 531.153 194.841 531.136L195.412 533.838C195.23 533.895 194.975 533.96 194.645 534.034C194.316 534.114 193.915 534.162 193.444 534.179C192.569 534.213 191.801 534.097 191.142 533.83C190.489 533.562 189.98 533.148 189.617 532.585C189.253 532.023 189.074 531.312 189.08 530.455V517.773ZM203.162 516.545H207.713L212.52 528.273H212.724L217.531 516.545H222.082V534H218.502V522.639H218.358L213.841 533.915H211.403L206.886 522.597H206.741V534H203.162V516.545ZM228.787 534.247C227.952 534.247 227.208 534.102 226.554 533.812C225.901 533.517 225.384 533.082 225.003 532.509C224.628 531.929 224.441 531.207 224.441 530.344C224.441 529.616 224.574 529.006 224.841 528.511C225.108 528.017 225.472 527.619 225.932 527.318C226.392 527.017 226.915 526.79 227.5 526.636C228.091 526.483 228.711 526.375 229.358 526.312C230.12 526.233 230.733 526.159 231.199 526.091C231.665 526.017 232.003 525.909 232.213 525.767C232.424 525.625 232.529 525.415 232.529 525.136V525.085C232.529 524.545 232.358 524.128 232.017 523.832C231.682 523.537 231.205 523.389 230.586 523.389C229.932 523.389 229.412 523.534 229.026 523.824C228.64 524.108 228.384 524.466 228.259 524.898L224.901 524.625C225.071 523.83 225.407 523.142 225.907 522.562C226.407 521.977 227.051 521.528 227.841 521.216C228.637 520.898 229.557 520.739 230.603 520.739C231.33 520.739 232.026 520.824 232.691 520.994C233.361 521.165 233.955 521.429 234.472 521.787C234.995 522.145 235.407 522.605 235.708 523.168C236.009 523.724 236.159 524.392 236.159 525.17V534H232.716V532.185H232.614C232.404 532.594 232.123 532.955 231.77 533.267C231.418 533.574 230.995 533.815 230.5 533.991C230.006 534.162 229.435 534.247 228.787 534.247ZM229.827 531.741C230.361 531.741 230.833 531.636 231.242 531.426C231.651 531.21 231.972 530.92 232.205 530.557C232.438 530.193 232.554 529.781 232.554 529.321V527.932C232.441 528.006 232.284 528.074 232.086 528.136C231.892 528.193 231.674 528.247 231.429 528.298C231.185 528.344 230.941 528.386 230.696 528.426C230.452 528.46 230.23 528.491 230.032 528.52C229.605 528.582 229.233 528.682 228.915 528.818C228.597 528.955 228.35 529.139 228.174 529.372C227.998 529.599 227.909 529.884 227.909 530.224C227.909 530.719 228.088 531.097 228.446 531.358C228.81 531.614 229.27 531.741 229.827 531.741ZM238.976 534V520.909H242.496V523.193H242.632C242.871 522.381 243.272 521.767 243.834 521.352C244.397 520.932 245.044 520.722 245.777 520.722C245.959 520.722 246.155 520.733 246.365 520.756C246.576 520.778 246.76 520.81 246.919 520.849V524.071C246.749 524.02 246.513 523.974 246.212 523.935C245.911 523.895 245.635 523.875 245.385 523.875C244.851 523.875 244.374 523.991 243.953 524.224C243.539 524.452 243.209 524.77 242.965 525.179C242.726 525.588 242.607 526.06 242.607 526.594V534H238.976ZM252.086 530.233L252.095 525.878H252.623L256.816 520.909H260.984L255.35 527.489H254.49L252.086 530.233ZM248.797 534V516.545H252.427V534H248.797ZM256.978 534L253.126 528.298L255.547 525.733L261.231 534H256.978ZM268.192 534.256C266.846 534.256 265.686 533.983 264.715 533.438C263.749 532.886 263.005 532.108 262.482 531.102C261.959 530.091 261.698 528.895 261.698 527.514C261.698 526.168 261.959 524.986 262.482 523.969C263.005 522.952 263.74 522.159 264.689 521.591C265.644 521.023 266.763 520.739 268.047 520.739C268.911 520.739 269.715 520.878 270.459 521.156C271.209 521.429 271.863 521.841 272.419 522.392C272.982 522.943 273.419 523.636 273.732 524.472C274.044 525.301 274.201 526.273 274.201 527.386V528.384H263.147V526.134H270.783C270.783 525.611 270.669 525.148 270.442 524.744C270.215 524.341 269.9 524.026 269.496 523.798C269.098 523.565 268.635 523.449 268.107 523.449C267.556 523.449 267.067 523.577 266.641 523.832C266.221 524.082 265.891 524.42 265.652 524.847C265.414 525.267 265.292 525.736 265.286 526.253V528.392C265.286 529.04 265.405 529.599 265.644 530.071C265.888 530.543 266.232 530.906 266.675 531.162C267.118 531.418 267.644 531.545 268.252 531.545C268.655 531.545 269.025 531.489 269.36 531.375C269.695 531.261 269.982 531.091 270.221 530.864C270.459 530.636 270.641 530.358 270.766 530.028L274.124 530.25C273.953 531.057 273.604 531.761 273.076 532.364C272.553 532.96 271.877 533.426 271.047 533.761C270.223 534.091 269.272 534.256 268.192 534.256ZM283.533 520.909V523.636H275.65V520.909H283.533ZM277.439 517.773H281.07V529.977C281.07 530.312 281.121 530.574 281.223 530.761C281.326 530.943 281.468 531.071 281.65 531.145C281.837 531.219 282.053 531.256 282.297 531.256C282.468 531.256 282.638 531.241 282.809 531.213C282.979 531.179 283.11 531.153 283.201 531.136L283.772 533.838C283.59 533.895 283.334 533.96 283.005 534.034C282.675 534.114 282.275 534.162 281.803 534.179C280.928 534.213 280.161 534.097 279.502 533.83C278.848 533.562 278.34 533.148 277.976 532.585C277.613 532.023 277.434 531.312 277.439 530.455V517.773ZM285.898 534V520.909H289.529V534H285.898ZM287.722 519.222C287.182 519.222 286.719 519.043 286.333 518.685C285.952 518.321 285.762 517.886 285.762 517.381C285.762 516.881 285.952 516.452 286.333 516.094C286.719 515.73 287.182 515.548 287.722 515.548C288.262 515.548 288.722 515.73 289.103 516.094C289.489 516.452 289.682 516.881 289.682 517.381C289.682 517.886 289.489 518.321 289.103 518.685C288.722 519.043 288.262 519.222 287.722 519.222ZM296.068 526.432V534H292.437V520.909H295.897V523.219H296.051C296.341 522.457 296.826 521.855 297.508 521.412C298.19 520.963 299.017 520.739 299.988 520.739C300.897 520.739 301.69 520.938 302.366 521.335C303.042 521.733 303.568 522.301 303.943 523.04C304.318 523.773 304.505 524.648 304.505 525.665V534H300.875V526.312C300.88 525.511 300.676 524.886 300.261 524.438C299.846 523.983 299.275 523.756 298.548 523.756C298.059 523.756 297.627 523.861 297.252 524.071C296.883 524.281 296.593 524.588 296.383 524.991C296.179 525.389 296.074 525.869 296.068 526.432ZM313.265 539.182C312.088 539.182 311.08 539.02 310.239 538.696C309.404 538.378 308.739 537.943 308.245 537.392C307.75 536.841 307.429 536.222 307.282 535.534L310.64 535.082C310.742 535.344 310.904 535.588 311.125 535.815C311.347 536.043 311.64 536.224 312.003 536.361C312.373 536.503 312.821 536.574 313.35 536.574C314.14 536.574 314.79 536.381 315.301 535.994C315.819 535.614 316.077 534.974 316.077 534.077V531.682H315.924C315.765 532.045 315.526 532.389 315.208 532.713C314.89 533.037 314.48 533.301 313.98 533.506C313.48 533.71 312.884 533.812 312.191 533.812C311.208 533.812 310.313 533.585 309.506 533.131C308.705 532.67 308.066 531.969 307.588 531.026C307.117 530.077 306.881 528.878 306.881 527.429C306.881 525.946 307.123 524.707 307.605 523.713C308.088 522.719 308.73 521.974 309.532 521.48C310.338 520.986 311.222 520.739 312.182 520.739C312.915 520.739 313.529 520.864 314.023 521.114C314.517 521.358 314.915 521.665 315.216 522.034C315.523 522.398 315.759 522.756 315.924 523.108H316.06V520.909H319.665V534.128C319.665 535.241 319.392 536.173 318.847 536.923C318.301 537.673 317.546 538.236 316.58 538.611C315.62 538.991 314.515 539.182 313.265 539.182ZM313.341 531.085C313.926 531.085 314.421 530.94 314.824 530.651C315.233 530.355 315.546 529.935 315.762 529.389C315.983 528.838 316.094 528.179 316.094 527.412C316.094 526.645 315.986 525.98 315.77 525.418C315.554 524.849 315.242 524.409 314.833 524.097C314.424 523.784 313.926 523.628 313.341 523.628C312.745 523.628 312.242 523.79 311.833 524.114C311.424 524.432 311.114 524.875 310.904 525.443C310.694 526.011 310.588 526.668 310.588 527.412C310.588 528.168 310.694 528.821 310.904 529.372C311.12 529.918 311.429 530.341 311.833 530.642C312.242 530.937 312.745 531.085 313.341 531.085ZM328.177 534V516.545H335.064C336.387 516.545 337.515 516.798 338.447 517.304C339.379 517.804 340.089 518.5 340.578 519.392C341.072 520.278 341.319 521.301 341.319 522.46C341.319 523.619 341.069 524.642 340.569 525.528C340.069 526.415 339.345 527.105 338.396 527.599C337.453 528.094 336.311 528.341 334.97 528.341H330.581V525.384H334.373C335.083 525.384 335.669 525.261 336.129 525.017C336.595 524.767 336.941 524.423 337.169 523.986C337.402 523.543 337.518 523.034 337.518 522.46C337.518 521.881 337.402 521.375 337.169 520.943C336.941 520.506 336.595 520.168 336.129 519.929C335.663 519.685 335.072 519.562 334.356 519.562H331.868V534H328.177ZM349.352 534.256C348.028 534.256 346.883 533.974 345.917 533.412C344.957 532.844 344.216 532.054 343.693 531.043C343.17 530.026 342.909 528.847 342.909 527.506C342.909 526.153 343.17 524.972 343.693 523.96C344.216 522.943 344.957 522.153 345.917 521.591C346.883 521.023 348.028 520.739 349.352 520.739C350.676 520.739 351.818 521.023 352.778 521.591C353.744 522.153 354.488 522.943 355.011 523.96C355.534 524.972 355.795 526.153 355.795 527.506C355.795 528.847 355.534 530.026 355.011 531.043C354.488 532.054 353.744 532.844 352.778 533.412C351.818 533.974 350.676 534.256 349.352 534.256ZM349.369 531.443C349.971 531.443 350.474 531.273 350.877 530.932C351.281 530.585 351.585 530.114 351.789 529.517C352 528.92 352.105 528.241 352.105 527.48C352.105 526.719 352 526.04 351.789 525.443C351.585 524.847 351.281 524.375 350.877 524.028C350.474 523.682 349.971 523.509 349.369 523.509C348.761 523.509 348.25 523.682 347.835 524.028C347.426 524.375 347.116 524.847 346.906 525.443C346.701 526.04 346.599 526.719 346.599 527.48C346.599 528.241 346.701 528.92 346.906 529.517C347.116 530.114 347.426 530.585 347.835 530.932C348.25 531.273 348.761 531.443 349.369 531.443ZM362.98 534.213C361.985 534.213 361.085 533.957 360.278 533.446C359.477 532.929 358.841 532.17 358.369 531.17C357.903 530.165 357.67 528.932 357.67 527.472C357.67 525.972 357.912 524.724 358.395 523.73C358.877 522.73 359.52 521.983 360.321 521.489C361.127 520.989 362.011 520.739 362.971 520.739C363.704 520.739 364.315 520.864 364.804 521.114C365.298 521.358 365.696 521.665 365.997 522.034C366.304 522.398 366.537 522.756 366.696 523.108H366.806V516.545H370.429V534H366.849V531.903H366.696C366.525 532.267 366.284 532.628 365.971 532.986C365.664 533.338 365.264 533.631 364.77 533.864C364.281 534.097 363.684 534.213 362.98 534.213ZM364.13 531.324C364.716 531.324 365.21 531.165 365.613 530.847C366.022 530.523 366.335 530.071 366.551 529.491C366.772 528.912 366.883 528.233 366.883 527.455C366.883 526.676 366.775 526 366.559 525.426C366.343 524.852 366.031 524.409 365.622 524.097C365.213 523.784 364.716 523.628 364.13 523.628C363.534 523.628 363.031 523.79 362.622 524.114C362.213 524.437 361.903 524.886 361.693 525.46C361.483 526.034 361.377 526.699 361.377 527.455C361.377 528.216 361.483 528.889 361.693 529.474C361.909 530.054 362.218 530.509 362.622 530.838C363.031 531.162 363.534 531.324 364.13 531.324Z" fill="white"/>
<path d="M48.3793 565V547.545H54.4815C55.6974 547.545 56.7003 547.756 57.4901 548.176C58.2798 548.591 58.8679 549.151 59.2543 549.855C59.6406 550.554 59.8338 551.33 59.8338 552.182C59.8338 552.932 59.7003 553.551 59.4332 554.04C59.1719 554.528 58.8253 554.915 58.3935 555.199C57.9673 555.483 57.5043 555.693 57.0043 555.83V556C57.5384 556.034 58.0753 556.222 58.6151 556.562C59.1548 556.903 59.6065 557.392 59.9702 558.028C60.3338 558.665 60.5156 559.443 60.5156 560.364C60.5156 561.239 60.3168 562.026 59.919 562.724C59.5213 563.423 58.8935 563.977 58.0355 564.386C57.1776 564.795 56.0611 565 54.6861 565H48.3793ZM50.4929 563.125H54.6861C56.0668 563.125 57.0469 562.858 57.6264 562.324C58.2116 561.784 58.5043 561.131 58.5043 560.364C58.5043 559.773 58.3537 559.227 58.0526 558.727C57.7514 558.222 57.3224 557.818 56.7656 557.517C56.2088 557.21 55.5497 557.057 54.7884 557.057H50.4929V563.125ZM50.4929 555.216H54.4134C55.0497 555.216 55.6236 555.091 56.1349 554.841C56.652 554.591 57.0611 554.239 57.3622 553.784C57.669 553.33 57.8224 552.795 57.8224 552.182C57.8224 551.415 57.5554 550.764 57.0213 550.23C56.4872 549.69 55.6406 549.42 54.4815 549.42H50.4929V555.216ZM71.9659 559.648V551.909H73.9773V565H71.9659V562.784H71.8295C71.5227 563.449 71.0455 564.014 70.3977 564.48C69.75 564.94 68.9318 565.17 67.9432 565.17C67.125 565.17 66.3977 564.991 65.7614 564.634C65.125 564.27 64.625 563.724 64.2614 562.997C63.8977 562.264 63.7159 561.341 63.7159 560.227V551.909H65.7273V560.091C65.7273 561.045 65.9943 561.807 66.5284 562.375C67.0682 562.943 67.7557 563.227 68.5909 563.227C69.0909 563.227 69.5994 563.099 70.1165 562.844C70.6392 562.588 71.0767 562.196 71.429 561.668C71.7869 561.139 71.9659 560.466 71.9659 559.648ZM77.6612 565V551.909H79.6726V565H77.6612ZM78.6839 549.727C78.2919 549.727 77.9538 549.594 77.6697 549.327C77.3913 549.06 77.2521 548.739 77.2521 548.364C77.2521 547.989 77.3913 547.668 77.6697 547.401C77.9538 547.134 78.2919 547 78.6839 547C79.076 547 79.4112 547.134 79.6896 547.401C79.9737 547.668 80.1158 547.989 80.1158 548.364C80.1158 548.739 79.9737 549.06 79.6896 549.327C79.4112 549.594 79.076 549.727 78.6839 549.727ZM85.3679 547.545V565H83.3565V547.545H85.3679ZM93.995 565.273C92.9041 565.273 91.9411 564.997 91.1058 564.446C90.2706 563.889 89.6172 563.105 89.1456 562.094C88.674 561.077 88.4382 559.875 88.4382 558.489C88.4382 557.114 88.674 555.92 89.1456 554.909C89.6172 553.898 90.2734 553.116 91.1143 552.565C91.9553 552.014 92.9268 551.739 94.0291 551.739C94.8814 551.739 95.5547 551.881 96.049 552.165C96.549 552.443 96.9297 552.761 97.1911 553.119C97.4581 553.472 97.6655 553.761 97.8132 553.989H97.9837V547.545H99.995V565H98.0518V562.989H97.8132C97.6655 563.227 97.4553 563.528 97.1825 563.892C96.9098 564.25 96.5206 564.571 96.0149 564.855C95.5092 565.134 94.8359 565.273 93.995 565.273ZM94.2678 563.466C95.0746 563.466 95.7564 563.256 96.3132 562.835C96.87 562.409 97.2933 561.821 97.5831 561.071C97.8729 560.315 98.0178 559.443 98.0178 558.455C98.0178 557.477 97.8757 556.622 97.5916 555.889C97.3075 555.151 96.8871 554.577 96.3303 554.168C95.7734 553.753 95.0859 553.545 94.2678 553.545C93.4155 553.545 92.7053 553.764 92.1371 554.202C91.5746 554.634 91.1513 555.222 90.8672 555.966C90.5888 556.705 90.4496 557.534 90.4496 558.455C90.4496 559.386 90.5916 560.233 90.8757 560.994C91.1655 561.75 91.5916 562.352 92.1541 562.801C92.7223 563.244 93.4268 563.466 94.2678 563.466ZM103.958 565V551.909H105.969V565H103.958ZM104.981 549.727C104.589 549.727 104.251 549.594 103.967 549.327C103.688 549.06 103.549 548.739 103.549 548.364C103.549 547.989 103.688 547.668 103.967 547.401C104.251 547.134 104.589 547 104.981 547C105.373 547 105.708 547.134 105.987 547.401C106.271 547.668 106.413 547.989 106.413 548.364C106.413 548.739 106.271 549.06 105.987 549.327C105.708 549.594 105.373 549.727 104.981 549.727ZM111.665 557.125V565H109.653V551.909H111.597V553.955H111.767C112.074 553.29 112.54 552.756 113.165 552.352C113.79 551.943 114.597 551.739 115.585 551.739C116.472 551.739 117.247 551.92 117.912 552.284C118.577 552.642 119.094 553.188 119.463 553.92C119.832 554.648 120.017 555.568 120.017 556.682V565H118.006V556.818C118.006 555.79 117.739 554.989 117.205 554.415C116.67 553.835 115.938 553.545 115.006 553.545C114.364 553.545 113.79 553.685 113.284 553.963C112.784 554.241 112.389 554.648 112.099 555.182C111.81 555.716 111.665 556.364 111.665 557.125ZM128.977 570.182C128.005 570.182 127.17 570.057 126.471 569.807C125.772 569.562 125.19 569.239 124.724 568.835C124.263 568.438 123.897 568.011 123.624 567.557L125.227 566.432C125.408 566.67 125.638 566.943 125.917 567.25C126.195 567.562 126.576 567.832 127.059 568.06C127.548 568.293 128.187 568.409 128.977 568.409C130.033 568.409 130.906 568.153 131.593 567.642C132.281 567.131 132.624 566.33 132.624 565.239V562.58H132.454C132.306 562.818 132.096 563.114 131.823 563.466C131.556 563.812 131.17 564.122 130.664 564.395C130.164 564.662 129.488 564.795 128.636 564.795C127.579 564.795 126.63 564.545 125.789 564.045C124.954 563.545 124.292 562.818 123.803 561.864C123.32 560.909 123.079 559.75 123.079 558.386C123.079 557.045 123.315 555.878 123.786 554.884C124.258 553.884 124.914 553.111 125.755 552.565C126.596 552.014 127.567 551.739 128.67 551.739C129.522 551.739 130.198 551.881 130.698 552.165C131.204 552.443 131.59 552.761 131.857 553.119C132.13 553.472 132.34 553.761 132.488 553.989H132.692V551.909H134.636V565.375C134.636 566.5 134.38 567.415 133.869 568.119C133.363 568.83 132.681 569.349 131.823 569.679C130.971 570.014 130.022 570.182 128.977 570.182ZM128.908 562.989C129.715 562.989 130.397 562.804 130.954 562.435C131.511 562.065 131.934 561.534 132.224 560.841C132.513 560.148 132.658 559.318 132.658 558.352C132.658 557.409 132.516 556.577 132.232 555.855C131.948 555.134 131.528 554.568 130.971 554.159C130.414 553.75 129.727 553.545 128.908 553.545C128.056 553.545 127.346 553.761 126.778 554.193C126.215 554.625 125.792 555.205 125.508 555.932C125.229 556.659 125.09 557.466 125.09 558.352C125.09 559.261 125.232 560.065 125.516 560.764C125.806 561.457 126.232 562.003 126.795 562.401C127.363 562.793 128.067 562.989 128.908 562.989ZM148.92 565.307C148.09 565.307 147.337 565.151 146.661 564.838C145.985 564.52 145.448 564.062 145.05 563.466C144.653 562.864 144.454 562.136 144.454 561.284C144.454 560.534 144.602 559.926 144.897 559.46C145.192 558.989 145.587 558.619 146.082 558.352C146.576 558.085 147.121 557.886 147.718 557.756C148.32 557.619 148.925 557.511 149.533 557.432C150.329 557.33 150.974 557.253 151.468 557.202C151.968 557.145 152.332 557.051 152.559 556.92C152.792 556.79 152.908 556.562 152.908 556.239V556.17C152.908 555.33 152.678 554.676 152.218 554.21C151.763 553.744 151.073 553.511 150.147 553.511C149.187 553.511 148.434 553.722 147.888 554.142C147.343 554.562 146.96 555.011 146.738 555.489L144.829 554.807C145.17 554.011 145.624 553.392 146.192 552.949C146.766 552.5 147.391 552.187 148.067 552.011C148.749 551.83 149.42 551.739 150.079 551.739C150.499 551.739 150.982 551.79 151.528 551.892C152.079 551.989 152.61 552.19 153.121 552.497C153.638 552.804 154.067 553.267 154.408 553.886C154.749 554.506 154.92 555.335 154.92 556.375V565H152.908V563.227H152.806C152.67 563.511 152.442 563.815 152.124 564.139C151.806 564.463 151.383 564.739 150.854 564.966C150.326 565.193 149.681 565.307 148.92 565.307ZM149.227 563.5C150.022 563.5 150.692 563.344 151.238 563.031C151.789 562.719 152.204 562.315 152.482 561.821C152.766 561.327 152.908 560.807 152.908 560.261V558.42C152.823 558.523 152.636 558.616 152.346 558.702C152.062 558.781 151.732 558.852 151.357 558.915C150.988 558.972 150.627 559.023 150.275 559.068C149.928 559.108 149.647 559.142 149.431 559.17C148.908 559.239 148.42 559.349 147.965 559.503C147.516 559.651 147.153 559.875 146.874 560.176C146.602 560.472 146.465 560.875 146.465 561.386C146.465 562.085 146.724 562.614 147.241 562.972C147.763 563.324 148.425 563.5 149.227 563.5ZM170.761 565.239C169.761 565.239 168.861 565.04 168.06 564.642C167.259 564.244 166.616 563.699 166.134 563.006C165.651 562.312 165.386 561.523 165.341 560.636H167.386C167.466 561.426 167.824 562.08 168.46 562.597C169.102 563.108 169.869 563.364 170.761 563.364C171.477 563.364 172.114 563.196 172.67 562.861C173.233 562.526 173.673 562.065 173.991 561.48C174.315 560.889 174.477 560.222 174.477 559.477C174.477 558.716 174.31 558.037 173.974 557.44C173.645 556.838 173.19 556.364 172.611 556.017C172.031 555.67 171.369 555.494 170.625 555.489C170.091 555.483 169.543 555.565 168.98 555.736C168.418 555.901 167.955 556.114 167.591 556.375L165.614 556.136L166.67 547.545H175.739V549.42H168.443L167.83 554.568H167.932C168.29 554.284 168.739 554.048 169.278 553.861C169.818 553.673 170.381 553.58 170.966 553.58C172.034 553.58 172.986 553.835 173.821 554.347C174.662 554.852 175.321 555.545 175.798 556.426C176.281 557.307 176.523 558.312 176.523 559.443C176.523 560.557 176.273 561.551 175.773 562.426C175.278 563.295 174.597 563.983 173.727 564.489C172.858 564.989 171.869 565.239 170.761 565.239ZM187.442 555.335V557.21H179.806V555.335H187.442ZM191.254 565V547.545H193.368V563.125H201.482V565H191.254ZM209.8 565.273C208.618 565.273 207.581 564.991 206.689 564.429C205.803 563.866 205.109 563.08 204.609 562.068C204.115 561.057 203.868 559.875 203.868 558.523C203.868 557.159 204.115 555.969 204.609 554.952C205.109 553.935 205.803 553.145 206.689 552.582C207.581 552.02 208.618 551.739 209.8 551.739C210.982 551.739 212.016 552.02 212.902 552.582C213.794 553.145 214.487 553.935 214.982 554.952C215.482 555.969 215.732 557.159 215.732 558.523C215.732 559.875 215.482 561.057 214.982 562.068C214.487 563.08 213.794 563.866 212.902 564.429C212.016 564.991 210.982 565.273 209.8 565.273ZM209.8 563.466C210.697 563.466 211.436 563.236 212.016 562.776C212.595 562.315 213.024 561.71 213.303 560.96C213.581 560.21 213.72 559.398 213.72 558.523C213.72 557.648 213.581 556.832 213.303 556.077C213.024 555.321 212.595 554.71 212.016 554.244C211.436 553.778 210.697 553.545 209.8 553.545C208.902 553.545 208.163 553.778 207.584 554.244C207.004 554.71 206.575 555.321 206.297 556.077C206.018 556.832 205.879 557.648 205.879 558.523C205.879 559.398 206.018 560.21 206.297 560.96C206.575 561.71 207.004 562.315 207.584 562.776C208.163 563.236 208.902 563.466 209.8 563.466ZM224.12 565.273C222.893 565.273 221.836 564.983 220.95 564.403C220.063 563.824 219.381 563.026 218.904 562.009C218.427 560.991 218.188 559.83 218.188 558.523C218.188 557.193 218.433 556.02 218.921 555.003C219.415 553.98 220.103 553.182 220.984 552.608C221.87 552.028 222.904 551.739 224.086 551.739C225.006 551.739 225.836 551.909 226.575 552.25C227.313 552.591 227.918 553.068 228.39 553.682C228.862 554.295 229.154 555.011 229.268 555.83H227.256C227.103 555.233 226.762 554.705 226.234 554.244C225.711 553.778 225.006 553.545 224.12 553.545C223.336 553.545 222.648 553.75 222.058 554.159C221.472 554.562 221.015 555.134 220.685 555.872C220.362 556.605 220.2 557.466 220.2 558.455C220.2 559.466 220.359 560.347 220.677 561.097C221.001 561.847 221.455 562.429 222.04 562.844C222.631 563.259 223.325 563.466 224.12 563.466C224.643 563.466 225.117 563.375 225.543 563.193C225.969 563.011 226.33 562.75 226.626 562.409C226.921 562.068 227.131 561.659 227.256 561.182H229.268C229.154 561.955 228.873 562.651 228.424 563.27C227.981 563.884 227.393 564.372 226.66 564.736C225.933 565.094 225.086 565.273 224.12 565.273ZM236.06 565.307C235.231 565.307 234.478 565.151 233.802 564.838C233.126 564.52 232.589 564.062 232.191 563.466C231.793 562.864 231.594 562.136 231.594 561.284C231.594 560.534 231.742 559.926 232.038 559.46C232.333 558.989 232.728 558.619 233.222 558.352C233.717 558.085 234.262 557.886 234.859 557.756C235.461 557.619 236.066 557.511 236.674 557.432C237.469 557.33 238.114 557.253 238.609 557.202C239.109 557.145 239.472 557.051 239.7 556.92C239.933 556.79 240.049 556.562 240.049 556.239V556.17C240.049 555.33 239.819 554.676 239.359 554.21C238.904 553.744 238.214 553.511 237.288 553.511C236.327 553.511 235.575 553.722 235.029 554.142C234.484 554.562 234.1 555.011 233.879 555.489L231.969 554.807C232.31 554.011 232.765 553.392 233.333 552.949C233.907 552.5 234.532 552.187 235.208 552.011C235.89 551.83 236.56 551.739 237.219 551.739C237.64 551.739 238.123 551.79 238.668 551.892C239.219 551.989 239.751 552.19 240.262 552.497C240.779 552.804 241.208 553.267 241.549 553.886C241.89 554.506 242.06 555.335 242.06 556.375V565H240.049V563.227H239.947C239.81 563.511 239.583 563.815 239.265 564.139C238.947 564.463 238.523 564.739 237.995 564.966C237.467 565.193 236.822 565.307 236.06 565.307ZM236.367 563.5C237.163 563.5 237.833 563.344 238.379 563.031C238.93 562.719 239.344 562.315 239.623 561.821C239.907 561.327 240.049 560.807 240.049 560.261V558.42C239.964 558.523 239.776 558.616 239.487 558.702C239.202 558.781 238.873 558.852 238.498 558.915C238.129 558.972 237.768 559.023 237.415 559.068C237.069 559.108 236.788 559.142 236.572 559.17C236.049 559.239 235.56 559.349 235.106 559.503C234.657 559.651 234.293 559.875 234.015 560.176C233.742 560.472 233.606 560.875 233.606 561.386C233.606 562.085 233.864 562.614 234.381 562.972C234.904 563.324 235.566 563.5 236.367 563.5ZM251.425 551.909V553.614H244.641V551.909H251.425ZM246.618 548.773H248.629V561.25C248.629 561.818 248.712 562.244 248.876 562.528C249.047 562.807 249.263 562.994 249.524 563.091C249.791 563.182 250.072 563.227 250.368 563.227C250.589 563.227 250.771 563.216 250.913 563.193C251.055 563.165 251.169 563.142 251.254 563.125L251.663 564.932C251.527 564.983 251.337 565.034 251.092 565.085C250.848 565.142 250.538 565.17 250.163 565.17C249.595 565.17 249.038 565.048 248.493 564.804C247.953 564.56 247.504 564.188 247.146 563.688C246.794 563.188 246.618 562.557 246.618 561.795V548.773ZM254.45 565V551.909H256.462V565H254.45ZM255.473 549.727C255.081 549.727 254.743 549.594 254.459 549.327C254.18 549.06 254.041 548.739 254.041 548.364C254.041 547.989 254.18 547.668 254.459 547.401C254.743 547.134 255.081 547 255.473 547C255.865 547 256.2 547.134 256.479 547.401C256.763 547.668 256.905 547.989 256.905 548.364C256.905 548.739 256.763 549.06 256.479 549.327C256.2 549.594 255.865 549.727 255.473 549.727ZM265.464 565.273C264.282 565.273 263.245 564.991 262.353 564.429C261.467 563.866 260.773 563.08 260.273 562.068C259.779 561.057 259.532 559.875 259.532 558.523C259.532 557.159 259.779 555.969 260.273 554.952C260.773 553.935 261.467 553.145 262.353 552.582C263.245 552.02 264.282 551.739 265.464 551.739C266.646 551.739 267.68 552.02 268.566 552.582C269.458 553.145 270.151 553.935 270.646 554.952C271.146 555.969 271.396 557.159 271.396 558.523C271.396 559.875 271.146 561.057 270.646 562.068C270.151 563.08 269.458 563.866 268.566 564.429C267.68 564.991 266.646 565.273 265.464 565.273ZM265.464 563.466C266.362 563.466 267.1 563.236 267.68 562.776C268.259 562.315 268.688 561.71 268.967 560.96C269.245 560.21 269.384 559.398 269.384 558.523C269.384 557.648 269.245 556.832 268.967 556.077C268.688 555.321 268.259 554.71 267.68 554.244C267.1 553.778 266.362 553.545 265.464 553.545C264.566 553.545 263.827 553.778 263.248 554.244C262.668 554.71 262.239 555.321 261.961 556.077C261.683 556.832 261.543 557.648 261.543 558.523C261.543 559.398 261.683 560.21 261.961 560.96C262.239 561.71 262.668 562.315 263.248 562.776C263.827 563.236 264.566 563.466 265.464 563.466ZM276.477 557.125V565H274.466V551.909H276.409V553.955H276.58C276.886 553.29 277.352 552.756 277.977 552.352C278.602 551.943 279.409 551.739 280.398 551.739C281.284 551.739 282.06 551.92 282.724 552.284C283.389 552.642 283.906 553.188 284.276 553.92C284.645 554.648 284.83 555.568 284.83 556.682V565H282.818V556.818C282.818 555.79 282.551 554.989 282.017 554.415C281.483 553.835 280.75 553.545 279.818 553.545C279.176 553.545 278.602 553.685 278.097 553.963C277.597 554.241 277.202 554.648 276.912 555.182C276.622 555.716 276.477 556.364 276.477 557.125ZM296.244 547.545L301.425 562.239H301.63L306.812 547.545H309.028L302.619 565H300.437L294.028 547.545H296.244ZM315.744 565.273C314.482 565.273 313.394 564.994 312.479 564.438C311.57 563.875 310.869 563.091 310.374 562.085C309.886 561.074 309.641 559.898 309.641 558.557C309.641 557.216 309.886 556.034 310.374 555.011C310.869 553.983 311.556 553.182 312.437 552.608C313.323 552.028 314.357 551.739 315.539 551.739C316.221 551.739 316.894 551.852 317.559 552.08C318.224 552.307 318.829 552.676 319.374 553.188C319.92 553.693 320.354 554.364 320.678 555.199C321.002 556.034 321.164 557.062 321.164 558.284V559.136H311.073V557.398H319.119C319.119 556.659 318.971 556 318.675 555.42C318.386 554.841 317.971 554.384 317.431 554.048C316.897 553.713 316.266 553.545 315.539 553.545C314.738 553.545 314.045 553.744 313.46 554.142C312.88 554.534 312.434 555.045 312.121 555.676C311.809 556.307 311.653 556.983 311.653 557.705V558.864C311.653 559.852 311.823 560.69 312.164 561.378C312.511 562.06 312.991 562.58 313.604 562.938C314.218 563.29 314.931 563.466 315.744 563.466C316.272 563.466 316.749 563.392 317.175 563.244C317.607 563.091 317.979 562.864 318.292 562.562C318.604 562.256 318.846 561.875 319.016 561.42L320.96 561.966C320.755 562.625 320.411 563.205 319.928 563.705C319.445 564.199 318.849 564.585 318.138 564.864C317.428 565.136 316.63 565.273 315.744 565.273ZM329.917 551.909V553.614H323.133V551.909H329.917ZM325.11 548.773H327.121V561.25C327.121 561.818 327.204 562.244 327.369 562.528C327.539 562.807 327.755 562.994 328.016 563.091C328.283 563.182 328.565 563.227 328.86 563.227C329.082 563.227 329.263 563.216 329.406 563.193C329.548 563.165 329.661 563.142 329.746 563.125L330.156 564.932C330.019 564.983 329.829 565.034 329.585 565.085C329.34 565.142 329.031 565.17 328.656 565.17C328.087 565.17 327.531 565.048 326.985 564.804C326.445 564.56 325.996 564.188 325.638 563.688C325.286 563.188 325.11 562.557 325.11 561.795V548.773ZM339.965 565V547.545H345.863C347.232 547.545 348.352 547.793 349.221 548.287C350.096 548.776 350.744 549.438 351.164 550.273C351.585 551.108 351.795 552.04 351.795 553.068C351.795 554.097 351.585 555.031 351.164 555.872C350.749 556.713 350.107 557.384 349.238 557.884C348.369 558.378 347.255 558.625 345.897 558.625H341.67V556.75H345.829C346.766 556.75 347.519 556.588 348.087 556.264C348.656 555.94 349.067 555.503 349.323 554.952C349.585 554.395 349.715 553.767 349.715 553.068C349.715 552.369 349.585 551.744 349.323 551.193C349.067 550.642 348.653 550.21 348.079 549.898C347.505 549.58 346.744 549.42 345.795 549.42H342.079V565H339.965ZM354.927 565V551.909H356.87V553.886H357.006C357.245 553.239 357.677 552.713 358.302 552.31C358.927 551.906 359.631 551.705 360.415 551.705C360.563 551.705 360.748 551.707 360.969 551.713C361.191 551.719 361.359 551.727 361.472 551.739V553.784C361.404 553.767 361.248 553.741 361.004 553.707C360.765 553.668 360.512 553.648 360.245 553.648C359.609 553.648 359.04 553.781 358.54 554.048C358.046 554.31 357.654 554.673 357.364 555.139C357.08 555.599 356.938 556.125 356.938 556.716V565H354.927ZM367.709 565.307C366.879 565.307 366.126 565.151 365.45 564.838C364.774 564.52 364.237 564.062 363.839 563.466C363.442 562.864 363.243 562.136 363.243 561.284C363.243 560.534 363.391 559.926 363.686 559.46C363.982 558.989 364.376 558.619 364.871 558.352C365.365 558.085 365.911 557.886 366.507 557.756C367.109 557.619 367.714 557.511 368.322 557.432C369.118 557.33 369.763 557.253 370.257 557.202C370.757 557.145 371.121 557.051 371.348 556.92C371.581 556.79 371.697 556.562 371.697 556.239V556.17C371.697 555.33 371.467 554.676 371.007 554.21C370.553 553.744 369.862 553.511 368.936 553.511C367.976 553.511 367.223 553.722 366.678 554.142C366.132 554.562 365.749 555.011 365.527 555.489L363.618 554.807C363.959 554.011 364.413 553.392 364.982 552.949C365.555 552.5 366.18 552.187 366.857 552.011C367.538 551.83 368.209 551.739 368.868 551.739C369.288 551.739 369.771 551.79 370.317 551.892C370.868 551.989 371.399 552.19 371.911 552.497C372.428 552.804 372.857 553.267 373.197 553.886C373.538 554.506 373.709 555.335 373.709 556.375V565H371.697V563.227H371.595C371.459 563.511 371.232 563.815 370.913 564.139C370.595 564.463 370.172 564.739 369.643 564.966C369.115 565.193 368.47 565.307 367.709 565.307ZM368.016 563.5C368.811 563.5 369.482 563.344 370.027 563.031C370.578 562.719 370.993 562.315 371.271 561.821C371.555 561.327 371.697 560.807 371.697 560.261V558.42C371.612 558.523 371.425 558.616 371.135 558.702C370.851 558.781 370.521 558.852 370.146 558.915C369.777 558.972 369.416 559.023 369.064 559.068C368.717 559.108 368.436 559.142 368.22 559.17C367.697 559.239 367.209 559.349 366.754 559.503C366.305 559.651 365.942 559.875 365.663 560.176C365.391 560.472 365.254 560.875 365.254 561.386C365.254 562.085 365.513 562.614 366.03 562.972C366.553 563.324 367.214 563.5 368.016 563.5ZM382.698 565.273C381.471 565.273 380.414 564.983 379.528 564.403C378.641 563.824 377.96 563.026 377.482 562.009C377.005 560.991 376.766 559.83 376.766 558.523C376.766 557.193 377.011 556.02 377.499 555.003C377.994 553.98 378.681 553.182 379.562 552.608C380.448 552.028 381.482 551.739 382.664 551.739C383.585 551.739 384.414 551.909 385.153 552.25C385.891 552.591 386.496 553.068 386.968 553.682C387.44 554.295 387.732 555.011 387.846 555.83H385.835C385.681 555.233 385.34 554.705 384.812 554.244C384.289 553.778 383.585 553.545 382.698 553.545C381.914 553.545 381.227 553.75 380.636 554.159C380.05 554.562 379.593 555.134 379.263 555.872C378.94 556.605 378.778 557.466 378.778 558.455C378.778 559.466 378.937 560.347 379.255 561.097C379.579 561.847 380.033 562.429 380.619 562.844C381.21 563.259 381.903 563.466 382.698 563.466C383.221 563.466 383.695 563.375 384.121 563.193C384.548 563.011 384.908 562.75 385.204 562.409C385.499 562.068 385.71 561.659 385.835 561.182H387.846C387.732 561.955 387.451 562.651 387.002 563.27C386.559 563.884 385.971 564.372 385.238 564.736C384.511 565.094 383.664 565.273 382.698 565.273ZM396.479 551.909V553.614H389.695V551.909H396.479ZM391.673 548.773H393.684V561.25C393.684 561.818 393.766 562.244 393.931 562.528C394.102 562.807 394.317 562.994 394.579 563.091C394.846 563.182 395.127 563.227 395.423 563.227C395.644 563.227 395.826 563.216 395.968 563.193C396.11 563.165 396.224 563.142 396.309 563.125L396.718 564.932C396.582 564.983 396.391 565.034 396.147 565.085C395.903 565.142 395.593 565.17 395.218 565.17C394.65 565.17 394.093 565.048 393.548 564.804C393.008 564.56 392.559 564.188 392.201 563.688C391.849 563.188 391.673 562.557 391.673 561.795V548.773ZM399.505 565V551.909H401.516V565H399.505ZM400.528 549.727C400.136 549.727 399.798 549.594 399.513 549.327C399.235 549.06 399.096 548.739 399.096 548.364C399.096 547.989 399.235 547.668 399.513 547.401C399.798 547.134 400.136 547 400.528 547C400.92 547 401.255 547.134 401.533 547.401C401.817 547.668 401.96 547.989 401.96 548.364C401.96 548.739 401.817 549.06 401.533 549.327C401.255 549.594 400.92 549.727 400.528 549.727ZM410.518 565.273C409.291 565.273 408.234 564.983 407.348 564.403C406.462 563.824 405.78 563.026 405.303 562.009C404.825 560.991 404.587 559.83 404.587 558.523C404.587 557.193 404.831 556.02 405.32 555.003C405.814 553.98 406.501 553.182 407.382 552.608C408.268 552.028 409.303 551.739 410.484 551.739C411.405 551.739 412.234 551.909 412.973 552.25C413.712 552.591 414.317 553.068 414.788 553.682C415.26 554.295 415.553 555.011 415.666 555.83H413.655C413.501 555.233 413.161 554.705 412.632 554.244C412.109 553.778 411.405 553.545 410.518 553.545C409.734 553.545 409.047 553.75 408.456 554.159C407.871 554.562 407.413 555.134 407.084 555.872C406.76 556.605 406.598 557.466 406.598 558.455C406.598 559.466 406.757 560.347 407.075 561.097C407.399 561.847 407.854 562.429 408.439 562.844C409.03 563.259 409.723 563.466 410.518 563.466C411.041 563.466 411.516 563.375 411.942 563.193C412.368 563.011 412.729 562.75 413.024 562.409C413.32 562.068 413.53 561.659 413.655 561.182H415.666C415.553 561.955 415.271 562.651 414.822 563.27C414.379 563.884 413.791 564.372 413.058 564.736C412.331 565.094 411.484 565.273 410.518 565.273ZM424.095 565.273C422.834 565.273 421.746 564.994 420.831 564.438C419.922 563.875 419.22 563.091 418.726 562.085C418.237 561.074 417.993 559.898 417.993 558.557C417.993 557.216 418.237 556.034 418.726 555.011C419.22 553.983 419.908 553.182 420.788 552.608C421.675 552.028 422.709 551.739 423.891 551.739C424.572 551.739 425.246 551.852 425.911 552.08C426.575 552.307 427.18 552.676 427.726 553.188C428.271 553.693 428.706 554.364 429.03 555.199C429.354 556.034 429.516 557.062 429.516 558.284V559.136H419.425V557.398H427.47C427.47 556.659 427.322 556 427.027 555.42C426.737 554.841 426.322 554.384 425.783 554.048C425.249 553.713 424.618 553.545 423.891 553.545C423.089 553.545 422.396 553.744 421.811 554.142C421.232 554.534 420.786 555.045 420.473 555.676C420.161 556.307 420.004 556.983 420.004 557.705V558.864C420.004 559.852 420.175 560.69 420.516 561.378C420.862 562.06 421.342 562.58 421.956 562.938C422.57 563.29 423.283 563.466 424.095 563.466C424.624 563.466 425.101 563.392 425.527 563.244C425.959 563.091 426.331 562.864 426.643 562.562C426.956 562.256 427.197 561.875 427.368 561.42L429.311 561.966C429.107 562.625 428.763 563.205 428.28 563.705C427.797 564.199 427.2 564.585 426.49 564.864C425.78 565.136 424.982 565.273 424.095 565.273Z" fill="#EFE9D1"/>
<rect x="42.582" y="42.293" width="392.753" height="392.753" rx="10" fill="#EFE9D1"/>
<path d="M43 469.5L435 469.5" stroke="#EFE9D1" stroke-width="8" stroke-linecap="round"/>
<circle cx="42.5" cy="469.5" r="9.5" fill="#EFE9D1"/>
<path d="M45 48.5517C45 46.5901 46.5901 45 48.5517 45H428.448C430.41 45 432 46.5901 432 48.5517V428.448C432 430.41 430.41 432 428.448 432H48.5517C46.5901 432 45 430.41 45 428.448V48.5517Z" fill="#EFE9D1"/>
<path d="M243.87 367.035C245.294 361.676 247.938 351.724 242.272 350.219C236.607 348.713 232.664 355.534 230.097 360.261C227.53 364.989 227.73 372.254 233.549 373.8C239.367 375.346 242.446 372.394 243.87 367.035Z" fill="#D9D0AC"/>
<path d="M262.753 371.232C264.217 365.72 262.024 355.466 257.277 354.205C253.603 353.229 249.904 359.131 249.05 362.346C248.195 365.561 245.185 376.892 251.769 378.641C258.353 380.39 261.288 376.744 262.753 371.232Z" fill="#D9D0AC"/>
<path d="M259.543 385.788C259.754 381.91 267.939 371.463 272.798 372.918C277.544 374.179 275.718 385.988 274.548 389.775C273.378 393.562 268.94 394.842 264.959 393.784C260.978 392.726 259.332 389.666 259.543 385.788Z" fill="#D9D0AC"/>
<path d="M209.597 372.026C210.346 365.505 216.686 357.682 220.514 358.699C225.873 360.123 225.578 372.338 224.602 376.013C223.625 379.688 219.331 381.661 216.422 380.888C213.513 380.115 208.848 378.548 209.597 372.026Z" fill="#D9D0AC"/>
<path d="M256.488 415.793C271.073 406.554 250.171 382.806 242.056 380.65C222.458 375.443 204.284 398.809 211.396 409.059C216.337 416.179 228.758 412.196 233.433 413.11C238.107 414.024 241.904 425.032 256.488 415.793Z" fill="#D9D0AC"/>
<path d="M342.877 272.841C344.301 267.482 346.945 257.529 341.28 256.024C335.615 254.519 331.672 261.34 329.105 266.067C326.537 270.794 326.738 278.06 332.556 279.606C338.374 281.152 341.454 278.199 342.877 272.841Z" fill="#D9D0AC"/>
<path d="M361.76 277.038C363.225 271.526 361.031 261.272 356.285 260.011C352.61 259.034 348.911 264.936 348.057 268.152C347.203 271.367 344.193 282.697 350.777 284.446C357.36 286.196 360.296 282.55 361.76 277.038Z" fill="#D9D0AC"/>
<path d="M358.551 291.594C358.761 287.716 366.946 277.269 371.805 278.724C376.552 279.985 374.726 291.793 373.555 295.581C372.385 299.368 367.947 300.647 363.967 299.59C359.986 298.532 358.34 295.472 358.551 291.594Z" fill="#D9D0AC"/>
<path d="M308.604 277.832C309.353 271.311 315.694 263.488 319.521 264.505C324.88 265.928 324.586 278.144 323.609 281.819C322.633 285.493 318.339 287.467 315.429 286.694C312.52 285.921 307.855 284.354 308.604 277.832Z" fill="#D9D0AC"/>
<path d="M355.496 321.599C370.08 312.36 349.179 288.612 341.064 286.456C321.466 281.249 303.292 304.615 310.404 314.864C315.345 321.985 327.766 318.002 332.44 318.916C337.115 319.83 340.911 330.837 355.496 321.599Z" fill="#D9D0AC"/>
<path d="M299.32 158.248C300.744 152.889 303.388 142.937 297.723 141.432C292.058 139.927 288.115 146.748 285.547 151.475C282.98 156.202 283.181 163.468 288.999 165.014C294.817 166.559 297.896 163.607 299.32 158.248Z" fill="#D9D0AC"/>
<path d="M318.203 162.446C319.667 156.934 317.474 146.68 312.728 145.419C309.053 144.442 305.354 150.344 304.5 153.56C303.646 156.775 300.635 168.105 307.219 169.854C313.803 171.603 316.739 167.958 318.203 162.446Z" fill="#D9D0AC"/>
<path d="M314.993 177.002C315.204 173.124 323.389 162.677 328.248 164.131C332.994 165.392 331.168 177.201 329.998 180.988C328.828 184.775 324.39 186.055 320.409 184.998C316.428 183.94 314.782 180.88 314.993 177.002Z" fill="#D9D0AC"/>
<path d="M265.047 163.24C265.796 156.718 272.136 148.896 275.964 149.912C281.323 151.336 281.028 163.552 280.052 167.226C279.076 170.901 274.781 172.875 271.872 172.102C268.963 171.329 264.298 169.762 265.047 163.24Z" fill="#D9D0AC"/>
<path d="M311.938 207.007C326.523 197.768 305.622 174.02 297.507 171.864C277.908 166.657 259.734 190.023 266.847 200.272C271.788 207.393 284.208 203.409 288.883 204.324C293.558 205.238 297.354 216.245 311.938 207.007Z" fill="#D9D0AC"/>
<path d="M389.935 65.2953C391.359 59.9364 394.003 49.9841 388.338 48.479C382.673 46.9739 378.73 53.7945 376.163 58.5218C373.595 63.249 373.796 70.5148 379.614 72.0605C385.432 73.6063 388.512 70.6542 389.935 65.2953Z" fill="#D9D0AC"/>
<path d="M408.818 69.4925C410.283 63.9805 408.089 53.7265 403.343 52.4655C399.668 51.4892 395.969 57.3911 395.115 60.6065C394.261 63.8218 391.251 75.1521 397.835 76.9013C404.418 78.6504 407.354 75.0045 408.818 69.4925Z" fill="#D9D0AC"/>
<path d="M405.609 84.0489C405.819 80.1708 414.004 69.7235 418.863 71.1784C423.61 72.4394 421.784 84.2482 420.613 88.0353C419.443 91.8224 415.005 93.1022 411.025 92.0445C407.044 90.9869 405.398 87.9269 405.609 84.0489Z" fill="#D9D0AC"/>
<path d="M355.662 70.287C356.411 63.7653 362.752 55.9424 366.579 56.9594C371.938 58.3831 371.643 70.5987 370.667 74.2734C369.691 77.9481 365.396 79.9216 362.487 79.1488C359.578 78.3759 354.913 76.8086 355.662 70.287Z" fill="#D9D0AC"/>
<path d="M402.554 114.053C417.138 104.815 396.237 81.0667 388.122 78.9107C368.524 73.7039 350.35 97.0697 357.462 107.319C362.403 114.44 374.823 110.456 379.498 111.37C384.173 112.285 387.969 123.292 402.554 114.053Z" fill="#D9D0AC"/>
<path fill-rule="evenodd" clip-rule="evenodd" d="M151.471 89.4341C139.637 89.4341 128.553 95.585 124.751 98.4998C122.123 100.514 118.497 99.8215 116.652 96.9523C114.807 94.0832 115.442 90.1241 118.069 88.1096C123.153 84.2122 136.535 76.7385 151.471 76.7385C170.163 76.7385 182.601 84.5599 190.653 93.3947C197.614 101.033 201.197 109.39 202.698 112.891C202.819 113.174 202.927 113.425 203.022 113.641C203.092 113.709 203.198 113.805 203.349 113.929C203.902 114.384 204.749 114.958 205.914 115.626C208.237 116.958 211.267 118.354 214.467 119.702C217.118 120.819 219.752 121.848 222.059 122.75C222.519 122.93 222.966 123.105 223.398 123.274C224.669 123.773 225.846 124.241 226.779 124.64C227.245 124.84 227.71 125.047 228.127 125.254C228.441 125.41 229.1 125.742 229.721 126.226C230.736 127.018 231.295 127.968 231.531 128.403C231.821 128.935 232.024 129.449 232.166 129.857C232.452 130.682 232.655 131.567 232.802 132.417C233.1 134.147 233.257 136.279 233.184 138.643C233.039 143.379 231.96 149.481 228.81 155.542C222.263 168.137 207.886 178.613 180.115 178.613C175.921 178.613 173.28 180.089 171.707 181.776C170.083 183.518 169.242 185.857 169.232 188.243C169.221 190.626 170.038 192.938 171.634 194.655C173.182 196.321 175.829 197.811 180.115 197.811C183.326 197.811 185.929 200.653 185.929 204.159C185.929 207.665 183.326 210.507 180.115 210.507C173.198 210.507 167.48 208.01 163.471 203.696C159.51 199.433 157.58 193.772 157.604 188.181C157.629 182.594 159.606 176.959 163.558 172.72C167.559 168.428 173.248 165.917 180.115 165.917C205.093 165.917 214.822 156.731 218.697 149.276C220.758 145.311 221.469 141.292 221.563 138.219C221.589 137.384 221.568 136.651 221.524 136.04C220.934 135.8 220.246 135.528 219.465 135.222C219.056 135.061 218.624 134.893 218.174 134.717C215.868 133.815 213.078 132.725 210.281 131.546C206.958 130.146 203.431 128.542 200.507 126.865C199.048 126.029 197.6 125.095 196.354 124.071C195.223 123.141 193.707 121.698 192.782 119.677C192.592 119.263 192.381 118.776 192.143 118.228C190.571 114.607 187.831 108.298 182.41 102.349C176.352 95.7017 166.811 89.4341 151.471 89.4341ZM223.426 136.869C223.426 136.869 223.411 136.862 223.387 136.848C223.414 136.862 223.426 136.869 223.426 136.869Z" fill="#E69A53"/>
<path d="M181.536 119.313C181.536 124.272 177.854 128.293 173.312 128.293C168.769 128.293 165.087 124.272 165.087 119.313C165.087 114.353 168.769 110.333 173.312 110.333C177.854 110.333 181.536 114.353 181.536 119.313Z" fill="#E69A53"/>
<path fill-rule="evenodd" clip-rule="evenodd" d="M92.9104 105.07C92.9104 101.564 95.5134 98.7223 98.7242 98.7223C102.963 98.7223 106.756 99.7721 109.856 102.163C112.972 104.566 114.828 107.892 115.889 111.333C117.883 117.807 117.36 125.779 116.698 132.332C116.484 134.446 116.255 136.432 116.04 138.296C115.514 142.858 115.072 146.689 115.145 149.872C115.168 150.886 115.246 151.651 115.351 152.208C115.355 152.228 115.359 152.248 115.362 152.267C116.124 152.095 117.299 151.458 118.94 149.5C121.019 147.019 123.156 143.207 125.324 138.309C128.434 131.283 131.16 123.126 133.791 115.254C134.86 112.055 135.913 108.904 136.97 105.894C138.119 102.621 141.482 100.984 144.48 102.24C147.478 103.495 148.976 107.166 147.827 110.439C146.915 113.034 145.951 115.919 144.936 118.956C142.235 127.037 139.175 136.193 135.793 143.834C133.447 149.134 130.727 154.241 127.518 158.07C124.332 161.871 119.951 165.229 114.395 165.009C110.574 164.857 107.424 162.884 105.546 159.415C103.959 156.485 103.586 153.033 103.521 150.187C103.425 145.974 104.039 140.657 104.61 135.717C104.801 134.063 104.987 132.452 105.14 130.939C105.825 124.171 105.94 118.859 104.868 115.381C104.395 113.847 103.792 113.029 103.148 112.533C102.488 112.024 101.221 111.418 98.7242 111.418C95.5134 111.418 92.9104 108.576 92.9104 105.07Z" fill="#E69A53"/>
<path d="M94.8576 243.537H116.367C116.897 243.537 117.333 243.452 117.674 243.281C118.034 243.111 118.346 242.94 118.611 242.77C118.895 242.599 119.17 242.514 119.435 242.514C119.757 242.514 120.013 242.599 120.202 242.77C120.392 242.94 120.543 243.243 120.657 243.679L122.532 253.055C122.608 253.377 122.589 253.643 122.476 253.851C122.381 254.04 122.21 254.164 121.964 254.22C121.718 254.258 121.5 254.23 121.311 254.135C121.121 254.021 120.96 253.823 120.828 253.538C119.88 251.171 119.038 249.39 118.299 248.197C117.56 247.003 116.812 246.208 116.054 245.81C115.296 245.412 114.406 245.213 113.383 245.213H108.865V280.219C108.865 280.56 108.97 280.834 109.178 281.043C109.386 281.232 109.699 281.374 110.116 281.469L112.275 281.81C112.787 281.943 113.042 282.208 113.042 282.606C113.042 283.079 112.73 283.316 112.105 283.316H99.2901C98.9491 283.316 98.7029 283.25 98.5513 283.117C98.3998 282.984 98.324 282.814 98.324 282.606C98.324 282.208 98.5797 281.943 99.0912 281.81L101.251 281.469C101.667 281.374 101.98 281.232 102.188 281.043C102.416 280.834 102.529 280.56 102.529 280.219V245.213H97.9831C96.9602 245.213 96.0699 245.422 95.3122 245.838C94.5545 246.255 93.8063 247.06 93.0675 248.254C92.3288 249.447 91.4858 251.209 90.5387 253.538C90.4251 253.823 90.264 254.021 90.0557 254.135C89.8662 254.23 89.6579 254.258 89.4306 254.22C89.1654 254.164 88.9854 254.04 88.8907 253.851C88.796 253.643 88.7771 253.377 88.8339 253.055L90.7376 243.679C90.8323 243.243 90.9744 242.94 91.1638 242.77C91.3532 242.599 91.6089 242.514 91.931 242.514C92.1962 242.514 92.4519 242.599 92.6981 242.77C92.9444 242.94 93.238 243.111 93.579 243.281C93.9199 243.452 94.3461 243.537 94.8576 243.537Z" fill="#385A37"/>
<path d="M134.864 242.486V280.304C134.864 280.721 134.94 281.033 135.092 281.242C135.262 281.45 135.508 281.592 135.83 281.668L137.279 281.952C137.734 282.085 137.961 282.312 137.961 282.634C137.961 283.089 137.658 283.316 137.052 283.316H126.88C126.596 283.316 126.378 283.259 126.227 283.145C126.075 283.013 125.999 282.852 125.999 282.662C125.999 282.492 126.056 282.35 126.17 282.236C126.302 282.122 126.501 282.028 126.766 281.952L128.272 281.668C128.594 281.592 128.831 281.45 128.983 281.242C129.153 281.033 129.238 280.73 129.238 280.332V245.895C129.238 245.592 129.182 245.374 129.068 245.242C128.954 245.09 128.774 245.005 128.528 244.986L126.482 244.929C126.255 244.91 126.094 244.853 125.999 244.759C125.905 244.645 125.857 244.512 125.857 244.361C125.857 244.19 125.914 244.048 126.028 243.935C126.141 243.821 126.34 243.717 126.624 243.622L132.137 241.86C132.553 241.709 132.885 241.605 133.131 241.548C133.396 241.472 133.643 241.434 133.87 241.434C134.192 241.434 134.438 241.529 134.609 241.718C134.779 241.908 134.864 242.164 134.864 242.486ZM134.211 263.739L133.415 262.943L134.552 261.949C136.635 260.093 138.425 258.767 139.922 257.971C141.418 257.175 142.858 256.778 144.241 256.778C146.324 256.778 147.944 257.469 149.1 258.852C150.255 260.235 150.975 262.176 151.259 264.677L153.191 280.162C153.248 280.617 153.352 280.967 153.504 281.213C153.674 281.46 153.949 281.621 154.328 281.696L155.635 281.98C155.881 282.037 156.051 282.122 156.146 282.236C156.26 282.35 156.317 282.492 156.317 282.662C156.317 282.852 156.25 283.013 156.118 283.145C155.985 283.259 155.767 283.316 155.464 283.316H145.15C144.544 283.316 144.241 283.089 144.241 282.634C144.241 282.331 144.459 282.104 144.894 281.952L146.429 281.668C146.807 281.592 147.082 281.431 147.253 281.185C147.442 280.939 147.518 280.598 147.48 280.162L145.661 265.444C145.415 263.568 144.932 262.176 144.212 261.267C143.512 260.358 142.479 259.903 141.115 259.903C140.244 259.903 139.335 260.14 138.388 260.613C137.459 261.087 136.437 261.807 135.319 262.773L134.211 263.739Z" fill="#385A37"/>
<path d="M182.187 267.319C182.187 267.906 182.007 268.361 181.647 268.683C181.287 269.005 180.757 269.166 180.056 269.166H162.127V267.887H175.396C176.097 267.887 176.447 267.565 176.447 266.921C176.447 264.156 175.917 262.034 174.856 260.557C173.795 259.079 172.403 258.34 170.679 258.34C169.259 258.34 168.027 258.748 166.985 259.562C165.944 260.377 165.139 261.551 164.57 263.085C164.002 264.62 163.718 266.457 163.718 268.598C163.718 272.405 164.589 275.303 166.332 277.292C168.094 279.262 170.386 280.247 173.208 280.247C175.083 280.247 176.703 279.783 178.067 278.855C179.449 277.908 180.368 276.639 180.823 275.048C180.974 274.82 181.107 274.669 181.221 274.593C181.334 274.498 181.457 274.451 181.59 274.451C181.779 274.451 181.912 274.536 181.988 274.707C182.082 274.858 182.12 275.048 182.101 275.275C181.969 276.885 181.41 278.353 180.425 279.679C179.459 280.986 178.171 282.028 176.561 282.804C174.951 283.562 173.132 283.941 171.105 283.941C168.605 283.941 166.408 283.401 164.513 282.321C162.619 281.242 161.142 279.726 160.081 277.775C159.02 275.805 158.49 273.504 158.49 270.871C158.49 268.162 159.011 265.747 160.052 263.625C161.113 261.504 162.61 259.837 164.542 258.624C166.474 257.393 168.757 256.778 171.39 256.778C173.587 256.778 175.491 257.232 177.101 258.141C178.711 259.032 179.961 260.272 180.851 261.864C181.742 263.436 182.187 265.254 182.187 267.319Z" fill="#385A37"/>
<path d="M221.771 244.247C221.771 244.02 221.847 243.849 221.998 243.736C222.169 243.603 222.415 243.537 222.737 243.537H231.772C232.113 243.537 232.36 243.603 232.511 243.736C232.682 243.849 232.767 244.01 232.767 244.219C232.767 244.389 232.71 244.531 232.596 244.645C232.483 244.759 232.274 244.863 231.971 244.958L230.749 245.355C230.181 245.564 229.698 245.914 229.3 246.407C228.903 246.899 228.543 247.666 228.221 248.708L218.105 279.054C217.973 279.49 217.869 279.868 217.793 280.19C217.736 280.493 217.708 280.825 217.708 281.185V282.435C217.708 282.719 217.632 282.937 217.48 283.089C217.348 283.24 217.149 283.316 216.884 283.316H211.684C211.4 283.316 211.182 283.24 211.03 283.089C210.879 282.937 210.803 282.71 210.803 282.407V281.185C210.803 280.901 210.765 280.617 210.689 280.332C210.633 280.029 210.528 279.679 210.377 279.281L199.296 246.804C199.144 246.35 198.983 246.028 198.813 245.838C198.642 245.63 198.396 245.469 198.074 245.355L196.71 245.014C196.199 244.825 195.943 244.569 195.943 244.247C195.943 244.02 196.028 243.849 196.199 243.736C196.369 243.603 196.615 243.537 196.937 243.537H209.24C209.581 243.537 209.828 243.603 209.979 243.736C210.15 243.849 210.235 244.02 210.235 244.247C210.235 244.437 210.159 244.588 210.008 244.702C209.875 244.797 209.676 244.891 209.411 244.986L206.854 245.355C206.399 245.45 206.124 245.639 206.03 245.924C205.935 246.189 205.982 246.624 206.172 247.231L217.168 279.679L215.463 281.242L226.317 248.623C226.601 247.733 226.629 247.022 226.402 246.492C226.175 245.962 225.569 245.564 224.584 245.299L222.538 244.958C222.292 244.882 222.102 244.797 221.97 244.702C221.837 244.588 221.771 244.437 221.771 244.247Z" fill="#385A37"/>
<path d="M255.607 267.319C255.607 267.906 255.427 268.361 255.067 268.683C254.707 269.005 254.177 269.166 253.476 269.166H235.547V267.887H248.816C249.517 267.887 249.867 267.565 249.867 266.921C249.867 264.156 249.337 262.034 248.276 260.557C247.215 259.079 245.823 258.34 244.099 258.34C242.679 258.34 241.447 258.748 240.406 259.562C239.364 260.377 238.559 261.551 237.99 263.085C237.422 264.62 237.138 266.457 237.138 268.598C237.138 272.405 238.009 275.303 239.752 277.292C241.514 279.262 243.806 280.247 246.628 280.247C248.503 280.247 250.123 279.783 251.487 278.855C252.87 277.908 253.788 276.639 254.243 275.048C254.395 274.82 254.527 274.669 254.641 274.593C254.754 274.498 254.878 274.451 255.01 274.451C255.2 274.451 255.332 274.536 255.408 274.707C255.503 274.858 255.541 275.048 255.522 275.275C255.389 276.885 254.83 278.353 253.845 279.679C252.879 280.986 251.591 282.028 249.981 282.804C248.371 283.562 246.552 283.941 244.526 283.941C242.025 283.941 239.828 283.401 237.934 282.321C236.039 281.242 234.562 279.726 233.501 277.775C232.44 275.805 231.91 273.504 231.91 270.871C231.91 268.162 232.431 265.747 233.473 263.625C234.533 261.504 236.03 259.837 237.962 258.624C239.894 257.393 242.177 256.778 244.81 256.778C247.007 256.778 248.911 257.232 250.521 258.141C252.131 259.032 253.381 260.272 254.271 261.864C255.162 263.436 255.607 265.254 255.607 267.319Z" fill="#385A37"/>
<path d="M261.2 259.164L259.268 258.738C258.946 258.643 258.718 258.539 258.586 258.426C258.453 258.293 258.387 258.151 258.387 257.999C258.387 257.791 258.463 257.639 258.614 257.545C258.766 257.431 258.955 257.374 259.183 257.374H261.285C261.664 257.374 261.967 257.317 262.194 257.204C262.422 257.071 262.621 256.853 262.791 256.55L265.746 252.004C265.954 251.701 266.153 251.483 266.343 251.351C266.551 251.199 266.769 251.123 266.996 251.123C267.224 251.123 267.404 251.199 267.536 251.351C267.669 251.502 267.735 251.711 267.735 251.976V276.781C267.735 278.145 268.01 279.177 268.559 279.878C269.108 280.56 269.876 280.901 270.861 280.901C271.429 280.901 271.893 280.815 272.253 280.645C272.632 280.456 272.944 280.219 273.19 279.935C273.437 279.651 273.664 279.376 273.872 279.111C274.081 278.827 274.308 278.59 274.554 278.4C274.706 278.362 274.838 278.4 274.952 278.514C275.066 278.609 275.113 278.789 275.094 279.054C274.98 279.944 274.64 280.749 274.071 281.469C273.522 282.189 272.793 282.757 271.883 283.174C270.974 283.591 269.913 283.799 268.701 283.799C266.674 283.799 265.074 283.287 263.899 282.265C262.744 281.242 262.166 279.688 262.166 277.605V260.386C262.166 260.045 262.09 259.78 261.939 259.591C261.806 259.401 261.56 259.259 261.2 259.164ZM265.434 258.965L265.49 257.374H274.1C274.384 257.374 274.592 257.422 274.725 257.516C274.876 257.611 274.952 257.763 274.952 257.971C274.952 258.255 274.801 258.492 274.497 258.681C274.213 258.871 273.768 258.965 273.162 258.965H265.434Z" fill="#385A37"/>
<path d="M112.872 329.602L111.195 330.596L122.476 301.927C122.684 301.34 122.93 300.932 123.214 300.705C123.517 300.478 123.925 300.364 124.436 300.364H131.596C131.918 300.364 132.165 300.43 132.335 300.563C132.506 300.677 132.591 300.847 132.591 301.074C132.591 301.264 132.524 301.425 132.392 301.557C132.278 301.671 132.079 301.766 131.795 301.842L129.721 302.268C129.191 302.381 128.821 302.59 128.613 302.893C128.405 303.177 128.329 303.641 128.386 304.285L130.772 336.62C130.81 337.169 130.924 337.557 131.113 337.785C131.322 337.993 131.682 338.154 132.193 338.268L134.182 338.665C134.447 338.722 134.637 338.817 134.75 338.95C134.883 339.063 134.949 339.215 134.949 339.404C134.949 339.613 134.864 339.793 134.693 339.944C134.542 340.077 134.296 340.143 133.955 340.143H121.225C120.884 340.143 120.629 340.077 120.458 339.944C120.288 339.812 120.202 339.641 120.202 339.433C120.202 339.243 120.259 339.092 120.373 338.978C120.506 338.845 120.723 338.741 121.026 338.665L122.987 338.268C123.593 338.135 124 337.955 124.209 337.728C124.417 337.482 124.502 337.122 124.465 336.648L121.993 304.569L123.498 304.427L111.309 335.966C111.12 336.478 110.921 336.819 110.712 336.989C110.523 337.141 110.305 337.216 110.059 337.216C109.869 337.216 109.689 337.188 109.519 337.131C109.367 337.055 109.225 336.932 109.093 336.762C108.96 336.572 108.818 336.288 108.667 335.909L96.0225 305.024L97.4432 304.143L94.9712 335.54C94.9144 336.26 95.0754 336.828 95.4543 337.245C95.852 337.643 96.4203 337.955 97.1591 338.182L99.4037 338.722C99.6121 338.798 99.7731 338.893 99.8868 339.006C100.019 339.101 100.086 339.234 100.086 339.404C100.086 339.632 100 339.812 99.8299 339.944C99.6784 340.077 99.4322 340.143 99.0912 340.143H89.2601C88.9191 340.143 88.6634 340.077 88.4929 339.944C88.3414 339.812 88.2656 339.641 88.2656 339.433C88.2656 339.205 88.3414 339.035 88.4929 338.921C88.6445 338.808 88.8528 338.713 89.118 338.637L90.8228 338.154C91.5237 337.965 92.0636 337.662 92.4424 337.245C92.8402 336.828 93.0675 336.25 93.1243 335.512L95.5395 304.939C95.6153 304.143 95.5395 303.527 95.3122 303.092C95.0849 302.656 94.6776 302.381 94.0904 302.268L92.2435 301.955C91.9026 301.86 91.6468 301.756 91.4764 301.643C91.3248 301.51 91.249 301.34 91.249 301.131C91.249 300.62 91.6184 300.364 92.3572 300.364H99.489C99.9815 300.364 100.37 300.459 100.654 300.648C100.957 300.838 101.213 301.226 101.421 301.813L112.872 329.602Z" fill="#385A37"/>
<path d="M154.549 336.961V336.534L154.236 336.506V319.969C154.236 318.302 153.848 317.033 153.071 316.162C152.313 315.272 151.215 314.827 149.775 314.827C148.336 314.827 147.256 315.149 146.536 315.793C145.835 316.418 145.485 317.128 145.485 317.924V320.055C145.485 320.926 145.201 321.608 144.632 322.1C144.064 322.593 143.297 322.839 142.331 322.839C141.535 322.839 140.91 322.621 140.456 322.186C140.02 321.731 139.802 321.115 139.802 320.339C139.802 319.24 140.219 318.179 141.052 317.156C141.905 316.115 143.136 315.262 144.746 314.599C146.375 313.936 148.355 313.605 150.684 313.605C153.772 313.605 156.074 314.277 157.589 315.622C159.104 316.967 159.862 318.785 159.862 321.078V336.336C159.862 337.018 159.976 337.51 160.203 337.813C160.449 338.097 160.771 338.239 161.169 338.239C161.605 338.239 161.936 338.135 162.164 337.927C162.391 337.718 162.561 337.472 162.675 337.188C162.732 337.074 162.798 336.989 162.874 336.932C162.95 336.875 163.044 336.847 163.158 336.847C163.291 336.847 163.385 336.894 163.442 336.989C163.518 337.084 163.556 337.216 163.556 337.387C163.556 337.86 163.385 338.353 163.044 338.864C162.722 339.376 162.22 339.812 161.538 340.171C160.875 340.55 160.023 340.74 158.981 340.74C157.561 340.74 156.462 340.408 155.685 339.745C154.928 339.082 154.549 338.154 154.549 336.961ZM138.495 334.403C138.495 332.263 139.423 330.52 141.28 329.175C143.136 327.812 145.797 327.13 149.264 327.13C150.571 327.13 151.726 327.253 152.73 327.499C153.734 327.745 154.634 328.048 155.43 328.408L155.06 329.46C154.302 329.119 153.507 328.844 152.673 328.636C151.859 328.427 150.969 328.323 150.003 328.323C148.184 328.323 146.773 328.787 145.769 329.715C144.765 330.643 144.263 331.903 144.263 333.494C144.263 335.066 144.689 336.279 145.542 337.131C146.413 337.984 147.531 338.41 148.894 338.41C150.031 338.41 151.139 338.154 152.219 337.643C153.317 337.131 154.246 336.392 155.003 335.426L155.458 336.336C154.454 337.737 153.128 338.827 151.48 339.603C149.832 340.361 148.08 340.74 146.224 340.74C143.932 340.74 142.066 340.162 140.626 339.006C139.205 337.851 138.495 336.317 138.495 334.403Z" fill="#385A37"/>
<path d="M174.777 325.766C174.777 323.114 175.155 320.888 175.913 319.089C176.671 317.289 177.656 315.925 178.868 314.997C180.08 314.069 181.359 313.605 182.704 313.605C184.276 313.605 185.498 314.059 186.369 314.969C187.241 315.859 187.676 317.09 187.676 318.662C187.676 319.875 187.402 320.793 186.852 321.418C186.322 322.044 185.64 322.356 184.806 322.356C183.992 322.356 183.357 322.129 182.903 321.674C182.448 321.201 182.221 320.538 182.221 319.685L182.192 318.776C182.192 318.113 182.05 317.63 181.766 317.327C181.482 317.005 180.999 316.844 180.317 316.844C179.541 316.844 178.783 317.175 178.044 317.838C177.305 318.501 176.69 319.496 176.197 320.822C175.724 322.148 175.487 323.805 175.487 325.794L174.777 325.766ZM175.316 314.883L175.487 322.697V337.103C175.487 337.463 175.582 337.756 175.771 337.984C175.96 338.192 176.263 338.325 176.68 338.381L179.323 338.751C179.607 338.789 179.815 338.874 179.948 339.006C180.099 339.12 180.175 339.281 180.175 339.49C180.175 339.679 180.09 339.84 179.919 339.973C179.768 340.086 179.541 340.143 179.237 340.143H167.531C167.228 340.143 167.001 340.086 166.849 339.973C166.717 339.84 166.65 339.679 166.65 339.49C166.65 339.319 166.707 339.177 166.821 339.063C166.953 338.95 167.143 338.855 167.389 338.779L168.895 338.495C169.217 338.419 169.454 338.277 169.605 338.069C169.776 337.86 169.861 337.567 169.861 337.188V318.265C169.861 317.961 169.804 317.734 169.69 317.583C169.596 317.431 169.416 317.346 169.151 317.327L167.105 317.27C166.878 317.251 166.717 317.194 166.622 317.1C166.527 316.986 166.48 316.853 166.48 316.702C166.48 316.531 166.537 316.389 166.65 316.276C166.764 316.162 166.972 316.058 167.275 315.963L172.702 314.287C173.214 314.097 173.593 313.974 173.839 313.917C174.104 313.86 174.322 313.832 174.492 313.832C174.739 313.832 174.928 313.917 175.061 314.088C175.193 314.258 175.278 314.523 175.316 314.883Z" fill="#385A37"/>
<path d="M191.225 340.143C190.922 340.143 190.713 340.086 190.6 339.973C190.486 339.84 190.429 339.679 190.429 339.49C190.429 339.319 190.486 339.177 190.6 339.063C190.732 338.95 190.931 338.855 191.196 338.779L192.702 338.495C193.024 338.419 193.261 338.277 193.413 338.069C193.583 337.86 193.668 337.557 193.668 337.16V302.722C193.668 302.419 193.612 302.201 193.498 302.069C193.384 301.917 193.204 301.832 192.958 301.813L190.912 301.756C190.685 301.737 190.524 301.681 190.429 301.586C190.335 301.472 190.287 301.34 190.287 301.188C190.287 301.018 190.344 300.875 190.458 300.762C190.571 300.648 190.77 300.544 191.054 300.449L196.567 298.688C196.983 298.536 197.315 298.432 197.561 298.375C197.826 298.299 198.073 298.261 198.3 298.261C198.622 298.261 198.868 298.356 199.039 298.546C199.209 298.735 199.294 298.991 199.294 299.313V337.131C199.294 337.548 199.37 337.86 199.522 338.069C199.692 338.277 199.938 338.419 200.26 338.495L201.709 338.779C202.164 338.912 202.391 339.139 202.391 339.461C202.391 339.916 202.088 340.143 201.482 340.143H191.225ZM197.788 328.863L209.58 318.407C210.281 317.782 210.584 317.223 210.489 316.73C210.395 316.238 209.94 315.906 209.125 315.736L207.989 315.537C207.724 315.461 207.544 315.376 207.449 315.281C207.354 315.167 207.307 315.025 207.307 314.855C207.307 314.647 207.383 314.486 207.534 314.372C207.705 314.258 207.923 314.201 208.188 314.201H217.394C217.678 314.201 217.896 314.258 218.047 314.372C218.218 314.486 218.303 314.637 218.303 314.827C218.303 315.035 218.227 315.205 218.076 315.338C217.943 315.471 217.659 315.575 217.223 315.651C216.2 315.859 215.272 316.19 214.439 316.645C213.605 317.081 212.658 317.753 211.597 318.662L198.243 330.312L197.788 328.863ZM206.312 322.214L215.888 336.762C216.342 337.425 216.759 337.879 217.138 338.126C217.517 338.372 218.057 338.571 218.758 338.722C219.042 338.836 219.241 338.959 219.354 339.092C219.487 339.205 219.553 339.347 219.553 339.518C219.553 339.707 219.477 339.859 219.326 339.973C219.174 340.086 218.966 340.143 218.701 340.143H207.989C207.743 340.143 207.544 340.086 207.392 339.973C207.26 339.859 207.193 339.698 207.193 339.49C207.193 339.338 207.241 339.215 207.335 339.12C207.43 339.007 207.601 338.912 207.847 338.836L209.012 338.637C209.58 338.542 209.902 338.344 209.978 338.04C210.054 337.737 209.864 337.254 209.41 336.591L202.391 325.794L206.312 322.214Z" fill="#385A37"/>
<path d="M245.451 324.146C245.451 324.733 245.271 325.188 244.911 325.51C244.551 325.832 244.021 325.993 243.32 325.993H225.391V324.714H238.66C239.361 324.714 239.712 324.392 239.712 323.748C239.712 320.983 239.181 318.861 238.121 317.384C237.06 315.906 235.668 315.167 233.944 315.167C232.523 315.167 231.292 315.575 230.25 316.389C229.208 317.204 228.403 318.378 227.835 319.913C227.267 321.447 226.982 323.284 226.982 325.425C226.982 329.232 227.854 332.13 229.596 334.119C231.358 336.089 233.65 337.074 236.473 337.074C238.348 337.074 239.967 336.61 241.331 335.682C242.714 334.735 243.633 333.466 244.087 331.875C244.239 331.647 244.372 331.496 244.485 331.42C244.599 331.325 244.722 331.278 244.855 331.278C245.044 331.278 245.177 331.363 245.252 331.534C245.347 331.685 245.385 331.875 245.366 332.102C245.233 333.712 244.675 335.18 243.69 336.506C242.724 337.813 241.435 338.855 239.825 339.632C238.215 340.389 236.397 340.768 234.37 340.768C231.87 340.768 229.672 340.228 227.778 339.149C225.884 338.069 224.406 336.553 223.346 334.602C222.285 332.632 221.754 330.331 221.754 327.698C221.754 324.989 222.275 322.574 223.317 320.452C224.378 318.331 225.874 316.664 227.806 315.452C229.739 314.22 232.021 313.605 234.654 313.605C236.851 313.605 238.755 314.059 240.365 314.969C241.975 315.859 243.226 317.1 244.116 318.691C245.006 320.263 245.451 322.081 245.451 324.146Z" fill="#385A37"/>
<path d="M251.044 315.991L249.112 315.565C248.79 315.471 248.563 315.366 248.43 315.253C248.298 315.12 248.231 314.978 248.231 314.827C248.231 314.618 248.307 314.467 248.459 314.372C248.61 314.258 248.8 314.201 249.027 314.201H251.13C251.508 314.201 251.811 314.145 252.039 314.031C252.266 313.898 252.465 313.681 252.635 313.377L255.59 308.831C255.799 308.528 255.998 308.31 256.187 308.178C256.396 308.026 256.613 307.95 256.841 307.95C257.068 307.95 257.248 308.026 257.381 308.178C257.513 308.329 257.579 308.538 257.579 308.803V333.608C257.579 334.972 257.854 336.004 258.403 336.705C258.953 337.387 259.72 337.728 260.705 337.728C261.273 337.728 261.737 337.643 262.097 337.472C262.476 337.283 262.789 337.046 263.035 336.762C263.281 336.478 263.508 336.203 263.717 335.938C263.925 335.654 264.152 335.417 264.399 335.227C264.55 335.19 264.683 335.227 264.796 335.341C264.91 335.436 264.957 335.616 264.939 335.881C264.825 336.771 264.484 337.576 263.916 338.296C263.366 339.016 262.637 339.584 261.728 340.001C260.819 340.418 259.758 340.626 258.545 340.626C256.519 340.626 254.918 340.115 253.744 339.092C252.588 338.069 252.01 336.516 252.01 334.432V317.213C252.01 316.872 251.935 316.607 251.783 316.418C251.65 316.228 251.404 316.086 251.044 315.991ZM255.278 315.793L255.335 314.201H263.944C264.228 314.201 264.437 314.249 264.569 314.344C264.721 314.438 264.796 314.59 264.796 314.798C264.796 315.082 264.645 315.319 264.342 315.508C264.058 315.698 263.613 315.793 263.006 315.793H255.278Z" fill="#385A37"/>
<path d="M277.1 314.827V337.131C277.1 337.548 277.176 337.86 277.327 338.069C277.498 338.277 277.744 338.419 278.066 338.495L279.544 338.779C279.809 338.836 279.998 338.931 280.112 339.063C280.225 339.177 280.282 339.319 280.282 339.49C280.282 339.679 280.207 339.84 280.055 339.973C279.922 340.086 279.695 340.143 279.373 340.143H269.116C268.832 340.143 268.614 340.086 268.462 339.973C268.33 339.84 268.263 339.679 268.263 339.49C268.263 339.319 268.32 339.177 268.434 339.063C268.547 338.95 268.718 338.864 268.945 338.808L270.508 338.495C270.83 338.419 271.067 338.277 271.218 338.069C271.389 337.86 271.474 337.557 271.474 337.16V318.265C271.474 317.961 271.417 317.744 271.304 317.611C271.209 317.46 271.029 317.374 270.764 317.355L268.746 317.298C268.519 317.261 268.349 317.194 268.235 317.1C268.14 317.005 268.093 316.882 268.093 316.73C268.093 316.541 268.15 316.399 268.263 316.304C268.377 316.19 268.576 316.077 268.86 315.963L274.372 314.23C274.808 314.059 275.149 313.946 275.395 313.889C275.66 313.832 275.888 313.804 276.077 313.804C276.418 313.804 276.674 313.898 276.844 314.088C277.015 314.277 277.1 314.523 277.1 314.827ZM273.832 308.774C272.715 308.774 271.806 308.443 271.105 307.78C270.423 307.117 270.082 306.284 270.082 305.28C270.082 304.257 270.432 303.423 271.133 302.779C271.834 302.116 272.734 301.785 273.832 301.785C274.969 301.785 275.888 302.116 276.589 302.779C277.289 303.442 277.64 304.276 277.64 305.28C277.64 306.284 277.289 307.117 276.589 307.78C275.888 308.443 274.969 308.774 273.832 308.774Z" fill="#385A37"/>
<path d="M292.471 314.827V337.131C292.471 337.548 292.547 337.86 292.698 338.069C292.869 338.277 293.115 338.419 293.437 338.495L294.886 338.779C295.341 338.912 295.568 339.139 295.568 339.461C295.568 339.916 295.265 340.143 294.659 340.143H284.487C284.202 340.143 283.985 340.086 283.833 339.973C283.682 339.84 283.606 339.679 283.606 339.49C283.606 339.319 283.663 339.177 283.776 339.063C283.89 338.95 284.07 338.864 284.316 338.808L285.879 338.495C286.201 338.419 286.438 338.277 286.589 338.069C286.76 337.86 286.845 337.557 286.845 337.16V318.265C286.845 317.961 286.788 317.744 286.674 317.611C286.561 317.46 286.381 317.374 286.135 317.355L284.089 317.298C283.862 317.261 283.701 317.194 283.606 317.1C283.511 317.005 283.464 316.882 283.464 316.73C283.464 316.541 283.521 316.399 283.634 316.304C283.748 316.19 283.947 316.077 284.231 315.963L289.743 314.23C290.16 314.059 290.491 313.946 290.738 313.889C291.003 313.832 291.249 313.804 291.476 313.804C291.798 313.804 292.045 313.898 292.215 314.088C292.386 314.277 292.471 314.523 292.471 314.827ZM291.817 320.566L291.022 319.77L292.158 318.776C294.242 316.92 296.032 315.594 297.528 314.798C299.025 314.003 300.465 313.605 301.847 313.605C303.931 313.605 305.551 314.296 306.706 315.679C307.862 317.062 308.581 319.003 308.865 321.504L310.798 336.989C310.854 337.444 310.959 337.794 311.11 338.04C311.281 338.287 311.555 338.448 311.934 338.523L313.241 338.808C313.487 338.864 313.658 338.95 313.753 339.063C313.866 339.177 313.923 339.319 313.923 339.49C313.923 339.679 313.857 339.84 313.724 339.973C313.592 340.086 313.374 340.143 313.071 340.143H302.757C302.15 340.143 301.847 339.916 301.847 339.461C301.847 339.158 302.065 338.931 302.501 338.779L304.035 338.495C304.414 338.419 304.689 338.258 304.859 338.012C305.049 337.766 305.124 337.425 305.086 336.989L303.268 322.271C303.022 320.396 302.539 319.003 301.819 318.094C301.118 317.185 300.086 316.73 298.722 316.73C297.85 316.73 296.941 316.967 295.994 317.441C295.066 317.914 294.043 318.634 292.925 319.6L291.817 320.566Z" fill="#385A37"/>
<path d="M332.832 338.893C335.351 339.347 337.331 339.897 338.77 340.541C340.21 341.185 341.223 341.952 341.811 342.842C342.417 343.752 342.72 344.822 342.72 346.053C342.72 348.402 341.517 350.325 339.111 351.821C336.706 353.336 333.268 354.094 328.797 354.094C325.653 354.094 323.114 353.81 321.182 353.242C319.25 352.673 317.839 351.897 316.949 350.912C316.058 349.927 315.613 348.809 315.613 347.559C315.613 346.006 316.352 344.632 317.829 343.439C319.326 342.246 321.912 341.403 325.586 340.91L325.984 341.564C323.957 341.848 322.432 342.426 321.41 343.297C320.387 344.187 319.875 345.201 319.875 346.337C319.875 348.194 320.624 349.69 322.12 350.827C323.616 351.982 326.079 352.56 329.507 352.56C331.421 352.56 332.993 352.37 334.224 351.991C335.455 351.632 336.374 351.092 336.98 350.372C337.586 349.671 337.889 348.828 337.889 347.843C337.889 347.104 337.653 346.451 337.179 345.883C336.725 345.314 335.901 344.793 334.707 344.32C333.533 343.865 331.856 343.42 329.678 342.984C327.045 342.473 325.018 341.961 323.597 341.45C322.196 340.939 321.23 340.38 320.699 339.774C320.188 339.167 319.932 338.457 319.932 337.643C319.932 336.961 320.112 336.317 320.472 335.71C320.832 335.104 321.438 334.574 322.29 334.119C323.162 333.646 324.355 333.276 325.871 333.011L326.354 333.324C325.71 333.608 325.227 333.92 324.904 334.261C324.601 334.583 324.45 334.953 324.45 335.37C324.45 335.729 324.611 336.08 324.933 336.421C325.274 336.762 326.032 337.131 327.206 337.529C328.399 337.908 330.275 338.362 332.832 338.893ZM333.741 316.048L334.423 314.798C335.219 313.302 336.128 312.156 337.151 311.36C338.193 310.546 339.32 310.138 340.532 310.138C341.612 310.138 342.483 310.432 343.146 311.019C343.809 311.606 344.14 312.392 344.14 313.377C344.14 314.173 343.942 314.808 343.544 315.281C343.146 315.755 342.597 315.991 341.896 315.991C341.403 315.991 340.996 315.859 340.674 315.594C340.352 315.31 340.068 314.997 339.822 314.656C339.575 314.296 339.31 313.984 339.026 313.718C338.761 313.434 338.41 313.292 337.975 313.292C337.425 313.292 336.923 313.51 336.469 313.946C336.014 314.381 335.474 315.149 334.849 316.247L333.741 316.048ZM340.532 323.521C340.532 325.586 340.011 327.404 338.969 328.977C337.946 330.549 336.516 331.78 334.679 332.67C332.86 333.561 330.786 334.006 328.456 334.006C326.107 334.006 324.052 333.57 322.29 332.699C320.548 331.827 319.184 330.653 318.199 329.175C317.214 327.679 316.721 326.012 316.721 324.175C316.721 322.11 317.233 320.291 318.256 318.719C319.279 317.128 320.699 315.887 322.518 314.997C324.355 314.088 326.486 313.633 328.911 313.633C331.26 313.633 333.296 314.078 335.02 314.969C336.762 315.84 338.117 317.024 339.083 318.52C340.049 319.998 340.532 321.665 340.532 323.521ZM327.774 315.111C326.6 315.149 325.596 315.518 324.762 316.219C323.948 316.901 323.342 317.867 322.944 319.117C322.565 320.367 322.442 321.854 322.575 323.578C322.707 325.396 323.067 326.988 323.654 328.351C324.26 329.696 325.056 330.729 326.041 331.448C327.045 332.168 328.172 332.509 329.422 332.471C331.222 332.396 332.586 331.619 333.514 330.141C334.461 328.645 334.84 326.599 334.65 324.004C334.461 321.22 333.751 319.032 332.519 317.441C331.288 315.83 329.706 315.054 327.774 315.111Z" fill="#385A37"/>
<path d="M122.248 371.597C122.248 374.078 121.642 376.238 120.43 378.075C119.236 379.913 117.56 381.333 115.401 382.337C113.26 383.341 110.769 383.843 107.928 383.843C105.977 383.843 104.168 383.635 102.501 383.218C100.853 382.782 99.3943 382.148 98.1251 381.314L98.4093 379.894C99.148 380.405 99.9531 380.822 100.824 381.144C101.696 381.466 102.596 381.712 103.524 381.883C104.452 382.034 105.371 382.11 106.28 382.11C108.193 382.11 109.869 381.684 111.309 380.831C112.768 379.96 113.904 378.729 114.719 377.137C115.533 375.546 115.94 373.652 115.94 371.455C115.94 368.86 115.429 366.615 114.406 364.721C113.402 362.827 111.981 361.368 110.144 360.345C108.307 359.303 106.147 358.782 103.666 358.782H100.626V393.873C100.626 394.195 100.73 394.47 100.938 394.697C101.146 394.905 101.45 395.038 101.847 395.095L104.717 395.464C105.001 395.521 105.2 395.616 105.314 395.748C105.446 395.862 105.513 396.033 105.513 396.26C105.513 396.468 105.437 396.639 105.285 396.771C105.134 396.904 104.897 396.97 104.575 396.97H91.0786C90.7376 396.97 90.4913 396.904 90.3398 396.771C90.1883 396.639 90.1125 396.468 90.1125 396.26C90.1125 395.862 90.3682 395.597 90.8797 395.464L93.0959 395.095C93.4937 395.019 93.7873 394.877 93.9767 394.669C94.1851 394.46 94.2893 394.195 94.2893 393.873V360.317C94.2893 359.976 94.1851 359.701 93.9767 359.493C93.7873 359.284 93.5032 359.142 93.1243 359.066L90.8513 358.697C90.3588 358.564 90.1125 358.299 90.1125 357.901C90.1125 357.674 90.1883 357.504 90.3398 357.39C90.4913 357.257 90.7281 357.191 91.0502 357.191H103.779C107.568 357.191 110.845 357.807 113.611 359.038C116.376 360.25 118.507 361.946 120.004 364.124C121.5 366.283 122.248 368.774 122.248 371.597Z" fill="#385A37"/>
<path d="M138.417 370.46C141.05 370.46 143.38 371.038 145.407 372.194C147.433 373.349 149.025 374.95 150.18 376.995C151.336 379.041 151.913 381.4 151.913 384.07C151.913 386.684 151.326 389.014 150.152 391.06C148.977 393.087 147.358 394.688 145.293 395.862C143.247 397.018 140.879 397.595 138.19 397.595C135.557 397.595 133.227 397.027 131.2 395.89C129.173 394.735 127.591 393.134 126.455 391.089C125.318 389.043 124.75 386.694 124.75 384.042C124.75 381.39 125.328 379.051 126.483 377.024C127.639 374.978 129.239 373.377 131.285 372.222C133.35 371.048 135.727 370.46 138.417 370.46ZM140.15 395.89C141.666 395.701 142.916 395.076 143.901 394.015C144.886 392.954 145.549 391.505 145.89 389.668C146.25 387.811 146.25 385.614 145.89 383.076C145.53 380.5 144.905 378.369 144.014 376.683C143.143 374.997 142.063 373.775 140.775 373.018C139.487 372.241 138.057 371.947 136.485 372.137C134.95 372.326 133.691 372.961 132.706 374.04C131.74 375.101 131.086 376.56 130.745 378.416C130.404 380.254 130.414 382.441 130.774 384.98C131.134 387.499 131.759 389.611 132.649 391.316C133.539 393.002 134.628 394.233 135.917 395.01C137.205 395.786 138.616 396.08 140.15 395.89Z" fill="#385A37"/>
<path d="M175.745 392.737L175.66 392.566V359.549C175.66 359.246 175.603 359.029 175.49 358.896C175.376 358.744 175.196 358.659 174.95 358.64L172.904 358.583C172.677 358.564 172.516 358.508 172.421 358.413C172.326 358.299 172.279 358.167 172.279 358.015C172.279 357.845 172.336 357.703 172.449 357.589C172.563 357.475 172.762 357.371 173.046 357.276L178.558 355.515C178.975 355.363 179.316 355.259 179.581 355.202C179.846 355.126 180.083 355.089 180.291 355.089C180.613 355.089 180.86 355.183 181.03 355.373C181.201 355.562 181.286 355.818 181.286 356.14V393.958C181.286 394.375 181.362 394.688 181.513 394.896C181.684 395.104 181.93 395.246 182.252 395.322L183.729 395.606C183.995 395.663 184.184 395.758 184.298 395.89C184.411 396.004 184.468 396.146 184.468 396.317C184.468 396.506 184.392 396.667 184.241 396.8C184.089 396.913 183.862 396.97 183.559 396.97H177.819C177.194 396.97 176.692 396.79 176.313 396.43C175.935 396.051 175.745 395.512 175.745 394.811V392.737ZM155.856 384.639C155.856 381.722 156.424 379.202 157.561 377.081C158.697 374.94 160.222 373.302 162.135 372.165C164.048 371.01 166.16 370.432 168.471 370.432C170.612 370.432 172.478 370.934 174.069 371.938C175.66 372.942 176.948 374.334 177.933 376.115L176.882 377.109C176.048 375.575 174.988 374.4 173.699 373.586C172.43 372.752 171.029 372.336 169.494 372.336C168.036 372.336 166.719 372.762 165.545 373.614C164.37 374.448 163.433 375.726 162.732 377.45C162.05 379.174 161.709 381.362 161.709 384.014C161.709 386.476 162.031 388.531 162.675 390.179C163.319 391.827 164.2 393.068 165.317 393.901C166.435 394.735 167.704 395.152 169.125 395.152C170.47 395.152 171.786 394.773 173.074 394.015C174.362 393.238 175.556 392.055 176.654 390.463L177.336 391.486C175.878 393.513 174.296 395.038 172.591 396.061C170.887 397.084 169.03 397.595 167.022 397.595C164.882 397.595 162.969 397.055 161.283 395.976C159.597 394.877 158.271 393.352 157.305 391.401C156.339 389.45 155.856 387.196 155.856 384.639Z" fill="#385A37"/>
</g>
<defs>
<filter id="filter0_d_884_111" x="-8" y="1" width="533" height="736" filterUnits="userSpaceOnUse" color-interpolation-filters="sRGB">
<feFlood flood-opacity="0" result="BackgroundImageFix"/>
<feColorMatrix in="SourceAlpha" type="matrix" values="0 0 0 0 0 0 0 0 0 0 0 0 0 0 0 0 0 0 127 0" result="hardAlpha"/>
<feOffset dx="20" dy="30"/>
<feGaussianBlur stdDeviation="15"/>
<feComposite in2="hardAlpha" operator="out"/>
<feColorMatrix type="matrix" values="0 0 0 0 0 0 0 0 0 0 0 0 0 0 0 0 0 0 0.15 0"/>
<feBlend mode="normal" in2="BackgroundImageFix" result="effect1_dropShadow_884_111"/>
<feBlend mode="normal" in="SourceGraphic" in2="effect1_dropShadow_884_111" result="shape"/>
</filter>
<clipPath id="clip0_884_111">
<rect width="545" height="677" fill="white"/>
</clipPath>
</defs>
</svg>
