<svg width="286" height="43" viewBox="0 0 286 43" fill="none" xmlns="http://www.w3.org/2000/svg">
<path d="M71.6684 30.3084C71.6684 28.5405 71.9041 27.079 72.3755 25.9239C72.847 24.7571 73.4717 23.8967 74.2496 23.3427C75.0275 22.777 75.8761 22.4941 76.7954 22.4941C78.0212 22.4941 78.9582 22.8654 79.6064 23.6079C80.2665 24.3505 80.5965 25.4643 80.5965 26.9493C80.5965 28.4698 80.29 29.5954 79.6772 30.3261C79.0643 31.0451 78.2628 31.4046 77.2727 31.4046C76.2827 31.4046 75.5402 31.1512 75.0451 30.6444C74.5619 30.1375 74.3203 29.4304 74.3203 28.5228L74.3026 27.7803C74.2908 27.4856 74.226 27.2617 74.1081 27.1085C73.9903 26.9435 73.8017 26.8609 73.5424 26.8609C73.3067 26.8609 73.0945 26.967 72.9059 27.1792C72.7291 27.3795 72.5877 27.7155 72.4816 28.1869C72.3755 28.6466 72.3225 29.2771 72.3225 30.0786L71.6684 30.3084ZM71.8805 23.9969L72.3225 27.8333V36.4432C72.3225 36.8322 72.3814 37.1091 72.4993 37.2741C72.6172 37.4392 72.8765 37.5629 73.2772 37.6454L74.6562 37.9283C74.9862 37.9872 75.2278 38.0992 75.381 38.2642C75.5343 38.4292 75.6109 38.659 75.6109 38.9537C75.6109 39.2719 75.4989 39.5194 75.275 39.6962C75.0628 39.873 74.7505 39.9614 74.338 39.9614H64.5789C64.131 39.9614 63.8069 39.873 63.6065 39.6962C63.4179 39.5194 63.3236 39.2778 63.3236 38.9714C63.3236 38.7474 63.3767 38.553 63.4828 38.388C63.6006 38.2229 63.7833 38.0874 64.0308 37.9813L64.4375 37.8045C64.6142 37.7338 64.738 37.6042 64.8087 37.4156C64.8794 37.227 64.9148 36.9088 64.9148 36.4609V27.8687C64.9148 27.5033 64.8677 27.2499 64.7734 27.1085C64.6791 26.9552 64.5376 26.8492 64.3491 26.7902L63.9247 26.6842C63.689 26.6016 63.5181 26.4897 63.412 26.3482C63.306 26.2068 63.2529 26.0241 63.2529 25.8002C63.2529 25.5409 63.3295 25.3346 63.4828 25.1814C63.636 25.0164 63.9012 24.8632 64.2783 24.7217L68.3093 23.219C69.0872 22.9243 69.647 22.7357 69.9888 22.6532C70.3306 22.5589 70.6017 22.5118 70.8021 22.5118C71.1085 22.5118 71.3442 22.6238 71.5092 22.8477C71.6742 23.0716 71.798 23.4547 71.8805 23.9969Z" fill="white"/>
<path d="M92.7713 23.9792V36.4609C92.7713 36.9088 92.8066 37.227 92.8774 37.4156C92.9481 37.6042 93.0718 37.7338 93.2486 37.8045L93.6553 37.9813C93.9145 38.0874 94.0972 38.2229 94.2033 38.388C94.3212 38.553 94.3801 38.7474 94.3801 38.9714C94.3801 39.2778 94.2799 39.5194 94.0796 39.6962C93.8792 39.873 93.561 39.9614 93.1249 39.9614H85.01C84.5739 39.9614 84.2557 39.873 84.0553 39.6962C83.8549 39.5194 83.7548 39.2778 83.7548 38.9714C83.7548 38.7474 83.8078 38.553 83.9139 38.388C84.0317 38.2229 84.2203 38.0874 84.4796 37.9813L84.8862 37.8045C85.063 37.7338 85.1868 37.6042 85.2575 37.4156C85.3282 37.227 85.3636 36.9088 85.3636 36.4609V27.798C85.3636 27.4444 85.3164 27.1969 85.2221 27.0554C85.1279 26.9022 84.9805 26.7961 84.7802 26.7372L84.3735 26.6311C84.1378 26.5486 83.9669 26.4366 83.8608 26.2952C83.7548 26.1538 83.7017 25.9711 83.7017 25.7471C83.7017 25.4878 83.7724 25.2816 83.9139 25.1284C84.0671 24.9751 84.3382 24.8219 84.7271 24.6687L88.8818 23.1129C89.4711 22.889 89.9367 22.7298 90.2785 22.6356C90.6203 22.5413 90.9267 22.4941 91.1978 22.4941C91.7164 22.4941 92.1054 22.6356 92.3647 22.9184C92.6357 23.1895 92.7713 23.5431 92.7713 23.9792ZM88.705 20.9737C87.4085 20.9737 86.3772 20.6672 85.6111 20.0544C84.8568 19.4297 84.4796 18.5929 84.4796 17.5439C84.4796 16.4949 84.8568 15.6698 85.6111 15.0687C86.3772 14.4559 87.4085 14.1494 88.705 14.1494C90.0015 14.1494 91.0269 14.4559 91.7812 15.0687C92.5473 15.6698 92.9304 16.4949 92.9304 17.5439C92.9304 18.5929 92.5473 19.4297 91.7812 20.0544C91.0269 20.6672 90.0015 20.9737 88.705 20.9737Z" fill="white"/>
<path d="M106.109 38.3349C106.781 38.3349 107.276 38.1876 107.594 37.8929C107.924 37.5983 108.089 37.2388 108.089 36.8145C108.089 36.5552 108.036 36.3136 107.93 36.0896C107.835 35.8657 107.612 35.6594 107.258 35.4708C106.904 35.2823 106.356 35.1231 105.614 34.9935C103.469 34.6046 101.83 34.1095 100.699 33.5084C99.5792 32.8955 98.813 32.1766 98.4005 31.3515C97.988 30.5265 97.7817 29.6013 97.7817 28.5759C97.7817 26.6665 98.4418 25.1755 99.7618 24.103C101.094 23.0304 103.038 22.4941 105.596 22.4941C106.48 22.4941 107.187 22.5648 107.718 22.7063C108.248 22.8477 108.672 22.9891 108.991 23.1306C109.309 23.272 109.592 23.3427 109.839 23.3427C110.122 23.3427 110.352 23.272 110.529 23.1306C110.705 22.9891 110.888 22.8477 111.077 22.7063C111.265 22.5648 111.513 22.4941 111.819 22.4941C112.043 22.4941 112.249 22.5707 112.438 22.724C112.627 22.8772 112.786 23.1659 112.915 23.5902L113.817 26.914C113.994 27.4915 114.047 27.9512 113.976 28.293C113.905 28.6348 113.693 28.8705 113.34 29.0002C112.986 29.1298 112.68 29.1357 112.42 29.0178C112.161 28.9 111.908 28.6584 111.66 28.293C111.106 27.4444 110.529 26.749 109.928 26.2068C109.326 25.6646 108.702 25.2639 108.054 25.0046C107.417 24.7335 106.751 24.598 106.056 24.598C105.278 24.598 104.689 24.7512 104.288 25.0576C103.899 25.3523 103.704 25.7471 103.704 26.2422C103.704 26.5604 103.787 26.8374 103.952 27.0731C104.117 27.3088 104.447 27.521 104.942 27.7096C105.449 27.8981 106.191 28.0867 107.17 28.2753C108.867 28.5935 110.205 29.0414 111.183 29.6189C112.173 30.1847 112.88 30.886 113.304 31.7228C113.74 32.5478 113.958 33.5143 113.958 34.6222C113.958 35.7891 113.64 36.8145 113.004 37.6985C112.379 38.5706 111.519 39.2484 110.423 39.7316C109.338 40.203 108.107 40.4388 106.728 40.4388C105.867 40.4388 105.184 40.3622 104.677 40.2089C104.182 40.0675 103.775 39.9261 103.457 39.7846C103.15 39.6314 102.85 39.5548 102.555 39.5548C102.272 39.5548 102.013 39.6314 101.777 39.7846C101.542 39.9261 101.306 40.0675 101.07 40.2089C100.846 40.3622 100.599 40.4388 100.328 40.4388C100.092 40.4388 99.8856 40.3445 99.7088 40.1559C99.5438 39.9791 99.42 39.6727 99.3375 39.2366L98.7895 36.0896C98.6952 35.5239 98.6893 35.0996 98.7718 34.8167C98.8661 34.5338 99.0665 34.3276 99.3729 34.1979C99.7029 34.0565 99.9976 34.0624 100.257 34.2156C100.528 34.357 100.799 34.6222 101.07 35.0112C101.919 36.2252 102.767 37.0856 103.616 37.5924C104.465 38.0874 105.296 38.3349 106.109 38.3349Z" fill="white"/>
<path d="M135.894 29.3714C135.894 30.1375 135.682 30.7327 135.258 31.1571C134.845 31.5814 134.244 31.7935 133.454 31.7935H122.917V30.0609H127.655C128.268 30.0609 128.575 29.7722 128.575 29.1946C128.575 27.6388 128.398 26.5309 128.044 25.8709C127.702 25.1991 127.255 24.8632 126.701 24.8632C126.3 24.8632 125.935 25.0164 125.605 25.3228C125.275 25.6293 125.015 26.1066 124.827 26.7549C124.638 27.4031 124.544 28.2282 124.544 29.23C124.544 31.3987 125.027 32.9839 125.993 33.9858C126.96 34.9876 128.28 35.4885 129.954 35.4885C130.767 35.4885 131.498 35.3824 132.146 35.1703C132.806 34.9581 133.413 34.5574 133.967 33.9681C134.285 33.6852 134.527 33.4966 134.692 33.4023C134.857 33.2963 135.016 33.2432 135.169 33.2432C135.393 33.2432 135.558 33.3552 135.664 33.5791C135.77 33.7913 135.823 34.0565 135.823 34.3747C135.823 35.4473 135.464 36.4491 134.745 37.3802C134.038 38.2996 133.053 39.0421 131.792 39.6078C130.543 40.1618 129.081 40.4388 127.408 40.4388C125.616 40.4388 124.007 40.0852 122.581 39.378C121.167 38.6708 120.047 37.6808 119.222 36.4079C118.397 35.1349 117.985 33.6499 117.985 31.9526C117.985 30.0433 118.362 28.3814 119.116 26.967C119.882 25.5527 120.99 24.4565 122.44 23.6786C123.89 22.889 125.64 22.4941 127.691 22.4941C129.494 22.4941 131.003 22.7947 132.217 23.3958C133.442 23.9851 134.362 24.7983 134.975 25.8355C135.588 26.8609 135.894 28.0396 135.894 29.3714Z" fill="white"/>
<path d="M170.666 40.81C169.216 40.81 167.914 40.6391 166.759 40.2973C165.604 39.9555 164.573 39.431 163.665 38.7239C162.758 38.0049 161.938 37.0915 161.208 35.9835C160.371 34.7224 159.67 33.5084 159.104 32.3416C158.55 31.1629 158.131 29.9961 157.849 28.841C157.566 27.6742 157.424 26.4779 157.424 25.2521C157.424 23.7553 157.742 22.4116 158.379 21.2212C159.015 20.019 159.923 19.0702 161.102 18.3748C162.292 17.6676 163.724 17.314 165.398 17.314C166.694 17.314 167.832 17.5498 168.81 18.0212C169.8 18.4809 170.572 19.1173 171.126 19.9306C171.68 20.7439 171.957 21.6809 171.957 22.7416C171.957 23.8849 171.621 24.8808 170.949 25.7295C170.289 26.5781 169.352 27.2322 168.138 27.6919C166.924 28.1515 165.486 28.3814 163.824 28.3814L163.559 27.3383C164.03 27.3383 164.455 27.1261 164.832 26.7018C165.209 26.2775 165.51 25.6764 165.734 24.8985C165.958 24.1206 166.07 23.2072 166.07 22.1582C166.07 21.2271 165.981 20.4669 165.804 19.8776C165.639 19.2765 165.386 18.9759 165.044 18.9759C164.632 18.9759 164.284 19.2824 164.001 19.8952C163.73 20.5081 163.594 21.2978 163.594 22.2643C163.594 23.2897 163.718 24.2856 163.966 25.2521C164.225 26.2186 164.62 27.2263 165.15 28.2753C165.681 29.3243 166.37 30.4735 167.219 31.7228C168.232 33.2314 169.104 34.4219 169.835 35.2941C170.566 36.1545 171.255 36.7673 171.904 37.1327C172.564 37.4863 173.277 37.6631 174.043 37.6631C175.092 37.6631 176.041 37.392 176.889 36.8498C177.738 36.2959 178.41 35.4532 178.905 34.3217C179.412 33.1902 179.665 31.7582 179.665 30.0256C179.665 28.0573 179.264 26.0772 178.463 24.0853C177.661 22.0934 176.465 20.3137 174.874 18.7461C173.424 17.3199 171.662 16.1884 169.588 15.3516C167.513 14.503 165.303 14.0787 162.958 14.0787C160.907 14.0787 159.257 14.2908 158.008 14.7152C156.758 15.1395 155.851 15.717 155.285 16.4477C154.719 17.1667 154.436 17.98 154.436 18.8875C154.436 19.3707 154.489 19.8009 154.596 20.1781C154.713 20.5553 154.849 20.9265 155.002 21.2919C155.155 21.6455 155.285 22.0286 155.391 22.4411C155.509 22.8418 155.568 23.3192 155.568 23.8731C155.568 24.7925 155.267 25.5409 154.666 26.1184C154.065 26.6842 153.293 26.967 152.35 26.967C151.254 26.967 150.4 26.5604 149.787 25.7471C149.174 24.9221 148.867 23.8613 148.867 22.5648C148.867 20.5022 149.404 18.7048 150.476 17.1726C151.561 15.6286 153.158 14.4264 155.267 13.566C157.389 12.7056 159.994 12.2754 163.082 12.2754C165.663 12.2754 168.109 12.7233 170.419 13.619C172.741 14.5148 174.721 15.7524 176.359 17.3317C178.115 19.0407 179.459 20.9914 180.39 23.1836C181.321 25.3641 181.787 27.6506 181.787 30.0432C181.787 32.3062 181.35 34.2392 180.478 35.8421C179.606 37.4451 178.339 38.6767 176.677 39.5371C175.015 40.3857 173.012 40.81 170.666 40.81ZM169.181 35.5416C169.77 35.2115 170.254 34.8462 170.631 34.4454C171.02 34.0447 171.309 33.6263 171.497 33.1902C171.686 32.7541 171.78 32.3357 171.78 31.935C171.78 31.4281 171.733 31.0038 171.639 30.662C171.544 30.3084 171.45 29.9784 171.356 29.672C171.261 29.3655 171.214 29.0178 171.214 28.6289C171.214 27.7685 171.491 27.026 172.045 26.4013C172.599 25.7766 173.312 25.4643 174.184 25.4643C175.068 25.4643 175.752 25.7825 176.235 26.419C176.718 27.0554 176.96 27.9394 176.96 29.0709C176.96 30.6149 176.377 32.0646 175.21 33.42C174.055 34.7637 172.216 35.8362 169.694 36.6377L169.181 35.5416ZM158.609 29.0178C158.173 29.0178 157.79 29.1887 157.46 29.5305C157.13 29.8723 156.87 30.3497 156.682 30.9626C156.505 31.5755 156.417 32.2885 156.417 33.1018C156.417 34.3983 156.717 35.4591 157.318 36.2841C157.919 37.0974 158.721 37.504 159.723 37.504C160.229 37.504 160.671 37.4215 161.049 37.2565C161.437 37.0797 161.815 36.8027 162.18 36.4255L163.082 37.8222C162.669 38.3526 162.139 38.8182 161.491 39.2189C160.854 39.6078 160.076 39.9084 159.157 40.1205C158.237 40.3445 157.159 40.4565 155.921 40.4565C153.541 40.4565 151.708 39.932 150.423 38.883C149.138 37.834 148.496 36.3254 148.496 34.357C148.496 33.0134 148.897 31.8407 149.698 30.8388C150.5 29.837 151.655 29.0591 153.163 28.5051C154.684 27.9512 156.499 27.6742 158.609 27.6742V29.0178Z" fill="white"/>
<path d="M202.966 30.3084C202.966 28.5405 203.202 27.079 203.673 25.9239C204.145 24.7571 204.769 23.8967 205.547 23.3427C206.325 22.777 207.174 22.4941 208.093 22.4941C209.319 22.4941 210.256 22.8654 210.904 23.6079C211.564 24.3505 211.894 25.4643 211.894 26.9493C211.894 28.4698 211.588 29.5954 210.975 30.3261C210.362 31.0451 209.56 31.4046 208.57 31.4046C207.58 31.4046 206.838 31.1512 206.343 30.6444C205.86 30.1375 205.618 29.4304 205.618 28.5228L205.6 27.7803C205.588 27.4856 205.524 27.2617 205.406 27.1085C205.288 26.9435 205.099 26.8609 204.84 26.8609C204.604 26.8609 204.392 26.967 204.204 27.1792C204.027 27.3795 203.885 27.7155 203.779 28.1869C203.673 28.6466 203.62 29.2771 203.62 30.0786L202.966 30.3084ZM203.178 23.9969L203.62 27.8333V36.4432C203.62 36.8322 203.679 37.1091 203.797 37.2741C203.915 37.4392 204.174 37.5629 204.575 37.6454L205.954 37.9283C206.284 37.9872 206.525 38.0992 206.679 38.2642C206.832 38.4292 206.909 38.659 206.909 38.9537C206.909 39.2719 206.797 39.5194 206.573 39.6962C206.36 39.873 206.048 39.9614 205.636 39.9614H195.877C195.429 39.9614 195.105 39.873 194.904 39.6962C194.716 39.5194 194.621 39.2778 194.621 38.9714C194.621 38.7474 194.674 38.553 194.78 38.388C194.898 38.2229 195.081 38.0874 195.328 37.9813L195.735 37.8045C195.912 37.7338 196.036 37.6042 196.106 37.4156C196.177 37.227 196.212 36.9088 196.212 36.4609V27.8687C196.212 27.5033 196.165 27.2499 196.071 27.1085C195.977 26.9552 195.835 26.8492 195.647 26.7902L195.222 26.6842C194.987 26.6016 194.816 26.4897 194.71 26.3482C194.604 26.2068 194.551 26.0241 194.551 25.8002C194.551 25.5409 194.627 25.3346 194.78 25.1814C194.934 25.0164 195.199 24.8632 195.576 24.7217L199.607 23.219C200.385 22.9243 200.945 22.7357 201.286 22.6532C201.628 22.5589 201.899 22.5118 202.1 22.5118C202.406 22.5118 202.642 22.6238 202.807 22.8477C202.972 23.0716 203.096 23.4547 203.178 23.9969Z" fill="white"/>
<path d="M225.678 37.5924V37.2034L225.13 37.2211V25.6764C225.13 25.2285 225.012 24.8691 224.776 24.598C224.54 24.3269 224.216 24.1913 223.804 24.1913C223.497 24.1913 223.226 24.2739 222.99 24.4389C222.767 24.5921 222.655 24.7983 222.655 25.0576V26.9847C222.655 27.9512 222.319 28.7114 221.647 29.2654C220.975 29.8075 220.02 30.0786 218.783 30.0786C217.746 30.0786 216.968 29.8547 216.449 29.4068C215.93 28.9589 215.671 28.3342 215.671 27.5328C215.671 26.7667 216.019 26.0005 216.714 25.2344C217.41 24.4565 218.453 23.8142 219.844 23.3074C221.246 22.7888 223.008 22.5295 225.13 22.5295C227.605 22.5295 229.443 22.9833 230.646 23.8908C231.86 24.7983 232.467 26.0477 232.467 27.6388V36.1073C232.467 36.343 232.52 36.5375 232.626 36.6907C232.744 36.8322 232.92 36.9029 233.156 36.9029C233.357 36.9029 233.516 36.8498 233.634 36.7438C233.763 36.6259 233.881 36.5021 233.987 36.3725C234.058 36.3018 234.134 36.237 234.217 36.178C234.311 36.1191 234.411 36.0896 234.517 36.0896C234.706 36.0896 234.842 36.1603 234.924 36.3018C235.007 36.4314 235.048 36.6023 235.048 36.8145C235.048 37.3213 234.859 37.8576 234.482 38.4233C234.117 38.9773 233.563 39.4546 232.82 39.8554C232.089 40.2443 231.17 40.4388 230.062 40.4388C228.754 40.4388 227.693 40.1736 226.88 39.6432C226.078 39.101 225.678 38.4174 225.678 37.5924ZM214.999 36.2134C214.999 34.6104 215.718 33.3493 217.156 32.43C218.606 31.4989 220.657 31.0333 223.309 31.0333C223.992 31.0333 224.582 31.0804 225.077 31.1747C225.583 31.269 225.996 31.4046 226.314 31.5814L225.748 33.0134C225.501 32.872 225.265 32.7718 225.041 32.7128C224.817 32.6539 224.576 32.6245 224.316 32.6245C223.739 32.6245 223.285 32.8248 222.955 33.2256C222.625 33.6145 222.46 34.1861 222.46 34.9405C222.46 35.7184 222.625 36.3077 222.955 36.7084C223.285 37.1091 223.715 37.3095 224.246 37.3095C224.588 37.3095 224.906 37.2329 225.2 37.0797C225.507 36.9147 225.737 36.7202 225.89 36.4963L226.297 37.8045C225.743 38.6414 224.929 39.2896 223.857 39.7493C222.796 40.2089 221.659 40.4388 220.445 40.4388C218.818 40.4388 217.504 40.038 216.502 39.2366C215.5 38.4233 214.999 37.4156 214.999 36.2134Z" fill="white"/>
<path d="M246.831 23.9792V36.4609C246.831 36.9088 246.867 37.227 246.937 37.4156C247.008 37.5924 247.132 37.722 247.309 37.8045L247.68 37.999C248.057 38.2112 248.246 38.5117 248.246 38.9007C248.246 39.6078 247.821 39.9614 246.973 39.9614H239.07C238.634 39.9614 238.316 39.873 238.115 39.6962C237.915 39.5194 237.815 39.2778 237.815 38.9714C237.815 38.7474 237.868 38.553 237.974 38.388C238.092 38.2229 238.28 38.0874 238.54 37.9813L238.946 37.8045C239.123 37.7338 239.247 37.6042 239.317 37.4156C239.388 37.227 239.424 36.9088 239.424 36.4609V27.798C239.424 27.4444 239.376 27.1969 239.282 27.0554C239.188 26.9022 239.04 26.7961 238.84 26.7372L238.433 26.6311C238.198 26.5486 238.027 26.4366 237.921 26.2952C237.815 26.1538 237.762 25.9711 237.762 25.7471C237.762 25.4878 237.832 25.2816 237.974 25.1284C238.127 24.9751 238.398 24.8219 238.787 24.6687L242.942 23.1129C243.496 22.9007 243.944 22.7475 244.285 22.6532C244.639 22.5472 244.981 22.4941 245.311 22.4941C245.806 22.4941 246.183 22.6356 246.442 22.9184C246.702 23.1895 246.831 23.5431 246.831 23.9792ZM246.212 28.2576L245.205 27.1969L245.753 26.7018C247.379 25.1932 248.776 24.1147 249.943 23.4665C251.11 22.8182 252.182 22.4941 253.16 22.4941C254.657 22.4941 255.824 23.0009 256.661 24.0146C257.51 25.0282 258.011 26.36 258.164 28.0101L258.995 36.4609C259.03 36.9088 259.071 37.227 259.118 37.4156C259.177 37.6042 259.289 37.7338 259.454 37.8045L259.879 37.9813C260.126 38.0874 260.303 38.2229 260.409 38.388C260.527 38.553 260.586 38.7474 260.586 38.9714C260.586 39.2778 260.486 39.5194 260.285 39.6962C260.097 39.873 259.778 39.9614 259.331 39.9614H251.339C250.503 39.9614 250.084 39.6078 250.084 38.9007C250.084 38.5117 250.267 38.2112 250.632 37.999L251.004 37.8045C251.18 37.722 251.316 37.5924 251.41 37.4156C251.504 37.227 251.528 36.9088 251.481 36.4609L250.791 29.0355C250.721 28.293 250.544 27.739 250.261 27.3737C249.99 27.0083 249.56 26.8256 248.97 26.8256C248.605 26.8256 248.234 26.9081 247.857 27.0731C247.491 27.2263 247.149 27.4385 246.831 27.7096L246.212 28.2576Z" fill="white"/>
<path d="M264.767 39.9614C264.331 39.9614 264.013 39.873 263.813 39.6962C263.612 39.5194 263.512 39.2778 263.512 38.9714C263.512 38.7474 263.565 38.553 263.671 38.388C263.789 38.2229 263.978 38.0874 264.237 37.9813L264.644 37.8045C264.82 37.7338 264.944 37.6042 265.015 37.4156C265.086 37.227 265.121 36.9088 265.121 36.4609V18.587C265.121 18.2216 265.074 17.9682 264.979 17.8267C264.885 17.6735 264.738 17.5674 264.537 17.5085L264.131 17.4024C263.895 17.3199 263.724 17.208 263.618 17.0665C263.512 16.9251 263.459 16.7424 263.459 16.5185C263.459 16.2592 263.53 16.0529 263.671 15.8997C263.824 15.7465 264.095 15.5932 264.484 15.44L268.639 13.8842C269.193 13.6721 269.641 13.5188 269.983 13.4246C270.336 13.3185 270.678 13.2654 271.008 13.2654C271.503 13.2654 271.88 13.4069 272.14 13.6897C272.399 13.9726 272.529 14.3262 272.529 14.7505V36.4609C272.529 36.9088 272.564 37.227 272.635 37.4156C272.705 37.5924 272.829 37.722 273.006 37.8045L273.377 37.999C273.754 38.2112 273.943 38.5117 273.943 38.9007C273.943 39.6078 273.519 39.9614 272.67 39.9614H264.767ZM270.46 32.3946L277.09 26.967C277.514 26.6252 277.697 26.2775 277.638 25.9239C277.591 25.5586 277.332 25.2816 276.86 25.093L276.4 24.8985C276.176 24.7925 276.023 24.6746 275.941 24.5449C275.858 24.4035 275.817 24.2208 275.817 23.9969C275.817 23.6904 275.923 23.4488 276.135 23.272C276.359 23.0952 276.648 23.0068 277.001 23.0068H283.967C284.344 23.0068 284.639 23.0952 284.851 23.272C285.063 23.437 285.169 23.6669 285.169 23.9615C285.169 24.2444 285.081 24.4801 284.904 24.6687C284.739 24.8573 284.374 25.0282 283.808 25.1814C283.148 25.37 282.523 25.6293 281.934 25.9593C281.357 26.2775 280.667 26.7549 279.866 27.3913L271.326 34.1626L270.46 32.3946ZM277.726 27.1615L284.109 36.8145C284.297 37.0856 284.468 37.2977 284.621 37.4509C284.775 37.5924 284.957 37.7397 285.169 37.8929C285.417 38.0697 285.617 38.2524 285.771 38.441C285.924 38.6296 286 38.8358 286 39.0598C286 39.3309 285.888 39.5489 285.664 39.7139C285.452 39.8789 285.169 39.9614 284.816 39.9614H276.4C276.082 39.9614 275.823 39.873 275.622 39.6962C275.434 39.5194 275.34 39.2837 275.34 38.9891C275.34 38.8005 275.375 38.6473 275.446 38.5294C275.528 38.3997 275.658 38.276 275.835 38.1581L276.206 37.9636C276.395 37.8694 276.501 37.7279 276.524 37.5393C276.548 37.3508 276.43 37.062 276.171 36.673L272.9 31.599L277.726 27.1615Z" fill="white"/>
<path fill-rule="evenodd" clip-rule="evenodd" d="M19.2769 2.63338C19.2769 1.63529 20.086 0.826172 21.0841 0.826172V0.826172C22.0822 0.826172 22.8914 1.63529 22.8914 2.63338V2.81661C22.8914 4.99462 25.8872 5.59053 26.7207 3.57831L26.7913 3.40795C27.1732 2.48583 28.2304 2.04794 29.1525 2.4299V2.4299C30.0746 2.81185 30.5125 3.86901 30.1306 4.79113L30.0604 4.96062C29.2268 6.97307 31.7669 8.67028 33.3071 7.13002L33.4368 7.00029C34.1426 6.29453 35.2869 6.29453 35.9926 7.00029V7.00029C36.6984 7.70605 36.6984 8.85031 35.9926 9.55607L35.8626 9.68607C34.3222 11.2265 36.0196 13.7669 38.0323 12.9332L38.202 12.8629C39.1241 12.4809 40.1813 12.9188 40.5632 13.8409V13.8409C40.9452 14.7631 40.5073 15.8202 39.5852 16.2022L39.4152 16.2726C37.4024 17.1063 37.9985 20.1031 40.1772 20.1031H40.361C41.3591 20.1031 42.1682 20.9123 42.1682 21.9104V21.9104C42.1682 22.9085 41.3591 23.7176 40.361 23.7176H30.1731C30.1728 23.7176 30.1728 23.7179 30.173 23.718V23.718C30.1732 23.7181 30.1732 23.7185 30.1729 23.7185H11.9954C11.9952 23.7185 11.9951 23.7181 11.9953 23.718V23.718C11.9956 23.7179 11.9955 23.7176 11.9952 23.7176H1.80721C0.809116 23.7176 0 22.9085 0 21.9104V21.9104C0 20.9123 0.809116 20.1031 1.80721 20.1031H1.99109C4.16981 20.1031 4.76592 17.1063 2.75304 16.2725L2.58314 16.2022C1.66102 15.8202 1.22313 14.763 1.60509 13.8409V13.8409C1.98704 12.9188 3.0442 12.4809 3.96632 12.8629L4.13585 12.9331C6.14815 13.7666 7.84524 11.2267 6.3051 9.6866L6.17548 9.55698C5.46972 8.85122 5.46972 7.70696 6.17548 7.0012V7.0012C6.88124 6.29544 8.02551 6.29544 8.73127 7.0012L8.86121 7.13114C10.4013 8.67119 12.941 6.97421 12.1075 4.96205L12.0374 4.79282C11.6554 3.87071 12.0933 2.81354 13.0155 2.43159V2.43159C13.9376 2.04964 14.9947 2.48753 15.3767 3.40965L15.4469 3.57923C16.2806 5.59179 19.2769 4.99578 19.2769 2.8174V2.63338ZM3.06403 26.7303C1.78102 26.7303 0.832785 27.9375 1.27274 29.1427V29.1427C1.54419 29.8863 2.2658 30.3448 3.05742 30.3448H39.1116C39.9032 30.3448 40.6248 29.8863 40.8963 29.1427V29.1427C41.3363 27.9375 40.388 26.7303 39.105 26.7303H3.06403ZM7.05146 33.357C5.46616 33.357 4.55163 35.0934 5.6303 36.2552C5.67179 36.2999 5.71347 36.3444 5.75534 36.3887C6.11481 36.7692 6.62065 36.9714 7.14411 36.9714H35.0249C35.5484 36.9714 36.0542 36.7692 36.4137 36.3887C36.4556 36.3444 36.4972 36.2999 36.5387 36.2552C37.6174 35.0934 36.7029 33.357 35.1176 33.357H7.05146ZM21.0845 42.9967C22.5217 42.9967 23.9253 42.8529 25.2817 42.5789C27.2679 42.1777 26.7857 39.9836 24.7593 39.9836H17.4097C15.3834 39.9836 14.9011 42.1777 16.8874 42.5789C18.2438 42.8529 19.6474 42.9967 21.0845 42.9967Z" fill="#FFD701"/>
</svg>
