<svg width="177" height="38" viewBox="0 0 177 38" fill="none" xmlns="http://www.w3.org/2000/svg">
<rect x="0.5" y="0.5" width="176" height="37" rx="7.5" fill="#202A20"/>
<rect x="0.5" y="0.5" width="176" height="37" rx="7.5" stroke="#4E6F50"/>
<g clip-path="url(#clip0_894_182)">
<path d="M19.0995 6.54102C12.2172 6.54102 6.6377 12.1203 6.6377 19.0026C6.6377 25.8852 12.2172 31.4641 19.0995 31.4641C25.9825 31.4641 31.5614 25.8852 31.5614 19.0026C31.5614 12.1208 25.9825 6.54161 19.0993 6.54161L19.0995 6.54102ZM24.8143 24.5142C24.5911 24.8803 24.112 24.9964 23.7459 24.7717C20.82 22.9845 17.1367 22.5797 12.7989 23.5708C12.3808 23.666 11.9642 23.4041 11.8689 22.986C11.7733 22.5678 12.0341 22.1511 12.4532 22.0559C17.2002 20.9709 21.2721 21.4383 24.5569 23.4458C24.923 23.6705 25.039 24.1482 24.8143 24.5142ZM26.3396 21.1206C26.0584 21.5782 25.4602 21.7226 25.0033 21.4413C21.6536 19.3819 16.5475 18.7857 12.5855 19.9883C12.0716 20.1435 11.5289 19.854 11.373 19.341C11.2182 18.8272 11.5079 18.2855 12.0209 18.1293C16.5466 16.756 22.173 17.4212 26.0197 19.7851C26.4765 20.0663 26.6209 20.6645 26.3396 21.1208V21.1206ZM26.4706 17.5873C22.4542 15.2017 15.8277 14.9824 11.9931 16.1462C11.3773 16.333 10.7261 15.9854 10.5395 15.3696C10.3529 14.7535 10.7002 14.1028 11.3164 13.9156C15.7183 12.5793 23.0361 12.8374 27.6602 15.5825C28.2152 15.9113 28.3968 16.6266 28.0679 17.1797C27.7405 17.7336 27.0233 17.9162 26.4712 17.5873H26.4706Z" fill="#1ED760"/>
</g>
<path d="M37.2148 13.5H41.0645V12.7881H38.0059V7.15869H37.2148V13.5ZM42.6066 8.15625C42.8746 8.15625 43.0856 7.94092 43.0856 7.67725C43.0856 7.40918 42.8746 7.19824 42.6066 7.19824C42.3429 7.19824 42.1276 7.40918 42.1276 7.67725C42.1276 7.94092 42.3429 8.15625 42.6066 8.15625ZM42.2243 13.5H42.9889V8.92969H42.2243V13.5ZM46.012 13.5879C47.0315 13.5879 47.7874 13.0254 47.7874 12.2256V12.2212C47.7874 11.5708 47.4534 11.2061 46.5305 10.9819L45.8054 10.8062C45.3001 10.6831 45.0935 10.4678 45.0935 10.1558V10.1514C45.0935 9.74707 45.4363 9.479 45.99 9.479C46.5569 9.479 46.8953 9.77344 46.9568 10.2173L46.9612 10.248H47.6907L47.6863 10.1909C47.6292 9.42627 46.992 8.8418 45.99 8.8418C45.0013 8.8418 44.3113 9.3999 44.3113 10.1865V10.1909C44.3113 10.8501 44.7288 11.25 45.5901 11.4565L46.3152 11.6323C46.8338 11.7598 47.0052 11.9443 47.0052 12.2739V12.2783C47.0052 12.6914 46.636 12.9507 46.0164 12.9507C45.3924 12.9507 45.054 12.6826 44.9617 12.2256L44.9529 12.1816H44.1883L44.1927 12.2212C44.2849 13.0386 44.9353 13.5879 46.012 13.5879ZM50.4281 13.5879C50.5776 13.5879 50.7402 13.5703 50.8368 13.5571V12.9375C50.7709 12.9419 50.683 12.9551 50.5907 12.9551C50.1821 12.9551 49.9667 12.8188 49.9667 12.3311V9.5625H50.8368V8.92969H49.9667V7.69482H49.1757V8.92969H48.5077V9.5625H49.1757V12.3354C49.1757 13.21 49.5888 13.5879 50.4281 13.5879ZM53.7676 13.5879C54.7652 13.5879 55.5123 12.9902 55.6617 12.2344L55.6705 12.1904H54.919L54.9058 12.23C54.774 12.6211 54.3653 12.9111 53.7852 12.9111C52.9722 12.9111 52.4537 12.3618 52.4361 11.4214H55.7276V11.1401C55.7276 9.76904 54.9673 8.8418 53.7193 8.8418C52.4713 8.8418 51.6627 9.81299 51.6627 11.228V11.2324C51.6627 12.6694 52.4537 13.5879 53.7676 13.5879ZM53.7149 9.51855C54.3829 9.51855 54.8751 9.93604 54.9498 10.8237H52.4493C52.5328 9.97119 53.0513 9.51855 53.7149 9.51855ZM56.861 13.5H57.6257V10.8105C57.6257 10.0327 58.0959 9.51855 58.8166 9.51855C59.5197 9.51855 59.8669 9.92725 59.8669 10.6699V13.5H60.6315V10.5337C60.6315 9.49219 60.0515 8.8418 59.0495 8.8418C58.3552 8.8418 57.8894 9.15381 57.6433 9.58008H57.6257V8.92969H56.861V13.5ZM66.0669 13.5879C67.3281 13.5879 68.1806 12.6738 68.1806 11.2148V11.2061C68.1806 9.74707 67.3237 8.8418 66.0625 8.8418C64.8013 8.8418 63.9487 9.75146 63.9487 11.2061V11.2148C63.9487 12.6694 64.7969 13.5879 66.0669 13.5879ZM66.0713 12.9111C65.2627 12.9111 64.7309 12.2915 64.7309 11.2148V11.2061C64.7309 10.1382 65.2671 9.51855 66.0625 9.51855C66.8711 9.51855 67.3984 10.1338 67.3984 11.2061V11.2148C67.3984 12.2871 66.8755 12.9111 66.0713 12.9111ZM69.3141 13.5H70.0787V10.8105C70.0787 10.0327 70.5489 9.51855 71.2696 9.51855C71.9728 9.51855 72.3199 9.92725 72.3199 10.6699V13.5H73.0846V10.5337C73.0846 9.49219 72.5045 8.8418 71.5026 8.8418C70.8082 8.8418 70.3424 9.15381 70.0963 9.58008H70.0787V8.92969H69.3141V13.5Z" fill="white"/>
<path d="M42.0928 30.7109C45.0986 30.7109 46.9268 29.2432 46.9268 26.9316V26.9229C46.9268 24.9629 45.8018 23.8994 43.1826 23.3457L41.7939 23.0557C40.2119 22.7129 39.4912 22.1328 39.4912 21.1836V21.1748C39.4912 20.0674 40.4932 19.3203 42.0664 19.3115C43.5693 19.3115 44.5889 20.0234 44.7646 21.2012L44.7734 21.3242H46.6895L46.6807 21.1748C46.5488 19.0479 44.7383 17.6064 42.0928 17.6064C39.4121 17.6064 37.5049 19.0918 37.4961 21.2539V21.2627C37.4961 23.1436 38.7002 24.2861 41.1875 24.8135L42.5674 25.1035C44.2461 25.4727 44.9404 26.0264 44.9404 27.0459V27.0547C44.9404 28.2412 43.8682 29.0059 42.1719 29.0059C40.4756 29.0059 39.3066 28.2764 39.1309 27.1074L39.1133 26.9932H37.1973L37.2061 27.125C37.3643 29.3574 39.2451 30.7109 42.0928 30.7109ZM48.4736 33.5762H50.3721V28.9443H50.416C50.9609 30.0166 52.0244 30.6846 53.334 30.6846C55.6543 30.6846 57.1748 28.8301 57.1748 25.8857V25.877C57.1748 22.9238 55.6631 21.0781 53.3076 21.0781C51.9893 21.0781 50.9697 21.7461 50.416 22.8447H50.3721V21.2539H48.4736V33.5762ZM52.8154 29.0498C51.3828 29.0498 50.3633 27.8018 50.3633 25.8857V25.877C50.3633 23.9521 51.374 22.7041 52.8154 22.7041C54.3008 22.7041 55.2412 23.9082 55.2412 25.877V25.8857C55.2412 27.8369 54.3096 29.0498 52.8154 29.0498ZM62.624 30.6846C65.2695 30.6846 67.0098 28.8564 67.0098 25.877V25.8594C67.0098 22.8975 65.252 21.0781 62.6152 21.0781C59.9873 21.0781 58.2383 22.9062 58.2383 25.8594V25.877C58.2383 28.8477 59.9697 30.6846 62.624 30.6846ZM62.6328 29.0938C61.1475 29.0938 60.1807 27.9248 60.1807 25.877V25.8594C60.1807 23.8379 61.1562 22.6689 62.6152 22.6689C64.1006 22.6689 65.0674 23.8379 65.0674 25.8594V25.877C65.0674 27.916 64.1182 29.0938 62.6328 29.0938ZM71.7207 30.6846C72.1074 30.6846 72.4678 30.6406 72.6875 30.6055V29.1377C72.5469 29.1553 72.3799 29.1729 72.1777 29.1729C71.3779 29.1729 70.9561 28.8916 70.9561 27.9512V22.7656H72.6875V21.2539H70.9561V18.8457H69.0137V21.2539H67.6865V22.7656H69.0137V28.0654C69.0137 29.9111 69.8926 30.6846 71.7207 30.6846ZM75.2891 19.8301C75.9131 19.8301 76.3965 19.3379 76.3965 18.7402C76.3965 18.1338 75.9131 17.6416 75.2891 17.6416C74.6738 17.6416 74.1816 18.1338 74.1816 18.7402C74.1816 19.3379 74.6738 19.8301 75.2891 19.8301ZM74.3398 30.5H76.2383V21.2539H74.3398V30.5ZM78.752 30.5H80.6592V22.7656H82.5049V21.2539H80.624V20.3047C80.624 19.4873 81.0283 19.0742 81.8809 19.0742C82.1182 19.0742 82.3555 19.0918 82.54 19.1182V17.7119C82.2852 17.668 81.8633 17.6328 81.4766 17.6328C79.5957 17.6328 78.752 18.4766 78.752 20.2695V21.2539H77.4775V22.7656H78.752V30.5ZM85.0889 33.585C86.8994 33.585 87.8662 32.8467 88.5518 30.9307L91.9971 21.2539H89.9932L87.6641 28.7773H87.6025L85.2734 21.2539H83.2168L86.583 30.5088L86.4248 30.9482C86.1084 31.8447 85.6162 32.082 84.7197 32.082C84.4648 32.082 84.2451 32.0469 84.0957 32.0117V33.4971C84.3242 33.541 84.7197 33.585 85.0889 33.585Z" fill="white"/>
<defs>
<clipPath id="clip0_894_182">
<rect width="25" height="25" fill="white" transform="translate(6.59961 6.5)"/>
</clipPath>
</defs>
</svg>
