<svg width="46" height="45" viewBox="0 0 46 45" fill="none" xmlns="http://www.w3.org/2000/svg">
<rect x="0.90625" width="45" height="45" rx="4" fill="#EFE9D1"/>
<path d="M29.1192 13.2113C27.9801 13.2111 26.8866 13.6582 26.0737 14.4564C25.2609 15.2547 24.7939 16.3402 24.773 17.4795L24.7311 19.8407C24.7286 19.9675 24.6994 20.0923 24.6453 20.207C24.5913 20.3217 24.5136 20.4236 24.4173 20.5061C24.3211 20.5887 24.2085 20.6499 24.087 20.6859C23.9654 20.7218 23.8376 20.7316 23.712 20.7147L21.3726 20.3969C18.2943 19.9771 15.345 18.5589 12.5155 16.2006C11.6193 21.163 13.3697 24.6006 17.5855 27.2527L20.2036 28.8988C20.328 28.977 20.4314 29.0845 20.5046 29.2119C20.5779 29.3393 20.6188 29.4827 20.6238 29.6296C20.6289 29.7765 20.5978 29.9224 20.5335 30.0545C20.4691 30.1866 20.3733 30.301 20.2546 30.3875L17.8687 32.1311C19.2879 32.2195 20.6352 32.1565 21.7532 31.9347C28.8239 30.5224 33.5252 25.2003 33.5252 16.421C33.5252 15.7044 32.0086 13.2113 29.1192 13.2113V13.2113ZM21.7757 17.424C21.8019 15.9788 22.2536 14.5735 23.0744 13.384C23.8952 12.1945 25.0485 11.2736 26.39 10.7366C27.7315 10.1997 29.2015 10.0706 30.6159 10.3654C32.0304 10.6602 33.3266 11.366 34.342 12.3942C35.4076 12.3867 36.3142 12.6565 38.3419 11.4272C37.8399 13.8859 37.5926 14.9533 36.5226 16.421C36.5226 27.8778 29.4833 33.4488 22.3407 34.8746C17.4431 35.8521 10.3215 34.2464 8.28027 32.1146C9.32034 32.0336 13.5466 31.5794 15.9894 29.7908C13.9227 28.4281 5.69658 23.5857 11.1023 10.5667C13.6395 13.5306 16.2127 15.5485 18.8204 16.6189C20.5558 17.331 20.9814 17.316 21.7772 17.4255L21.7757 17.424Z" fill="#425A42"/>
</svg>
