<svg width="177" height="38" viewBox="0 0 177 38" fill="none" xmlns="http://www.w3.org/2000/svg">
<rect x="0.5" y="0.5" width="176" height="37" rx="7.5" fill="#202A20"/>
<rect x="0.5" y="0.5" width="176" height="37" rx="7.5" stroke="#4E6F50"/>
<g clip-path="url(#clip0_894_175)">
<path d="M31.0379 12.9763C30.7509 11.9024 29.9052 11.0567 28.8313 10.7697C26.8846 10.248 19.0795 10.248 19.0795 10.248C19.0795 10.248 11.2744 10.248 9.32767 10.7697C8.25395 11.0567 7.40808 11.9024 7.12106 12.9763C6.59961 14.9228 6.59961 18.9841 6.59961 18.9841C6.59961 18.9841 6.59961 23.0454 7.12106 24.9917C7.40808 26.0656 8.25395 26.9114 9.32767 27.1985C11.2744 27.7199 19.0795 27.7199 19.0795 27.7199C19.0795 27.7199 26.8846 27.7199 28.8313 27.1985C29.9052 26.9114 30.7509 26.0656 31.0379 24.9917C31.5596 23.0454 31.5596 18.9841 31.5596 18.9841C31.5596 18.9841 31.5596 14.9228 31.0379 12.9763Z" fill="#ED1F24"/>
<path d="M16.583 22.7283L23.0676 18.9843L16.583 15.2402V22.7283Z" fill="white"/>
</g>
<path d="M37.2148 13.5H41.0645V12.7881H38.0059V7.15869H37.2148V13.5ZM42.6066 8.15625C42.8746 8.15625 43.0856 7.94092 43.0856 7.67725C43.0856 7.40918 42.8746 7.19824 42.6066 7.19824C42.3429 7.19824 42.1276 7.40918 42.1276 7.67725C42.1276 7.94092 42.3429 8.15625 42.6066 8.15625ZM42.2243 13.5H42.9889V8.92969H42.2243V13.5ZM46.012 13.5879C47.0315 13.5879 47.7874 13.0254 47.7874 12.2256V12.2212C47.7874 11.5708 47.4534 11.2061 46.5305 10.9819L45.8054 10.8062C45.3001 10.6831 45.0935 10.4678 45.0935 10.1558V10.1514C45.0935 9.74707 45.4363 9.479 45.99 9.479C46.5569 9.479 46.8953 9.77344 46.9568 10.2173L46.9612 10.248H47.6907L47.6863 10.1909C47.6292 9.42627 46.992 8.8418 45.99 8.8418C45.0013 8.8418 44.3113 9.3999 44.3113 10.1865V10.1909C44.3113 10.8501 44.7288 11.25 45.5901 11.4565L46.3152 11.6323C46.8338 11.7598 47.0052 11.9443 47.0052 12.2739V12.2783C47.0052 12.6914 46.636 12.9507 46.0164 12.9507C45.3924 12.9507 45.054 12.6826 44.9617 12.2256L44.9529 12.1816H44.1883L44.1927 12.2212C44.2849 13.0386 44.9353 13.5879 46.012 13.5879ZM50.4281 13.5879C50.5776 13.5879 50.7402 13.5703 50.8368 13.5571V12.9375C50.7709 12.9419 50.683 12.9551 50.5907 12.9551C50.1821 12.9551 49.9667 12.8188 49.9667 12.3311V9.5625H50.8368V8.92969H49.9667V7.69482H49.1757V8.92969H48.5077V9.5625H49.1757V12.3354C49.1757 13.21 49.5888 13.5879 50.4281 13.5879ZM53.7676 13.5879C54.7652 13.5879 55.5123 12.9902 55.6617 12.2344L55.6705 12.1904H54.919L54.9058 12.23C54.774 12.6211 54.3653 12.9111 53.7852 12.9111C52.9722 12.9111 52.4537 12.3618 52.4361 11.4214H55.7276V11.1401C55.7276 9.76904 54.9673 8.8418 53.7193 8.8418C52.4713 8.8418 51.6627 9.81299 51.6627 11.228V11.2324C51.6627 12.6694 52.4537 13.5879 53.7676 13.5879ZM53.7149 9.51855C54.3829 9.51855 54.8751 9.93604 54.9498 10.8237H52.4493C52.5328 9.97119 53.0513 9.51855 53.7149 9.51855ZM56.861 13.5H57.6257V10.8105C57.6257 10.0327 58.0959 9.51855 58.8166 9.51855C59.5197 9.51855 59.8669 9.92725 59.8669 10.6699V13.5H60.6315V10.5337C60.6315 9.49219 60.0515 8.8418 59.0495 8.8418C58.3552 8.8418 57.8894 9.15381 57.6433 9.58008H57.6257V8.92969H56.861V13.5ZM66.0669 13.5879C67.3281 13.5879 68.1806 12.6738 68.1806 11.2148V11.2061C68.1806 9.74707 67.3237 8.8418 66.0625 8.8418C64.8013 8.8418 63.9487 9.75146 63.9487 11.2061V11.2148C63.9487 12.6694 64.7969 13.5879 66.0669 13.5879ZM66.0713 12.9111C65.2627 12.9111 64.7309 12.2915 64.7309 11.2148V11.2061C64.7309 10.1382 65.2671 9.51855 66.0625 9.51855C66.8711 9.51855 67.3984 10.1338 67.3984 11.2061V11.2148C67.3984 12.2871 66.8755 12.9111 66.0713 12.9111ZM69.3141 13.5H70.0787V10.8105C70.0787 10.0327 70.5489 9.51855 71.2696 9.51855C71.9728 9.51855 72.3199 9.92725 72.3199 10.6699V13.5H73.0846V10.5337C73.0846 9.49219 72.5045 8.8418 71.5026 8.8418C70.8082 8.8418 70.3424 9.15381 70.0963 9.58008H70.0787V8.92969H69.3141V13.5Z" fill="white"/>
<path d="M41.293 30.5H43.2617V25.3057L47.7354 17.8174H45.5469L42.3125 23.416H42.251L39.0166 17.8174H36.8281L41.293 25.3057V30.5ZM51.1104 30.6846C53.7559 30.6846 55.4961 28.8564 55.4961 25.877V25.8594C55.4961 22.8975 53.7383 21.0781 51.1016 21.0781C48.4736 21.0781 46.7246 22.9062 46.7246 25.8594V25.877C46.7246 28.8477 48.4561 30.6846 51.1104 30.6846ZM51.1191 29.0938C49.6338 29.0938 48.667 27.9248 48.667 25.877V25.8594C48.667 23.8379 49.6426 22.6689 51.1016 22.6689C52.5869 22.6689 53.5537 23.8379 53.5537 25.8594V25.877C53.5537 27.916 52.6045 29.0938 51.1191 29.0938ZM60.1104 30.6846C61.5166 30.6846 62.457 30.043 62.9404 29.1113H62.9844V30.5H64.8916V21.2539H62.9844V26.6504C62.9844 28.0918 62.123 29.0498 60.7871 29.0498C59.4688 29.0498 58.8184 28.2764 58.8184 26.8789V21.2539H56.9199V27.248C56.9199 29.375 58.0801 30.6846 60.1104 30.6846ZM68.4951 30.5H70.4639V19.5137H74.3398V17.8174H64.6104V19.5137H68.4951V30.5ZM77.1787 30.6846C78.585 30.6846 79.5254 30.043 80.0088 29.1113H80.0527V30.5H81.96V21.2539H80.0527V26.6504C80.0527 28.0918 79.1914 29.0498 77.8555 29.0498C76.5371 29.0498 75.8867 28.2764 75.8867 26.8789V21.2539H73.9883V27.248C73.9883 29.375 75.1484 30.6846 77.1787 30.6846ZM88.7539 30.6846C91.1006 30.6846 92.6211 28.8213 92.6211 25.877V25.8682C92.6211 22.9238 91.0918 21.0781 88.7715 21.0781C87.4619 21.0781 86.4072 21.7373 85.8535 22.8271H85.8096V17.8174H83.9111V30.5H85.8096V28.9355H85.8535C86.3984 30.0166 87.4268 30.6846 88.7539 30.6846ZM88.2529 29.0498C86.8115 29.0498 85.8008 27.8018 85.8008 25.877V25.8682C85.8008 23.9521 86.8203 22.7041 88.2529 22.7041C89.7471 22.7041 90.6787 23.917 90.6787 25.8682V25.877C90.6787 27.8457 89.7471 29.0498 88.2529 29.0498ZM98.0352 30.6846C100.276 30.6846 101.7 29.3486 101.999 27.8809L102.017 27.7842H100.215L100.188 27.8545C99.9512 28.5488 99.2041 29.1289 98.0791 29.1289C96.5674 29.1289 95.6094 28.1094 95.5742 26.3604H102.122V25.7188C102.122 22.9414 100.531 21.0781 97.9385 21.0781C95.3457 21.0781 93.6758 23.0117 93.6758 25.9033V25.9121C93.6758 28.8301 95.3193 30.6846 98.0352 30.6846ZM97.9473 22.6338C99.1865 22.6338 100.083 23.416 100.241 25.0156H95.6006C95.7676 23.4688 96.7168 22.6338 97.9473 22.6338Z" fill="white"/>
<defs>
<clipPath id="clip0_894_175">
<rect width="25" height="25" fill="white" transform="translate(6.59961 6.5)"/>
</clipPath>
</defs>
</svg>
